<svg width="23" height="23" viewBox="0 0 23 23" fill="none" xmlns="http://www.w3.org/2000/svg">
<path d="M21.7222 15.9722C20.125 15.9722 18.5917 15.7167 17.1606 15.2439C16.7133 15.1033 16.215 15.2056 15.8572 15.5506L13.0461 18.3617C9.43 16.5217 6.46556 13.57 4.62556 9.94111L7.43667 7.11722C7.79444 6.785 7.89667 6.28667 7.75611 5.83944C7.28333 4.40833 7.02778 2.875 7.02778 1.27778C7.02778 0.575 6.45278 0 5.75 0H1.27778C0.575 0 0 0.575 0 1.27778C0 13.2761 9.72389 23 21.7222 23C22.425 23 23 22.425 23 21.7222V17.25C23 16.5472 22.425 15.9722 21.7222 15.9722ZM20.4444 11.5H23C23 5.14944 17.8506 0 11.5 0V2.55556C16.445 2.55556 20.4444 6.555 20.4444 11.5ZM15.3333 11.5H17.8889C17.8889 7.97333 15.0267 5.11111 11.5 5.11111V7.66667C13.6211 7.66667 15.3333 9.37889 15.3333 11.5Z" fill="white"/>
</svg>
