<svg width="153" height="36" viewBox="0 0 153 36" fill="none" xmlns="http://www.w3.org/2000/svg">
<path d="M50.3267 22H49.896V22.2529C49.8823 23.3285 49.4972 24.1374 48.7407 24.6797C47.9842 25.222 46.9019 25.4932 45.4937 25.4932H45.1587C43.7505 25.4932 42.6772 25.1491 41.939 24.4609C41.2052 23.7773 40.8384 22.7725 40.8384 21.4463V18.8281L42.6089 18.835V21.4395C42.6089 22.196 42.8117 22.7542 43.2173 23.1143C43.6229 23.4743 44.2632 23.6543 45.1382 23.6543H45.521C46.1453 23.6543 46.6535 23.5951 47.0454 23.4766C47.4419 23.3626 47.7244 23.2008 47.8931 22.9912C48.0617 22.7816 48.146 22.5195 48.146 22.2051V22H46.6968C46.3185 22 46.0588 21.7266 45.9175 21.1797C45.7443 20.5052 45.8354 20.168 46.1909 20.168H50.3267C50.6229 20.168 50.771 20.4619 50.771 21.0498V21.125C50.771 21.7083 50.6229 22 50.3267 22ZM52.4663 24.29C52.4663 24.0166 52.562 23.7819 52.7534 23.5859C52.9448 23.3945 53.1772 23.2988 53.4507 23.2988C53.5874 23.2988 53.715 23.3239 53.8335 23.374C53.952 23.4242 54.0591 23.4948 54.1548 23.5859C54.2505 23.6816 54.3211 23.7887 54.3667 23.9072C54.4168 24.0257 54.4419 24.151 54.4419 24.2832C54.4419 24.4245 54.4168 24.5544 54.3667 24.6729C54.3211 24.7913 54.2505 24.8962 54.1548 24.9873C54.091 25.0511 54.0226 25.1035 53.9497 25.1445C53.8768 25.1901 53.7993 25.2243 53.7173 25.2471C53.6353 25.2699 53.5487 25.2812 53.4575 25.2812C53.3208 25.2812 53.1932 25.2562 53.0747 25.2061C52.9562 25.1559 52.8491 25.083 52.7534 24.9873C52.6577 24.8962 52.5848 24.7913 52.5347 24.6729C52.4891 24.5544 52.4663 24.4268 52.4663 24.29ZM50.5386 24.9873C50.3472 24.7959 50.2515 24.5635 50.2515 24.29C50.2515 24.0166 50.3472 23.7819 50.5386 23.5859C50.73 23.3945 50.9624 23.2988 51.2358 23.2988C51.327 23.2988 51.4136 23.3102 51.4956 23.333C51.5822 23.3558 51.6619 23.3877 51.7349 23.4287C51.8078 23.4743 51.8761 23.529 51.9399 23.5928C52.0356 23.6839 52.1063 23.7887 52.1519 23.9072C52.202 24.0257 52.2271 24.151 52.2271 24.2832C52.2271 24.3151 52.2248 24.3424 52.2202 24.3652C52.2202 24.3926 52.2179 24.4199 52.2134 24.4473C52.2088 24.4746 52.2043 24.4997 52.1997 24.5225C52.1951 24.5498 52.1883 24.5749 52.1792 24.5977C52.1701 24.6204 52.161 24.6432 52.1519 24.666C52.1427 24.6934 52.1313 24.7184 52.1177 24.7412C52.1086 24.764 52.0972 24.7845 52.0835 24.8027C52.0698 24.8255 52.0562 24.846 52.0425 24.8643C52.0288 24.887 52.0129 24.9076 51.9946 24.9258C51.9764 24.9486 51.9582 24.9691 51.9399 24.9873C51.744 25.1833 51.5116 25.2812 51.2427 25.2812C50.9647 25.2812 50.73 25.1833 50.5386 24.9873ZM50.272 22C50.0259 22 49.8345 21.918 49.6978 21.7539C49.5565 21.5898 49.4858 21.3802 49.4858 21.125V21.0498C49.4858 20.8812 49.5155 20.7308 49.5747 20.5986C49.634 20.4665 49.7251 20.3617 49.8481 20.2842C49.9666 20.2067 50.1079 20.168 50.272 20.168H51.8647C52.1974 20.168 52.439 20.0768 52.5894 19.8945C52.7443 19.7122 52.8218 19.4001 52.8218 18.958V16.7295H54.5854V18.9238C54.5854 19.9128 54.3621 20.6738 53.9155 21.207C53.4735 21.7357 52.8241 22 51.9673 22H50.272ZM56.0688 21.9932V12.7168H57.7778V21.9932H56.0688ZM65.1333 22H64.354C64.2902 23.1029 63.9188 23.9368 63.2397 24.502C62.5653 25.0716 61.6174 25.3542 60.396 25.3496H59.3979V23.5176H60.355C61.1024 23.5221 61.6493 23.3991 61.9956 23.1484C62.3465 22.8978 62.5356 22.515 62.563 22H61.5991C60.8198 22 60.2274 21.7607 59.8218 21.2822C59.4207 20.8037 59.2202 20.1224 59.2202 19.2383C59.2248 18.3496 59.4458 17.6683 59.8833 17.1943C60.3254 16.7158 60.9611 16.4766 61.7905 16.4766C62.6245 16.472 63.2603 16.7135 63.6978 17.2012C64.1353 17.6842 64.3563 18.3792 64.3608 19.2861V20.168H65.1333C65.4295 20.168 65.5776 20.4619 65.5776 21.0498V21.125C65.5776 21.7083 65.4295 22 65.1333 22ZM61.77 18.2197C61.4419 18.2197 61.2072 18.2972 61.0659 18.4521C60.9246 18.6025 60.854 18.8623 60.854 19.2314C60.854 19.4639 60.8813 19.6484 60.936 19.7852C60.9907 19.9219 61.0705 20.0199 61.1753 20.0791C61.2801 20.1338 61.4191 20.1611 61.5923 20.1611H62.6313L62.6245 19.3271C62.6245 18.917 62.5562 18.6299 62.4194 18.4658C62.2827 18.2972 62.0662 18.2152 61.77 18.2197ZM65.0786 22C64.8325 22 64.6411 21.918 64.5044 21.7539C64.3631 21.5898 64.2925 21.3802 64.2925 21.125V21.0498C64.2925 20.79 64.3608 20.5781 64.4976 20.4141C64.6388 20.25 64.8325 20.168 65.0786 20.168H66.2202C65.924 19.7441 65.7804 19.2565 65.7896 18.7051C65.7941 18.5684 65.8055 18.4362 65.8237 18.3086C65.842 18.1764 65.8693 18.0465 65.9058 17.9189C65.9468 17.7959 65.9946 17.6729 66.0493 17.5498C66.104 17.4268 66.1678 17.306 66.2407 17.1875C66.6144 16.6042 67.1271 16.2419 67.7788 16.1006C68.271 15.9958 68.7541 16.0345 69.228 16.2168L69.9868 15.1094L70.2192 15.3281C71.2583 16.2988 72.0376 17.1989 72.5571 18.0283C73.1131 18.917 73.3866 19.6644 73.3774 20.2705C73.3683 20.9997 73.0129 21.6195 72.311 22.1299C71.9328 22.4033 71.3244 22.4717 70.4858 22.335C69.7157 22.2119 68.9888 21.9476 68.3052 21.542C67.257 21.8473 66.3068 22 65.4546 22H65.0786ZM68.189 19.8057C68.7176 19.432 69.0343 18.9808 69.1392 18.4521C69.1756 18.2607 69.1711 18.1104 69.1255 18.001C69.0799 17.887 68.9888 17.7936 68.8521 17.7207C68.6196 17.5977 68.3713 17.5908 68.1069 17.7002C67.8062 17.8278 67.6056 18.0625 67.5054 18.4043C67.3869 18.8145 67.4211 19.1517 67.6079 19.416C67.772 19.6484 67.9657 19.7783 68.189 19.8057ZM69.8638 20.3936C70.2192 20.5622 70.5382 20.6647 70.8208 20.7012C70.9575 20.7148 71.0692 20.7126 71.1558 20.6943C71.2424 20.6761 71.3084 20.6488 71.354 20.6123C71.5454 20.4437 71.6548 20.2409 71.6821 20.0039C71.6958 19.8945 71.6707 19.7578 71.6069 19.5938C71.5431 19.4251 71.4269 19.2201 71.2583 18.9785C71.0942 18.737 70.8846 18.4818 70.6294 18.2129C70.6704 19.0241 70.4152 19.751 69.8638 20.3936ZM81.7788 17.9463C81.5874 17.7503 81.4917 17.5156 81.4917 17.2422C81.4917 16.9688 81.5874 16.7363 81.7788 16.5449C81.9702 16.349 82.2026 16.251 82.4761 16.251C82.5672 16.251 82.6538 16.2624 82.7358 16.2852C82.8224 16.3079 82.9022 16.3421 82.9751 16.3877C83.048 16.4287 83.1164 16.4811 83.1802 16.5449C83.2759 16.6361 83.3465 16.7409 83.3921 16.8594C83.4422 16.9779 83.4673 17.1032 83.4673 17.2354C83.4673 17.2673 83.465 17.2969 83.4604 17.3242C83.4604 17.347 83.4582 17.3721 83.4536 17.3994C83.4491 17.4268 83.4445 17.4541 83.4399 17.4814C83.4354 17.5042 83.4285 17.527 83.4194 17.5498C83.4103 17.5726 83.4012 17.5977 83.3921 17.625C83.383 17.6478 83.3716 17.6706 83.3579 17.6934C83.3488 17.7161 83.3374 17.7389 83.3237 17.7617C83.3101 17.7799 83.2964 17.8005 83.2827 17.8232C83.269 17.8415 83.2531 17.862 83.2349 17.8848C83.2166 17.903 83.1984 17.9212 83.1802 17.9395C82.9842 18.1354 82.7518 18.2334 82.4829 18.2334C82.2049 18.2334 81.9702 18.1377 81.7788 17.9463ZM78.0601 18.4043H79.8306V21.0088C79.8306 21.7744 80.0402 22.3395 80.4595 22.7041C80.8787 23.0687 81.5441 23.251 82.4556 23.251H82.5991H82.7427C83.6268 23.2236 84.2716 23.0368 84.6772 22.6904C85.0874 22.3441 85.2925 21.82 85.2925 21.1182L85.2856 17.0439H87.0767V21.1182C87.0767 21.9613 86.9103 22.6745 86.5776 23.2578C86.2495 23.8457 85.7642 24.2923 85.1216 24.5977C84.4836 24.903 83.6997 25.0671 82.77 25.0898H82.606H82.4419C80.4595 25.0898 79.1447 24.4404 78.4976 23.1416C78.2059 22.5537 78.0601 21.8473 78.0601 21.0225V18.4043ZM91.3765 22H91.1987C90.2782 22 89.5763 21.7311 89.0933 21.1934C88.6375 20.6784 88.4097 19.9059 88.4097 18.876V12.6553H90.1392V18.8145C90.1392 19.3021 90.2257 19.6507 90.3989 19.8604C90.5721 20.0654 90.8455 20.168 91.2192 20.168H91.3765C91.6727 20.168 91.8208 20.4619 91.8208 21.0498V21.125C91.8208 21.7083 91.6727 22 91.3765 22ZM91.3149 22C91.1509 22 91.0096 21.9613 90.8911 21.8838C90.7681 21.8063 90.6769 21.7038 90.6177 21.5762C90.5584 21.444 90.5288 21.2936 90.5288 21.125V21.0498C90.5288 20.79 90.5994 20.5781 90.7407 20.4141C90.8774 20.25 91.0688 20.168 91.3149 20.168H93.6938C93.9126 20.168 94.0972 20.1543 94.2476 20.127C94.4025 20.0951 94.521 20.0495 94.603 19.9902C94.6896 19.931 94.7511 19.8649 94.7876 19.792C94.8241 19.7145 94.8423 19.6234 94.8423 19.5186C94.8423 19.4548 94.7853 19.3294 94.6714 19.1426C94.562 18.9512 94.3979 18.7301 94.1792 18.4795L92.3267 16.3672C92.1899 16.2168 92.076 16.0869 91.9849 15.9775C91.8937 15.8636 91.8208 15.7702 91.7661 15.6973C91.6066 15.4831 91.5405 15.2051 91.5679 14.8633C91.577 14.7357 91.5975 14.6149 91.6294 14.501C91.6659 14.387 91.7114 14.2799 91.7661 14.1797C91.8254 14.0794 91.8914 13.9906 91.9644 13.9131C92.0418 13.8311 92.1284 13.7581 92.2241 13.6943C92.3244 13.6305 92.4338 13.5781 92.5522 13.5371L97.3374 11.8623V13.7012L93.5093 15.041L95.4302 17.2217C96.2277 18.1286 96.5809 18.9899 96.4897 19.8057C96.4624 20.0609 96.4009 20.3001 96.3052 20.5234C96.214 20.7467 96.0887 20.9518 95.9292 21.1387C95.7697 21.3255 95.5806 21.4896 95.3618 21.6309C94.9927 21.877 94.5461 22 94.022 22H91.3149ZM97.2007 11.4727L92.436 13.1543V12.1562L97.2007 10.4746V11.4727ZM103.175 21.6582C103.175 22.8704 102.836 23.7887 102.157 24.4131C101.478 25.042 100.491 25.3542 99.1968 25.3496H98.2124V23.5176H99.1694C99.9168 23.5221 100.464 23.3991 100.81 23.1484C101.161 22.8978 101.35 22.515 101.377 22H100.414C99.6343 22 99.0418 21.7607 98.6362 21.2822C98.2352 20.8037 98.0347 20.1224 98.0347 19.2383C98.0392 18.3496 98.2603 17.6683 98.6978 17.1943C99.1398 16.7158 99.7778 16.4743 100.612 16.4697C101.027 16.4697 101.393 16.5335 101.712 16.6611C102.036 16.7842 102.305 16.9665 102.519 17.208C102.733 17.445 102.895 17.7389 103.004 18.0898C103.118 18.4362 103.175 18.835 103.175 19.2861V21.6582ZM100.584 18.2197C100.256 18.2197 100.022 18.2972 99.8804 18.4521C99.7391 18.6025 99.6685 18.8623 99.6685 19.2314C99.6685 19.4639 99.6958 19.6484 99.7505 19.7852C99.8052 19.9219 99.8849 20.0199 99.9897 20.0791C100.095 20.1338 100.234 20.1611 100.407 20.1611H101.446L101.439 19.3271C101.439 18.9215 101.371 18.6367 101.234 18.4727C101.097 18.304 100.881 18.2197 100.584 18.2197ZM107.496 22H107.318C106.397 22 105.695 21.7311 105.212 21.1934C104.757 20.6784 104.529 19.9059 104.529 18.876V12.6553H106.258V18.8145C106.258 19.3021 106.345 19.6507 106.518 19.8604C106.691 20.0654 106.965 20.168 107.338 20.168H107.496C107.792 20.168 107.94 20.4619 107.94 21.0498V21.125C107.94 21.7083 107.792 22 107.496 22ZM107.434 22C107.188 22 106.997 21.918 106.86 21.7539C106.719 21.5898 106.648 21.3802 106.648 21.125V21.0498C106.648 20.8812 106.678 20.7308 106.737 20.5986C106.796 20.4665 106.887 20.3617 107.01 20.2842C107.129 20.2067 107.27 20.168 107.434 20.168H109.027C109.36 20.168 109.601 20.0768 109.751 19.8945C109.906 19.7122 109.984 19.4001 109.984 18.958V16.7295H111.748V18.9238C111.748 19.9128 111.524 20.6738 111.078 21.207C110.636 21.7357 109.986 22 109.129 22H107.434ZM109 15.3486C108.808 15.1527 108.712 14.918 108.712 14.6445C108.712 14.3711 108.808 14.1387 109 13.9473C109.191 13.7513 109.423 13.6533 109.697 13.6533C109.788 13.6533 109.875 13.6647 109.957 13.6875C110.043 13.7103 110.123 13.7445 110.196 13.79C110.269 13.8311 110.337 13.8835 110.401 13.9473C110.497 14.0384 110.567 14.1432 110.613 14.2617C110.663 14.3802 110.688 14.5055 110.688 14.6377C110.688 14.6696 110.686 14.6992 110.681 14.7266C110.681 14.7493 110.679 14.7744 110.674 14.8018C110.67 14.8291 110.665 14.8564 110.661 14.8838C110.656 14.9066 110.649 14.9294 110.64 14.9521C110.631 14.9749 110.622 15 110.613 15.0273C110.604 15.0501 110.592 15.0729 110.579 15.0957C110.569 15.1185 110.558 15.1413 110.544 15.1641C110.531 15.1823 110.517 15.2028 110.503 15.2256C110.49 15.2438 110.474 15.2643 110.456 15.2871C110.437 15.3053 110.419 15.3236 110.401 15.3418C110.205 15.5378 109.972 15.6357 109.704 15.6357C109.426 15.6357 109.191 15.54 109 15.3486Z" fill="white"/>
<path d="M145.475 5.94264C145.777 6.38285 145.95 6.89521 145.978 7.42822C146.006 7.96122 145.887 8.49608 145.634 8.97897L140.379 19.0079C140.2 19.3503 140.115 19.7291 140.133 20.1069C140.151 20.4848 140.271 20.8488 140.48 21.1632L142.831 24.6739C143.417 25.5486 143.787 26.5458 143.911 27.5906L143.992 28.268C144.009 28.3906 143.989 28.5164 143.935 28.6306C143.881 28.7449 143.795 28.8429 143.686 28.9132C143.578 28.9836 143.452 29.0234 143.323 29.0281C143.194 29.0327 143.067 29.002 142.957 28.9394L142.358 28.6011C141.417 28.087 140.615 27.3712 140.012 26.5072L137.594 23.0402C137.377 22.7304 137.078 22.4829 136.726 22.3219C136.375 22.161 135.983 22.0921 135.59 22.1222L124.071 22.9864C123.516 23.0273 122.964 22.9277 122.47 22.6975C121.976 22.4673 121.557 22.1145 121.256 21.6744C126.181 21.1724 131.467 19.2752 133.642 18.4291C133.711 18.4017 133.773 18.36 133.824 18.307C133.875 18.254 133.913 18.1911 133.936 18.1229C133.958 18.0547 133.965 17.9829 133.955 17.9128C133.946 17.8426 133.92 17.776 133.879 17.7177L132.97 18.0311C132.756 18.1059 132.524 18.1008 132.319 18.017C132.114 17.9332 131.953 17.7768 131.866 17.5794L131.386 16.4787C131.322 16.3295 131.311 16.163 131.355 16.0044C131.402 15.8393 131.387 15.6652 131.313 15.513L131.129 15.117L131.469 15.4596C131.576 15.5666 131.715 15.6388 131.868 15.6667L132.125 15.7136L132.541 15.8002L132.025 15.0587C131.696 14.5866 131.432 14.0744 131.239 13.5345L130.264 10.8163L126.978 11.6086C126.636 11.691 126.278 11.6605 125.964 11.522C125.649 11.3834 125.395 11.1451 125.244 10.8456L124.772 9.91172L129.534 8.7743L129.272 8.01423C129.262 7.98771 129.262 7.9585 129.271 7.93128C129.281 7.90406 129.299 7.88043 129.324 7.8642C129.349 7.84796 129.378 7.84007 129.408 7.84179C129.437 7.84352 129.465 7.85475 129.486 7.87369L130.1 8.40911L133.012 4.56292L133.719 5.35365C133.943 5.60376 134.071 5.92168 134.082 6.25629C134.093 6.59091 133.987 6.92277 133.78 7.1985L131.775 9.87512L133.949 11.7758C134.387 12.1574 134.77 12.5929 135.09 13.0717L135.589 13.8192L135.672 13.416L135.728 13.1667C135.763 13.0164 135.747 12.8608 135.684 12.7225L135.488 12.2798L135.785 12.5957C135.902 12.7197 136.062 12.7995 136.236 12.8216C136.403 12.8435 136.557 12.9173 136.673 13.0319L137.527 13.8868C137.681 14.04 137.767 14.2453 137.768 14.4615C137.769 14.6777 137.685 14.8887 137.533 15.0522L136.879 15.7371C136.918 15.7967 136.971 15.8465 137.034 15.8828C137.097 15.9192 137.168 15.941 137.241 15.9468C137.315 15.9526 137.39 15.9422 137.46 15.9163C137.53 15.8903 137.593 15.8496 137.645 15.7972C139.272 14.2049 143.103 10.1797 145.475 5.94264Z" fill="white"/>
<path d="M6.99047 5.94264C6.68891 6.38285 6.51546 6.89521 6.48759 7.42822C6.45972 7.96122 6.57841 8.49608 6.8317 8.97897L12.0865 19.0079C12.2656 19.3503 12.3505 19.7291 12.3327 20.1069C12.315 20.4848 12.1953 20.8488 11.9853 21.1632L9.63499 24.6739C9.04843 25.5486 8.67929 26.5458 8.55524 27.5906L8.47374 28.268C8.45683 28.3906 8.47661 28.5164 8.53079 28.6306C8.58497 28.7449 8.6713 28.8429 8.77975 28.9132C8.88819 28.9836 9.01429 29.0234 9.1433 29.0281C9.27232 29.0327 9.39896 29.002 9.50847 28.9394L10.1074 28.6011C11.0488 28.087 11.8511 27.3712 12.4543 26.5072L14.8715 23.0402C15.0889 22.7304 15.3881 22.4829 15.7395 22.3219C16.091 22.161 16.4826 22.0921 16.8759 22.1222L28.3948 22.9864C28.9496 23.0273 29.5016 22.9277 29.9956 22.6975C30.4896 22.4673 30.9084 22.1145 31.2102 21.6744C26.2852 21.1724 20.9992 19.2752 18.8237 18.4291C18.7548 18.4017 18.6927 18.36 18.6419 18.307C18.5911 18.254 18.5529 18.1911 18.5302 18.1229C18.5075 18.0547 18.5007 17.9829 18.5105 17.9128C18.5202 17.8426 18.5462 17.776 18.5866 17.7177L19.4962 18.0311C19.7096 18.1059 19.942 18.1008 20.1467 18.017C20.3515 17.9332 20.5133 17.7768 20.5996 17.5794L21.0802 16.4787C21.1437 16.3295 21.1545 16.163 21.111 16.0044C21.0639 15.8393 21.0786 15.6652 21.1525 15.513L21.3371 15.117L20.9973 15.4596C20.8902 15.5666 20.7509 15.6388 20.5979 15.6667L20.3406 15.7136L19.9249 15.8002L20.4409 15.0587C20.7696 14.5866 21.0336 14.0744 21.2265 13.5345L22.2017 10.8163L25.4882 11.6086C25.8301 11.691 26.1874 11.6605 26.5022 11.522C26.817 11.3834 27.0707 11.1451 27.2221 10.8456L27.6934 9.91172L22.9319 8.7743L23.1938 8.01423C23.2037 7.98771 23.2039 7.9585 23.1944 7.93128C23.185 7.90406 23.1663 7.88043 23.1416 7.8642C23.1168 7.84796 23.0873 7.84007 23.0579 7.84179C23.0285 7.84352 23.0008 7.85475 22.9793 7.87369L22.3656 8.40911L19.4537 4.56292L18.7472 5.35365C18.5231 5.60376 18.3952 5.92168 18.384 6.25629C18.3728 6.59091 18.479 6.92277 18.6855 7.1985L20.6908 9.87512L18.5166 11.7758C18.0789 12.1574 17.6954 12.5929 17.3755 13.0717L16.8768 13.8192L16.7939 13.416L16.7375 13.1667C16.7028 13.0164 16.7184 12.8608 16.7821 12.7225L16.978 12.2798L16.681 12.5957C16.5636 12.7197 16.4041 12.7995 16.2294 12.8216C16.0626 12.8435 15.9093 12.9173 15.7928 13.0319L14.9388 13.8868C14.785 14.04 14.6989 14.2453 14.6977 14.4615C14.6966 14.6777 14.7805 14.8887 14.9327 15.0522L15.5866 15.7371C15.5474 15.7967 15.4945 15.8465 15.4317 15.8828C15.369 15.9192 15.2981 15.941 15.2243 15.9468C15.1506 15.9526 15.0759 15.9422 15.006 15.9163C14.9361 15.8903 14.8727 15.8496 14.8207 15.7972C13.1941 14.2049 9.36248 10.1797 6.99047 5.94264Z" fill="white"/>
</svg>
