<svg width="1440" height="1227" viewBox="0 0 1440 1227" fill="none" xmlns="http://www.w3.org/2000/svg">
<path d="M900.394 908.93C897.871 907.176 895.351 905.297 892.939 903.382C892.423 902.972 891.979 902.488 891.632 901.959C891.285 901.43 891.041 900.866 890.916 900.299C890.79 899.733 890.785 899.174 890.9 898.656C891.015 898.138 891.248 897.671 891.587 897.28C891.925 896.89 892.362 896.584 892.872 896.38C893.381 896.176 893.955 896.079 894.559 896.093C895.163 896.108 895.786 896.233 896.392 896.464C896.998 896.694 897.576 897.023 898.092 897.434C906.313 904.007 915.361 909.524 924.881 913.77C926.054 914.317 927.049 915.225 927.655 916.3C928.26 917.374 928.428 918.531 928.122 919.524C927.817 920.516 927.062 921.266 926.019 921.614C924.976 921.962 923.727 921.879 922.537 921.385C914.828 917.982 907.391 913.8 900.394 908.93ZM870.21 880.387C869.689 880.024 869.226 879.588 868.843 879.103C861.862 870.207 856.225 860.661 852.135 850.811C851.875 850.242 851.734 849.656 851.72 849.089C851.707 848.521 851.821 847.984 852.056 847.509C852.292 847.035 852.643 846.632 853.089 846.327C853.536 846.021 854.067 845.817 854.653 845.729C855.239 845.641 855.866 845.67 856.497 845.814C857.128 845.958 857.751 846.214 858.326 846.567C858.902 846.92 859.418 847.362 859.846 847.867C860.274 848.373 860.603 848.93 860.814 849.507C864.552 858.467 869.69 867.15 876.042 875.245C876.743 876.14 877.129 877.164 877.135 878.141C877.14 879.118 876.765 879.986 876.074 880.595C875.382 881.205 874.418 881.518 873.347 881.48C872.277 881.441 871.167 881.055 870.21 880.387ZM952.285 929.135C951.622 928.675 951.056 928.097 950.635 927.45C950.213 926.803 949.948 926.107 949.863 925.419C949.794 924.858 949.845 924.315 950.015 923.821C950.184 923.328 950.469 922.894 950.852 922.544C951.236 922.193 951.71 921.934 952.248 921.78C952.787 921.627 953.378 921.582 953.99 921.649C963.795 922.689 973.364 922.322 982.354 920.56C982.915 920.453 983.52 920.455 984.134 920.568C984.749 920.681 985.361 920.902 985.936 921.218C986.51 921.534 987.036 921.939 987.483 922.41C987.931 922.882 988.29 923.41 988.542 923.964C988.794 924.519 988.932 925.089 988.95 925.643C988.968 926.196 988.865 926.722 988.646 927.19C988.428 927.658 988.098 928.06 987.676 928.371C987.254 928.683 986.748 928.898 986.187 929.006C976.312 930.936 965.801 931.334 955.032 930.187C954.062 930.088 953.08 929.706 952.23 929.097L952.285 929.135ZM848.111 825.111C847.374 824.6 846.757 823.943 846.326 823.21C845.894 822.477 845.663 821.694 845.657 820.943C845.565 812.328 847.286 804.153 850.729 796.849C851.235 795.771 851.788 794.711 852.349 793.671C852.854 792.758 853.79 792.157 854.953 792C856.115 791.843 857.407 792.142 858.546 792.833C859.685 793.523 860.576 794.548 861.024 795.681C861.472 796.815 861.44 797.965 860.936 798.878C860.415 799.802 859.929 800.735 859.485 801.696C856.444 808.09 854.917 815.252 854.983 822.805C854.989 823.356 854.873 823.878 854.643 824.34C854.413 824.802 854.073 825.195 853.642 825.497C853.21 825.799 852.697 826.004 852.131 826.1C851.564 826.197 850.956 826.182 850.341 826.058C849.544 825.899 848.757 825.56 848.056 825.073L848.111 825.111ZM1008.24 918.815C1007.72 918.446 1007.26 918.004 1006.87 917.512C1006.48 917.005 1006.18 916.454 1006 915.889C1005.82 915.325 1005.76 914.758 1005.82 914.222C1005.88 913.687 1006.06 913.192 1006.35 912.766C1006.64 912.341 1007.03 911.993 1007.51 911.742C1015.2 907.664 1022.11 902.629 1028.1 896.743C1028.46 896.353 1028.92 896.054 1029.46 895.864C1029.99 895.674 1030.58 895.597 1031.21 895.636C1031.83 895.676 1032.47 895.833 1033.08 896.096C1033.69 896.36 1034.27 896.725 1034.77 897.17C1035.28 897.615 1035.7 898.13 1036.02 898.685C1036.33 899.24 1036.53 899.823 1036.61 900.4C1036.68 900.976 1036.63 901.533 1036.46 902.038C1036.28 902.544 1035.98 902.986 1035.58 903.339C1029.17 909.676 1021.75 915.095 1013.5 919.482C1012.76 919.871 1011.86 920.012 1010.91 919.886C1009.97 919.76 1009.02 919.373 1008.19 918.777L1008.24 918.815ZM385.628 448.656C385.085 448.285 384.603 447.834 384.21 447.329C383.817 446.823 383.522 446.273 383.34 445.709C382.973 444.571 383.093 443.448 383.672 442.587C383.959 442.161 384.351 441.812 384.824 441.56C385.297 441.308 385.843 441.158 386.43 441.119C387.617 441.04 388.9 441.416 389.999 442.164C398.683 447.963 408.041 453.817 417.811 459.545C418.961 460.22 419.871 461.236 420.341 462.368C420.811 463.5 420.802 464.657 420.317 465.584C419.832 466.51 418.91 467.131 417.755 467.309C416.599 467.487 415.304 467.208 414.154 466.533C404.163 460.683 394.592 454.697 385.702 448.755L385.628 448.656ZM358.744 429.237L358.442 429.027C349.572 422.096 341.039 414.78 332.885 407.115C332.389 406.668 331.975 406.154 331.667 405.601C331.36 405.048 331.165 404.469 331.094 403.898C331.023 403.326 331.078 402.774 331.255 402.273C331.432 401.773 331.728 401.335 332.125 400.985C332.522 400.635 333.013 400.38 333.567 400.236C334.121 400.091 334.729 400.06 335.353 400.144C335.977 400.228 336.605 400.425 337.201 400.725C337.796 401.024 338.346 401.418 338.819 401.885C346.688 409.282 354.926 416.34 363.491 423.023C364.562 423.811 365.338 424.895 365.649 426.036C365.96 427.178 365.781 428.283 365.151 429.108C364.52 429.933 363.49 430.412 362.287 430.438C361.084 430.464 359.807 430.036 358.737 429.247L358.744 429.237ZM60.1266 217.678C59.0353 216.92 58.2239 215.854 57.871 214.715C57.5181 213.576 57.6526 212.458 58.2449 211.606C58.8372 210.754 59.8387 210.238 61.0292 210.172C62.2197 210.106 63.5016 210.495 64.5929 211.254C73.6181 217.528 82.8647 223.717 91.9976 229.748C93.1067 230.482 93.9481 231.532 94.3367 232.669C94.7253 233.806 94.6292 234.936 94.0697 235.811C93.5101 236.686 92.533 237.233 91.3531 237.333C90.1732 237.433 88.8872 237.078 87.7781 236.345C78.5766 230.266 69.2839 223.997 60.1678 217.707L60.1266 217.678ZM32.9769 198.583L32.8947 198.525C23.8977 192.065 14.8504 185.442 6.01368 178.838C5.48652 178.444 5.02701 177.973 4.6615 177.453C4.296 176.934 4.03162 176.376 3.88341 175.81C3.73521 175.245 3.70624 174.683 3.79791 174.158C3.88957 173.633 4.10012 173.154 4.4177 172.749C4.73528 172.344 5.15354 172.021 5.64869 171.798C6.14384 171.575 6.70616 171.456 7.30348 171.449C7.90081 171.442 8.52146 171.546 9.13003 171.756C9.73861 171.965 10.3232 172.276 10.8504 172.671C19.6186 179.227 28.5835 185.792 37.5331 192.204C38.0705 192.584 38.5438 193.043 38.926 193.554C39.3083 194.065 39.5918 194.618 39.7606 195.182C39.9295 195.746 39.9803 196.31 39.91 196.842C39.8397 197.374 39.6499 197.863 39.3512 198.281C39.0525 198.699 38.6509 199.038 38.1693 199.279C37.6877 199.52 37.1355 199.658 36.5443 199.685C35.9531 199.712 35.3345 199.628 34.7236 199.437C34.1128 199.246 33.5218 198.952 32.9844 198.572L32.9769 198.583ZM442.698 482.277C441.56 481.585 440.67 480.56 440.224 479.426C439.778 478.292 439.812 477.143 440.319 476.232C440.826 475.321 441.764 474.721 442.927 474.566C444.089 474.411 445.382 474.713 446.52 475.404C451.536 478.05 456.791 480.734 462.089 483.385C466.613 485.656 471.167 487.885 475.736 490.092C476.325 490.376 476.872 490.753 477.347 491.203C477.821 491.652 478.214 492.164 478.504 492.71C478.793 493.256 478.972 493.825 479.032 494.385C479.091 494.945 479.029 495.485 478.85 495.973C478.671 496.462 478.377 496.89 477.987 497.233C477.596 497.575 477.115 497.826 476.573 497.971C476.03 498.116 475.436 498.152 474.824 498.077C474.211 498.001 473.593 497.816 473.005 497.533C468.429 495.336 463.697 492.984 459.138 490.704C453.763 488.016 448.454 485.294 443.34 482.612C443.102 482.5 442.87 482.375 442.643 482.239L442.698 482.277ZM871.916 780.447C871.277 780.005 870.727 779.452 870.309 778.833C869.892 778.213 869.618 777.545 869.51 776.88C869.402 776.214 869.463 775.571 869.687 775C869.912 774.429 870.294 773.947 870.804 773.591C878.443 768.344 887.169 764.37 896.701 761.797C897.775 761.614 898.981 761.832 900.082 762.409C901.183 762.985 902.1 763.878 902.654 764.913C903.208 765.948 903.357 767.05 903.075 768.003C902.792 768.956 902.097 769.692 901.125 770.066C892.389 772.404 884.387 776.026 877.379 780.814C876.671 781.304 875.753 781.529 874.759 781.456C873.766 781.383 872.75 781.016 871.861 780.409L871.916 780.447ZM115.506 254.286C114.399 253.55 113.561 252.498 113.177 251.361C112.792 250.224 112.892 249.095 113.456 248.223C114.019 247.351 114.999 246.806 116.18 246.71C117.361 246.614 118.646 246.973 119.753 247.709C129.047 253.598 138.495 259.467 147.825 265.127C148.96 265.815 149.849 266.836 150.296 267.966C150.743 269.096 150.711 270.242 150.209 271.151C149.705 272.061 148.772 272.66 147.614 272.817C146.456 272.974 145.167 272.676 144.032 271.988C134.634 266.28 125.086 260.406 115.733 254.428L115.506 254.286ZM172.194 288.691C171.072 287.976 170.21 286.937 169.795 285.801C169.381 284.666 169.449 283.527 169.985 282.636C170.521 281.745 171.48 281.174 172.653 281.049C173.825 280.924 175.114 281.256 176.236 281.97C182.771 285.767 189.42 289.547 195.973 293.261L204.907 298.233C206.077 298.879 207.02 299.877 207.529 301.007C208.039 302.138 208.073 303.307 207.625 304.259C207.176 305.211 206.281 305.867 205.137 306.083C203.993 306.299 202.694 306.057 201.524 305.411C198.498 303.736 195.485 302.07 192.487 300.383C185.886 296.652 179.189 292.823 172.605 289.008L172.194 288.691ZM311.04 383.988C310.569 383.669 310.146 383.288 309.787 382.863C306.182 378.625 302.708 374.257 299.466 369.907C296.224 365.557 293.089 360.994 290.181 356.368C289.847 355.837 289.618 355.273 289.506 354.708C289.395 354.144 289.404 353.591 289.532 353.08C289.661 352.569 289.906 352.11 290.255 351.73C290.604 351.351 291.049 351.057 291.565 350.866C292.081 350.675 292.658 350.591 293.263 350.618C293.867 350.645 294.488 350.783 295.089 351.024C295.691 351.265 296.261 351.605 296.767 352.023C297.274 352.441 297.706 352.93 298.041 353.462C300.782 357.829 303.708 362.166 306.812 366.246C309.917 370.326 313.233 374.569 316.662 378.621C317.418 379.511 317.857 380.552 317.901 381.557C317.945 382.561 317.591 383.464 316.902 384.103C316.213 384.741 315.235 385.073 314.143 385.04C313.051 385.007 311.916 384.61 310.944 383.921L311.04 383.988ZM501.989 510.947C500.976 510.247 500.2 509.281 499.806 508.233C499.413 507.184 499.431 506.125 499.857 505.26C500.283 504.394 501.087 503.781 502.116 503.537C503.144 503.294 504.326 503.437 505.436 503.94C515.313 508.345 525.39 512.666 535.355 516.798C535.966 517.036 536.547 517.376 537.063 517.797C537.579 518.218 538.019 518.713 538.359 519.252C538.699 519.791 538.931 520.363 539.041 520.935C539.151 521.507 539.138 522.068 539.002 522.584C538.866 523.099 538.609 523.56 538.247 523.938C537.886 524.317 537.427 524.606 536.897 524.788C536.366 524.971 535.776 525.042 535.16 525C534.544 524.957 533.915 524.801 533.31 524.54C523.204 520.406 513.002 516.029 503 511.57C502.624 511.389 502.266 511.166 501.934 510.909L501.989 510.947ZM230.208 320.427C229.18 319.714 228.398 318.727 228.014 317.66C227.629 316.592 227.672 315.521 228.132 314.657C228.593 313.793 229.438 313.199 230.502 312.991C231.566 312.782 232.772 312.975 233.883 313.531C244.294 318.719 253.943 323.188 263.392 327.184C264.6 327.697 265.643 328.594 266.292 329.678C266.941 330.762 267.142 331.944 266.851 332.963C266.561 333.983 265.802 334.757 264.742 335.115C263.683 335.473 262.409 335.386 261.201 334.872C251.524 330.766 241.652 326.206 231.014 320.907C230.721 320.746 230.438 320.566 230.168 320.367L230.208 320.427ZM1045.24 882.656C1044.2 881.938 1043.41 880.94 1043.03 879.861C1042.65 878.783 1042.7 877.704 1043.18 876.84C1047.25 869.541 1050.23 861.61 1052.06 853.214C1052.32 852.212 1053.03 851.435 1054.04 851.049C1055.05 850.663 1056.28 850.696 1057.47 851.142C1058.67 851.587 1059.73 852.411 1060.43 853.44C1061.14 854.468 1061.43 855.621 1061.26 856.657C1059.32 865.683 1056.12 874.206 1051.75 882.048C1051.24 882.953 1050.31 883.548 1049.15 883.703C1048 883.858 1046.71 883.56 1045.58 882.874L1045.24 882.656ZM562.495 535.791C561.505 535.113 560.737 534.178 560.331 533.159C559.924 532.139 559.906 531.101 560.28 530.234C560.654 529.367 561.394 528.728 562.367 528.434C563.34 528.139 564.481 528.209 565.581 528.63C575.656 532.457 585.915 536.078 596.005 539.503C597.235 539.919 598.343 540.741 599.087 541.787C599.831 542.833 600.149 544.017 599.972 545.079C599.794 546.142 599.136 546.995 598.141 547.452C597.146 547.909 595.897 547.931 594.668 547.515C584.453 544.035 574.098 540.347 563.882 536.517C563.381 536.317 562.902 536.048 562.462 535.721L562.495 535.791ZM290.557 345.702C289.603 345.034 288.861 344.128 288.458 343.139C288.055 342.151 288.017 341.142 288.35 340.285C288.684 339.428 289.367 338.778 290.283 338.445C291.2 338.113 292.292 338.119 293.372 338.463C303.411 341.742 313.529 344.408 323.652 346.441C324.86 346.725 326.007 347.412 326.855 348.36C327.703 349.307 328.186 350.441 328.202 351.525C328.218 352.609 327.767 353.559 326.942 354.175C326.118 354.792 324.984 355.029 323.778 354.835C313.216 352.72 302.66 349.941 292.187 346.518C291.598 346.316 291.031 346.019 290.517 345.642L290.557 345.702ZM277.494 330.633C276.556 329.982 275.819 329.1 275.406 328.134C271.314 318.499 268.117 308.738 265.854 298.972C265.59 297.83 265.82 296.742 266.492 295.948C267.164 295.154 268.224 294.718 269.438 294.737C270.653 294.756 271.923 295.227 272.968 296.048C274.013 296.868 274.749 297.971 275.013 299.113C277.153 308.361 280.179 317.604 284.054 326.728C284.423 327.605 284.507 328.505 284.293 329.304C284.079 330.104 283.578 330.763 282.859 331.191C282.14 331.619 281.238 331.795 280.277 331.695C279.316 331.596 278.344 331.224 277.494 330.633ZM623.876 556.654C622.915 555.994 622.163 555.093 621.748 554.105C621.334 553.117 621.284 552.105 621.607 551.242C621.93 550.379 622.605 549.72 623.517 549.378C624.428 549.036 625.519 549.032 626.601 549.368C630.393 550.527 634.193 551.676 637.987 552.773C644.19 554.591 650.513 556.382 657.318 558.27C657.946 558.423 658.562 558.686 659.13 559.044C659.698 559.402 660.206 559.847 660.625 560.353C661.044 560.858 661.365 561.415 661.568 561.989C661.771 562.562 661.853 563.142 661.809 563.692C661.764 564.243 661.594 564.754 661.309 565.194C661.024 565.634 660.629 565.995 660.149 566.256C659.668 566.516 659.111 566.67 658.511 566.708C657.911 566.747 657.28 566.67 656.656 566.481C649.807 564.626 643.373 562.79 637.114 560.965C633.263 559.833 629.423 558.684 625.596 557.516C624.973 557.313 624.374 556.999 623.836 556.595L623.876 556.654ZM925.529 765.192C924.713 764.612 924.052 763.855 923.632 763.019C923.212 762.183 923.053 761.306 923.174 760.501C923.295 759.697 923.692 759.001 924.313 758.505C924.934 758.009 925.75 757.734 926.657 757.717C932.804 757.611 939.056 757.928 945.364 758.667C949.618 759.162 953.975 759.888 958.387 760.683C959.002 760.799 959.615 761.022 960.19 761.34C960.765 761.659 961.291 762.067 961.738 762.54C962.184 763.013 962.542 763.543 962.793 764.099C963.043 764.655 963.179 765.226 963.195 765.781C963.21 766.335 963.104 766.861 962.883 767.329C962.662 767.797 962.329 768.197 961.905 768.508C961.48 768.818 960.972 769.032 960.409 769.138C959.846 769.243 959.239 769.238 958.623 769.123C954.48 768.323 950.344 767.688 946.357 767.219C940.509 766.516 934.71 766.201 929.007 766.276C927.82 766.31 926.557 765.9 925.489 765.133L925.529 765.192ZM1431.54 1110.6C1431.07 1110.28 1430.65 1109.9 1430.3 1109.47C1423.36 1101.28 1416.2 1093.04 1409.02 1085C1408.15 1084.02 1407.67 1082.85 1407.68 1081.74C1407.69 1080.64 1408.19 1079.68 1409.08 1079.09C1409.97 1078.5 1411.16 1078.31 1412.41 1078.59C1413.65 1078.86 1414.84 1079.56 1415.71 1080.53C1422.96 1088.65 1430.19 1096.95 1437.18 1105.24C1437.94 1106.13 1438.38 1107.18 1438.42 1108.18C1438.46 1109.19 1438.11 1110.09 1437.42 1110.73C1436.73 1111.36 1435.75 1111.7 1434.66 1111.66C1433.57 1111.63 1432.44 1111.23 1431.46 1110.54L1431.54 1110.6ZM352.278 357.589C351.428 357.001 350.74 356.221 350.309 355.356C349.878 354.492 349.726 353.586 349.873 352.763C350.02 351.939 350.459 351.238 351.129 350.756C351.8 350.274 352.669 350.035 353.619 350.071C359.822 350.3 365.946 350.171 371.954 349.683C375.433 349.395 378.848 348.927 382.185 348.282C382.746 348.174 383.351 348.177 383.966 348.29C384.581 348.403 385.193 348.624 385.767 348.94C386.342 349.256 386.868 349.661 387.315 350.132C387.762 350.603 388.122 351.131 388.373 351.686C388.625 352.241 388.764 352.811 388.782 353.364C388.8 353.918 388.696 354.444 388.478 354.912C388.259 355.38 387.929 355.781 387.507 356.093C387.085 356.404 386.579 356.62 386.018 356.728C382.36 357.413 378.62 357.908 374.813 358.214C368.431 358.737 361.926 358.878 355.336 358.635C354.278 358.568 353.192 358.167 352.26 357.498L352.278 357.589ZM685.676 573.726C684.738 573.079 684 572.201 683.583 571.237C683.166 570.273 683.095 569.281 683.383 568.425C683.67 567.568 684.298 566.898 685.164 566.525C686.029 566.152 687.08 566.098 688.143 566.372C697.638 568.79 707.135 571.156 716.634 573.471L719.13 574.095C720.372 574.404 721.541 575.137 722.38 576.133C723.22 577.129 723.661 578.307 723.606 579.406C723.551 580.505 723.006 581.437 722.089 581.996C721.172 582.554 719.959 582.694 718.718 582.385L716.221 581.761C706.72 579.392 697.209 577.016 687.69 574.633C686.985 574.467 686.295 574.157 685.676 573.726ZM1388.05 1061.9C1387.69 1061.64 1387.35 1061.35 1387.04 1061.04C1379.66 1053.17 1372.01 1045.26 1364.37 1037.55C1363.91 1037.09 1363.54 1036.57 1363.27 1036.02C1363 1035.47 1362.85 1034.9 1362.81 1034.34C1362.78 1033.78 1362.87 1033.25 1363.07 1032.77C1363.27 1032.3 1363.59 1031.89 1364 1031.56C1364.41 1031.24 1364.9 1031.01 1365.46 1030.89C1366.01 1030.76 1366.61 1030.75 1367.23 1030.85C1367.84 1030.95 1368.45 1031.15 1369.03 1031.46C1369.61 1031.76 1370.15 1032.15 1370.61 1032.62C1378.33 1040.41 1386.07 1048.42 1393.51 1056.33C1394.32 1057.21 1394.82 1058.25 1394.92 1059.28C1395.01 1060.3 1394.7 1061.24 1394.04 1061.92C1393.37 1062.6 1392.4 1062.97 1391.3 1062.96C1390.2 1062.96 1389.05 1062.58 1388.05 1061.9ZM1056.26 830.959C1055.56 830.47 1054.97 829.849 1054.54 829.156C1054.11 828.462 1053.87 827.719 1053.82 826.996C1053.37 819.717 1052.26 812.344 1050.49 804.954L1047.72 803.501C1047.13 802.773 1046.7 801.973 1046.44 801.153C1046.19 800.333 1046.11 799.512 1046.23 798.743C1046.34 797.974 1046.64 797.275 1047.11 796.69C1047.58 796.105 1048.2 795.648 1048.93 795.35C1049.67 795.051 1050.51 794.916 1051.38 794.955C1052.26 794.994 1053.17 795.205 1054.04 795.574C1054.9 795.944 1055.72 796.464 1056.43 797.1C1057.14 797.737 1057.72 798.475 1058.15 799.268C1058.23 799.593 1058.33 799.917 1058.42 800.252L1059.68 800.923C1066.48 804.551 1073.32 808.29 1080.06 812.055C1081.18 812.716 1082.07 813.702 1082.54 814.804C1083.01 815.906 1083.03 817.037 1082.59 817.958C1082.14 818.879 1081.28 819.518 1080.17 819.739C1079.07 819.959 1077.81 819.745 1076.66 819.141C1071.41 816.22 1066.11 813.302 1060.81 810.445C1062.02 816.503 1062.81 822.536 1063.17 828.506C1063.22 829.26 1063.04 829.964 1062.65 830.545C1062.27 831.127 1061.7 831.566 1060.99 831.816C1060.29 832.066 1059.48 832.118 1058.65 831.967C1057.81 831.817 1056.99 831.469 1056.26 830.959ZM987.075 776.513C986.114 775.836 985.37 774.918 984.974 773.919C984.577 772.92 984.554 771.903 984.906 771.047C985.259 770.191 985.966 769.55 986.903 769.235C987.841 768.921 988.95 768.953 990.035 769.327C1000.44 772.921 1010.75 777.046 1020.9 781.68C1021.52 781.929 1022.11 782.283 1022.63 782.721C1023.15 783.159 1023.58 783.672 1023.92 784.227C1024.25 784.782 1024.46 785.369 1024.55 785.951C1024.64 786.534 1024.6 787.099 1024.44 787.614C1024.27 788.128 1023.98 788.581 1023.59 788.943C1023.19 789.306 1022.7 789.571 1022.14 789.723C1021.58 789.875 1020.96 789.911 1020.33 789.827C1019.69 789.744 1019.05 789.543 1018.45 789.238C1008.65 784.775 998.707 780.799 988.663 777.331C988.096 777.085 987.56 776.756 987.08 776.358L987.075 776.513ZM264.558 274.088C263.817 273.554 263.206 272.873 262.79 272.12C262.375 271.366 262.17 270.568 262.2 269.812C262.024 260.209 263.055 250.872 265.274 241.978C265.402 241.466 265.648 241.007 265.997 240.627C266.346 240.247 266.791 239.953 267.307 239.762C267.824 239.57 268.401 239.486 269.006 239.513C269.611 239.54 270.233 239.678 270.834 239.919C271.436 240.16 272.007 240.5 272.514 240.918C273.021 241.337 273.454 241.826 273.789 242.358C274.123 242.89 274.353 243.455 274.465 244.019C274.576 244.584 274.568 245.138 274.439 245.649C272.381 253.967 271.437 262.699 271.624 271.678C271.636 272.411 271.435 273.089 271.039 273.645C270.644 274.201 270.068 274.616 269.37 274.848C268.672 275.081 267.875 275.122 267.059 274.969C266.243 274.816 265.435 274.474 264.717 273.976L264.558 274.088ZM1341.8 1015.32C1341.52 1015.13 1341.26 1014.92 1341.02 1014.69C1333.16 1007.17 1325.05 999.612 1317.04 992.294C1316.12 991.4 1315.55 990.288 1315.43 989.19C1315.31 988.092 1315.66 987.093 1316.4 986.4C1317.15 985.708 1318.23 985.375 1319.42 985.472C1320.61 985.568 1321.83 986.087 1322.81 986.919C1330.96 994.333 1339.12 1001.94 1347.04 1009.53C1347.93 1010.39 1348.51 1011.44 1348.67 1012.51C1348.83 1013.57 1348.56 1014.55 1347.91 1015.28C1347.26 1016 1346.28 1016.4 1345.15 1016.41C1344.02 1016.42 1342.83 1016.04 1341.81 1015.33L1341.8 1015.32ZM1292.96 970.887C1292.76 970.767 1292.58 970.636 1292.4 970.496C1284.15 963.365 1275.68 956.237 1267.21 949.273C1266.18 948.428 1265.47 947.309 1265.24 946.164C1265.01 945.018 1265.27 943.939 1265.98 943.164C1266.68 942.389 1267.76 941.982 1268.99 942.032C1270.22 942.082 1271.49 942.584 1272.52 943.43C1281.07 950.44 1289.64 957.666 1297.96 964.865C1298.48 965.268 1298.93 965.746 1299.29 966.271C1299.64 966.796 1299.89 967.358 1300.03 967.924C1300.16 968.49 1300.18 969.049 1300.08 969.57C1299.97 970.091 1299.75 970.564 1299.42 970.961C1299.09 971.358 1298.66 971.671 1298.16 971.883C1297.65 972.095 1297.08 972.202 1296.48 972.197C1295.88 972.192 1295.26 972.076 1294.65 971.855C1294.05 971.633 1293.47 971.312 1292.94 970.908L1292.96 970.887ZM747.649 589.377C746.722 588.727 745.996 587.852 745.587 586.894C745.179 585.935 745.113 584.951 745.4 584.101C745.686 583.251 746.309 582.585 747.167 582.211C748.024 581.838 749.066 581.779 750.122 582.044C761.673 585.007 771.84 587.707 781.18 590.309C781.872 590.372 782.575 590.576 783.238 590.908C783.902 591.239 784.509 591.689 785.015 592.224C785.521 592.759 785.914 593.367 786.165 594.001C786.415 594.636 786.517 595.283 786.463 595.893C786.409 596.504 786.2 597.063 785.851 597.531C785.503 597.998 785.024 598.362 784.45 598.595C783.875 598.829 783.22 598.925 782.531 598.879C781.842 598.833 781.137 598.644 780.468 598.327C771.19 595.753 761.114 593.068 749.579 590.084C748.908 589.916 748.252 589.622 747.655 589.223L747.649 589.377ZM1104.78 835.372C1104.23 835.016 1103.73 834.576 1103.33 834.079C1102.92 833.581 1102.6 833.036 1102.4 832.473C1102 831.337 1102.07 830.201 1102.62 829.315C1103.16 828.429 1104.12 827.865 1105.3 827.748C1106.47 827.631 1107.76 827.97 1108.88 828.69C1118.36 834.311 1127.93 840.153 1137.32 846.047C1138.45 846.754 1139.32 847.789 1139.74 848.924C1140.17 850.059 1140.11 851.201 1139.58 852.098C1139.05 852.996 1138.1 853.575 1136.93 853.71C1135.76 853.844 1134.47 853.522 1133.35 852.815C1124.06 846.977 1114.59 841.202 1105.19 835.638L1104.78 835.372ZM1241.75 928.838L1241.46 928.638C1232.82 921.9 1223.96 915.174 1215.16 908.671C1214.09 907.88 1213.32 906.794 1213.01 905.653C1212.7 904.511 1212.89 903.408 1213.52 902.585C1214.16 901.762 1215.19 901.287 1216.39 901.265C1217.6 901.242 1218.87 901.674 1219.94 902.466C1228.84 909.046 1237.76 915.819 1246.49 922.635C1247.56 923.423 1248.33 924.507 1248.65 925.648C1248.96 926.79 1248.78 927.894 1248.15 928.72C1247.52 929.545 1246.49 930.024 1245.28 930.05C1244.08 930.076 1242.8 929.648 1241.73 928.859L1241.75 928.838ZM1160.98 870.659C1160.44 870.289 1159.95 869.838 1159.56 869.333C1159.17 868.828 1158.87 868.277 1158.69 867.714C1158.51 867.151 1158.44 866.585 1158.5 866.049C1158.55 865.513 1158.73 865.017 1159.01 864.59C1159.3 864.163 1159.69 863.813 1160.16 863.561C1160.64 863.308 1161.18 863.157 1161.77 863.117C1162.36 863.077 1162.97 863.148 1163.58 863.326C1164.2 863.505 1164.79 863.787 1165.34 864.157C1174.55 870.277 1183.79 876.59 1192.93 882.992C1194.02 883.75 1194.84 884.816 1195.19 885.955C1195.54 887.094 1195.41 888.212 1194.81 889.064C1194.22 889.916 1193.22 890.432 1192.03 890.498C1190.84 890.564 1189.56 890.175 1188.47 889.416C1179.46 883.152 1170.35 876.821 1161.19 870.801L1160.98 870.659ZM408.227 346.817C407.68 346.439 407.197 345.979 406.807 345.465C406.421 344.955 406.133 344.402 405.96 343.837C405.787 343.272 405.732 342.707 405.799 342.174C405.866 341.64 406.052 341.149 406.348 340.728C406.644 340.307 407.044 339.965 407.524 339.721C415.307 335.76 422.32 330.83 428.414 325.035C429.182 324.319 430.307 323.987 431.542 324.112C432.778 324.236 434.022 324.808 435.002 325.699C435.982 326.591 436.617 327.731 436.767 328.867C436.917 330.004 436.571 331.044 435.804 331.76C429.244 337.97 421.713 343.263 413.366 347.531C412.618 347.859 411.726 347.948 410.803 347.786C409.879 347.625 408.966 347.221 408.178 346.624L408.227 346.817ZM1040.7 774.435C1039.83 773.827 1039.13 773.019 1038.71 772.126C1034.38 763.064 1029.31 754.179 1023.54 745.561C1023.19 745.035 1022.95 744.472 1022.82 743.907C1022.69 743.342 1022.68 742.784 1022.79 742.265C1022.9 741.747 1023.13 741.278 1023.46 740.885C1023.79 740.492 1024.22 740.184 1024.73 739.977C1025.24 739.769 1025.81 739.668 1026.41 739.678C1027.01 739.688 1027.63 739.809 1028.24 740.034C1028.84 740.26 1029.42 740.585 1029.94 740.992C1030.45 741.399 1030.9 741.879 1031.25 742.405C1037.3 751.462 1042.62 760.798 1047.16 770.319C1047.59 771.205 1047.71 772.129 1047.53 772.958C1047.35 773.787 1046.87 774.48 1046.15 774.936C1045.43 775.392 1044.52 775.59 1043.54 775.5C1042.56 775.41 1041.57 775.037 1040.7 774.435ZM809.515 606.734C808.552 606.071 807.799 605.166 807.388 604.174C806.976 603.183 806.931 602.169 807.26 601.306C807.589 600.444 808.272 599.788 809.19 599.452C810.108 599.116 811.205 599.121 812.289 599.466L815.189 600.386C824.808 603.436 834.245 606.629 843.196 609.849C844.401 610.307 845.467 611.151 846.166 612.199C846.865 613.248 847.14 614.416 846.933 615.454C846.726 616.492 846.053 617.316 845.058 617.749C844.064 618.183 842.827 618.191 841.615 617.772C832.769 614.576 823.484 611.426 814.019 608.42L811.16 607.528C810.559 607.294 809.989 606.962 809.48 606.55L809.515 606.734ZM277.745 223.218C276.674 222.474 275.872 221.434 275.508 220.318C275.145 219.203 275.248 218.099 275.796 217.241C276.293 216.527 276.789 215.813 277.285 215.1C279.559 211.833 282.085 208.746 284.85 205.857C287.783 202.83 291.045 200.094 294.605 197.677C295.492 197.124 296.665 196.968 297.877 197.241C299.089 197.514 300.246 198.195 301.103 199.141C301.961 200.087 302.453 201.225 302.476 202.314C302.499 203.403 302.051 204.358 301.226 204.98C298.053 207.165 295.142 209.63 292.522 212.35C289.976 215.007 287.65 217.845 285.556 220.849C285.087 221.524 284.626 222.188 284.164 222.852C283.885 223.284 283.501 223.64 283.034 223.899C282.566 224.159 282.025 224.317 281.44 224.365C280.855 224.413 280.238 224.349 279.625 224.178C279.012 224.006 278.414 223.73 277.866 223.365L277.745 223.218ZM870.597 628.993C869.597 628.299 868.829 627.344 868.435 626.307C868.042 625.27 868.05 624.222 868.458 623.358C868.867 622.494 869.648 621.874 870.655 621.613C871.663 621.353 872.828 621.469 873.933 621.941C884.385 626.396 894.539 631.104 904.133 635.946C904.737 636.23 905.299 636.612 905.786 637.069C906.274 637.527 906.676 638.051 906.969 638.61C907.263 639.169 907.441 639.751 907.494 640.323C907.546 640.894 907.472 641.443 907.276 641.936C907.079 642.429 906.764 642.856 906.35 643.193C905.936 643.529 905.43 643.767 904.864 643.893C904.298 644.019 903.682 644.03 903.054 643.925C902.426 643.821 901.799 643.603 901.209 643.284C891.857 638.562 881.931 633.965 871.742 629.63C871.321 629.399 870.923 629.128 870.554 628.82L870.597 628.993ZM1005.6 721.589C1005.17 721.287 1004.78 720.934 1004.44 720.542C997.479 712.524 989.986 704.862 982.023 697.621C981.508 697.185 981.074 696.675 980.745 696.123C980.416 695.57 980.2 694.987 980.11 694.408C980.02 693.829 980.058 693.267 980.221 692.755C980.384 692.242 980.669 691.791 981.059 691.427C981.45 691.064 981.936 690.796 982.491 690.64C983.045 690.484 983.656 690.443 984.285 690.52C984.915 690.596 985.55 690.789 986.153 691.085C986.756 691.382 987.314 691.777 987.794 692.246C996.133 699.814 1003.97 707.828 1011.25 716.221C1012.01 717.105 1012.46 718.143 1012.52 719.148C1012.57 720.154 1012.23 721.062 1011.55 721.709C1010.88 722.356 1009.91 722.7 1008.82 722.68C1007.73 722.66 1006.6 722.277 1005.62 721.599L1005.6 721.589ZM929.38 658.834C928.265 658.109 927.413 657.064 927.013 655.927C926.612 654.791 926.695 653.657 927.244 652.775C927.792 651.892 928.762 651.334 929.938 651.222C931.114 651.111 932.401 651.455 933.516 652.18C940.535 656.423 947.391 660.872 953.893 665.391C956.471 667.184 959.064 668.986 961.548 670.856C962.619 671.643 963.398 672.726 963.711 673.867C964.024 675.008 963.846 676.114 963.218 676.941C962.589 677.767 961.561 678.248 960.359 678.276C959.156 678.304 957.879 677.877 956.807 677.09C954.369 675.3 951.874 673.534 949.372 671.778C943.09 667.411 936.474 663.114 929.737 659.05L929.38 658.834ZM445.625 311.047C444.595 310.336 443.809 309.349 443.422 308.28C443.035 307.212 443.076 306.139 443.535 305.274C447.487 298.006 449.997 289.933 450.973 281.347C451.088 280.264 451.691 279.371 452.647 278.862C453.603 278.353 454.836 278.271 456.073 278.634C457.31 278.997 458.45 279.775 459.243 280.797C460.036 281.818 460.416 283.001 460.301 284.083C459.232 293.517 456.493 302.393 452.182 310.395C451.94 310.851 451.59 311.236 451.15 311.529C450.71 311.822 450.189 312.017 449.618 312.102C449.047 312.188 448.436 312.162 447.82 312.026C447.204 311.891 446.596 311.648 446.03 311.313L445.625 311.047ZM320.711 193.573C319.959 193.052 319.332 192.379 318.899 191.628C318.466 190.877 318.244 190.077 318.256 189.315C318.268 188.552 318.515 187.856 318.968 187.303C319.422 186.749 320.066 186.359 320.829 186.175C330.458 183.843 340.72 182.872 351.317 183.29C352.537 183.336 353.8 183.833 354.829 184.671C355.858 185.51 356.568 186.622 356.803 187.763C357.038 188.904 356.779 189.979 356.082 190.754C355.386 191.528 354.309 191.937 353.089 191.892C343.344 191.448 333.897 192.28 325.024 194.364C324.348 194.53 323.598 194.529 322.839 194.361C322.081 194.194 321.336 193.864 320.668 193.401L320.711 193.573ZM450.453 257.892C449.376 257.138 448.574 256.084 448.22 254.958C446.723 250.282 444.701 245.655 442.19 241.157C439.942 237.119 437.282 233.215 434.255 229.51C433.432 228.504 433.013 227.325 433.09 226.232C433.167 225.139 433.734 224.221 434.665 223.68C435.597 223.14 436.817 223.021 438.057 223.35C439.297 223.679 440.456 224.429 441.279 225.435C444.732 229.672 447.766 234.134 450.333 238.749C453.181 243.846 455.471 249.091 457.159 254.39C457.432 255.243 457.433 256.094 457.162 256.833C456.892 257.573 456.362 258.168 455.641 258.543C454.92 258.918 454.04 259.055 453.114 258.937C452.187 258.82 451.256 258.452 450.439 257.882L450.453 257.892ZM380.871 195.941C379.922 195.283 379.179 194.388 378.768 193.409C378.358 192.429 378.305 191.426 378.619 190.567C378.933 189.709 379.595 189.049 380.492 188.7C381.389 188.35 382.466 188.332 383.54 188.649C394.392 191.763 405.007 196.458 414.941 202.536C415.501 202.883 416.005 203.315 416.424 203.808C416.843 204.3 417.169 204.842 417.383 205.404C417.597 205.966 417.695 206.536 417.671 207.082C417.648 207.627 417.504 208.138 417.246 208.585C416.989 209.032 416.624 209.406 416.172 209.686C415.72 209.966 415.19 210.146 414.612 210.217C414.035 210.287 413.42 210.246 412.805 210.096C412.189 209.946 411.584 209.69 411.024 209.342C402.06 203.838 392.476 199.587 382.677 196.768C382.014 196.544 381.379 196.2 380.815 195.759L380.871 195.941Z" fill="#FF0401" fill-opacity="0.3"/>
<path d="M682.955 628.336C684.911 628.717 686.923 628.552 688.79 627.857C690.658 627.163 692.315 625.963 693.594 624.38L720.167 591.513C721.074 590.391 722.246 589.539 723.567 589.04C724.888 588.541 726.313 588.412 727.701 588.665L743.213 591.515C747.079 592.228 751.042 592.015 754.806 590.891L757.248 590.167C757.693 590.043 758.094 589.789 758.406 589.434C758.717 589.079 758.924 588.638 759.005 588.162C759.085 587.686 759.035 587.195 758.859 586.746C758.684 586.297 758.391 585.909 758.015 585.627L755.968 584.076C752.811 581.612 749.17 579.925 745.316 579.138L729.855 575.995C728.471 575.709 727.179 575.051 726.107 574.085C725.035 573.12 724.218 571.88 723.739 570.488L709.628 529.741C708.946 527.78 707.787 526.036 706.266 524.685C704.745 523.334 702.916 522.421 700.96 522.04C706.54 539.658 707.874 560.58 708.199 569.288C708.207 569.564 708.156 569.839 708.05 570.092C707.944 570.344 707.785 570.568 707.585 570.747C707.385 570.926 707.149 571.056 706.894 571.126C706.639 571.197 706.372 571.206 706.113 571.155L705.838 567.573C705.778 566.732 705.417 565.943 704.826 565.366C704.235 564.788 703.46 564.466 702.655 564.462L698.172 564.447C697.567 564.451 696.98 564.66 696.501 565.045C696.006 565.451 695.387 565.658 694.756 565.631L693.126 565.585L694.803 566.242C695.329 566.45 695.782 566.82 696.105 567.303L696.647 568.115L697.56 569.411L694.255 568.742C692.15 568.316 690.004 568.17 687.868 568.309L677.11 568.997L674.953 556.562C674.729 555.269 674.095 554.09 673.154 553.216C672.213 552.343 671.02 551.827 669.769 551.752L665.871 551.522L669.031 569.521L666.039 569.75C665.933 569.756 665.833 569.798 665.754 569.871C665.675 569.944 665.621 570.043 665.602 570.152C665.583 570.261 665.6 570.373 665.65 570.471C665.699 570.57 665.779 570.648 665.875 570.693L668.619 572.003L659.757 587.679L663.513 588.928C664.702 589.325 665.981 589.292 667.144 588.835C668.307 588.377 669.287 587.522 669.926 586.406L676.124 575.568L685.858 580.2C687.815 581.135 689.875 581.803 691.99 582.189L695.29 582.79L694.031 583.672L693.261 584.234C692.797 584.576 692.241 584.753 691.673 584.74L689.865 584.725L691.388 585.274C691.987 585.493 692.497 585.921 692.831 586.487C693.154 587.026 693.634 587.442 694.199 587.671L698.394 589.33C699.146 589.63 699.978 589.621 700.72 589.304C701.462 588.988 702.061 588.387 702.395 587.624L703.773 584.368C704.035 584.414 704.284 584.522 704.502 584.683C704.719 584.844 704.899 585.055 705.028 585.299C705.158 585.543 705.233 585.814 705.247 586.092C705.262 586.37 705.217 586.647 705.114 586.903C702.069 594.836 693.957 613.93 682.955 628.336Z" fill="#4F4F4F" fill-opacity="0.8"/>
</svg>
