<svg width="1440" height="124" viewBox="0 0 1440 124" fill="none" xmlns="http://www.w3.org/2000/svg">
<path d="M62.7794 6.06343C60.8966 6.06545 59.0669 6.59595 57.4742 7.60163C55.8815 8.60732 54.5821 10.0528 53.7066 11.7924L35.5127 47.9068C34.891 49.1388 33.9724 50.1647 32.8474 50.8837C31.7224 51.6027 30.4295 51.99 29.0959 52.0077L14.1914 52.1862C10.476 52.2278 6.8506 53.1663 3.58721 54.9312L1.46907 56.0724C1.0813 56.2725 0.759249 56.5881 0.540462 56.9826C0.321672 57.3771 0.215117 57.8341 0.23328 58.3004C0.251444 58.7667 0.393546 59.2231 0.643022 59.6164C0.892497 60.0096 1.23911 60.3236 1.64238 60.5216L3.83731 61.6121C7.23669 63.3627 10.9337 64.2872 14.6522 64.3168L29.567 64.4266C30.9026 64.4407 32.2254 64.8249 33.4052 65.5416C34.585 66.2583 35.5812 67.2828 36.2959 68.5142L57.272 104.544C58.2844 106.278 59.696 107.717 61.3658 108.716C63.0355 109.715 64.9052 110.241 66.7882 110.24C58.2013 94.5638 52.8996 74.965 50.9059 66.7656C50.8444 66.5046 50.838 66.2346 50.8872 65.9753C50.9364 65.716 51.04 65.474 51.1902 65.2671C51.3404 65.0601 51.5336 64.8934 51.7555 64.7792C51.9774 64.665 52.2225 64.6062 52.4727 64.6071L53.4227 67.9532C53.6419 68.7405 54.13 69.4215 54.7886 69.8594C55.4472 70.2972 56.2275 70.4593 56.9723 70.3129L61.1231 69.4943C61.6824 69.3786 62.1841 69.0708 62.5525 68.6172C62.9322 68.14 63.4638 67.8281 64.0528 67.7372L65.5702 67.4777L63.8907 67.1663C63.3643 67.0664 62.8724 66.7996 62.4803 66.4013L61.8208 65.7317L60.7245 64.672L63.9123 64.6925C65.9424 64.706 67.956 64.4453 69.9048 63.9165L79.7244 61.2658L84.1366 72.6602C84.5956 73.8456 85.4116 74.8462 86.452 75.4997C87.4925 76.1532 88.6963 76.4211 89.8678 76.2598L93.5188 75.7545L87.096 59.2673L89.8197 58.494C89.9163 58.4693 90.001 58.4103 90.0601 58.3266C90.1193 58.2429 90.1494 58.1391 90.1457 58.0323C90.142 57.9255 90.1048 57.8218 90.0399 57.7377C89.9749 57.6537 89.8862 57.5943 89.7879 57.5691L86.9947 56.8369L92.1456 40.3198L88.4277 39.8331C87.2506 39.6773 86.0738 39.9461 85.0868 40.5962C84.0998 41.2463 83.3598 42.2399 82.9859 43.4173L79.3584 54.8492L69.4523 52.2634C67.4607 51.7408 65.4245 51.4895 63.3932 51.5159L60.2234 51.559L61.2163 50.4888L61.8196 49.812C62.1821 49.4019 62.6623 49.1306 63.1906 49.0372L64.8654 48.7159L63.35 48.4778C62.7535 48.3817 62.1985 48.0702 61.7791 47.5957C61.3761 47.1441 60.8511 46.839 60.2834 46.7265L56.0804 45.9319C55.3255 45.7874 54.5584 45.9506 53.9331 46.3887C53.3079 46.8269 52.8708 47.5076 52.7098 48.294L52.0682 51.6379C51.8168 51.6432 51.5654 51.5875 51.3329 51.4751C51.1003 51.3626 50.8928 51.1963 50.7259 50.9888C50.5589 50.7812 50.4369 50.5377 50.3692 50.2768C50.3014 50.0159 50.2896 49.7443 50.3347 49.4825C51.6095 41.3919 55.4025 21.773 62.7794 6.06343Z" fill="#FF0401"/>
<rect x="87.0278" y="40" width="1353" height="36" fill="#FF0401"/>
<path d="M595.27 66H593.219L591.872 62.1816C591.631 61.5046 591.23 60.9512 590.67 60.5215C590.111 60.0918 589.466 59.877 588.737 59.877H585.231V66H583.336V51.6836H589.674C590.781 51.6836 591.686 51.791 592.389 52.0059C593.092 52.2207 593.665 52.6732 594.108 53.3633C594.551 54.0534 594.772 54.8314 594.772 55.6973C594.772 56.6868 594.486 57.5137 593.913 58.1777C593.34 58.8418 592.555 59.2747 591.559 59.4766V59.5156C592.555 59.8346 593.314 60.6973 593.834 62.1035L595.27 66ZM585.231 58.1777H589.459C590.638 58.1777 591.491 57.9922 592.018 57.6211C592.552 57.25 592.819 56.6087 592.819 55.6973C592.819 54.0697 591.797 53.2559 589.752 53.2559H585.231V58.1777ZM603.95 66.2441C602.426 66.2441 601.202 65.7689 600.278 64.8184C599.353 63.8613 598.891 62.5299 598.891 60.8242C598.891 59.1315 599.337 57.8066 600.229 56.8496C601.127 55.8861 602.299 55.4043 603.745 55.4043C605.222 55.4043 606.401 55.8763 607.28 56.8203C608.165 57.7643 608.608 59.099 608.608 60.8242V61.2637H600.805C600.883 62.4616 601.212 63.3503 601.792 63.9297C602.377 64.5091 603.097 64.7988 603.95 64.7988C604.594 64.7988 605.174 64.6361 605.688 64.3105C606.209 63.9785 606.482 63.5098 606.508 62.9043H608.413C608.269 63.972 607.784 64.7956 606.958 65.375C606.137 65.9544 605.135 66.2441 603.95 66.2441ZM606.665 59.8184C606.515 58.8223 606.18 58.0768 605.659 57.582C605.138 57.0872 604.5 56.8398 603.745 56.8398C603.009 56.8398 602.377 57.0872 601.85 57.582C601.323 58.0703 600.987 58.8158 600.844 59.8184H606.665ZM619.241 63.2754V60.9805H617.981C615.312 60.9805 613.977 61.7064 613.977 63.1582C613.977 63.6855 614.172 64.0924 614.563 64.3789C614.954 64.6589 615.481 64.7988 616.145 64.7988C616.75 64.7988 617.336 64.6621 617.903 64.3887C618.469 64.1152 618.915 63.7441 619.241 63.2754ZM619.241 64.9355C618.303 65.8079 617.096 66.2441 615.618 66.2441C614.589 66.2441 613.743 65.9674 613.079 65.4141C612.415 64.8542 612.083 64.1348 612.083 63.2559C612.083 60.834 614.169 59.623 618.342 59.623H619.241C619.241 58.8809 619.202 58.3438 619.124 58.0117C619.045 57.6732 618.827 57.3932 618.469 57.1719C618.111 56.9505 617.542 56.8398 616.76 56.8398C615.12 56.8398 614.273 57.4258 614.221 58.5977H612.385C612.522 56.4688 614.013 55.4043 616.858 55.4043C618.186 55.4043 619.221 55.668 619.963 56.1953C620.706 56.7227 621.077 57.7578 621.077 59.3008V66H619.241V64.9355ZM632.374 63.0215V58.0996C631.579 57.2598 630.671 56.8398 629.649 56.8398C628.861 56.8398 628.23 57.1816 627.754 57.8652C627.286 58.5423 627.051 59.5547 627.051 60.9023C627.051 62.1784 627.273 63.1484 627.715 63.8125C628.165 64.4701 628.783 64.7988 629.571 64.7988C630.599 64.7988 631.534 64.2064 632.374 63.0215ZM632.374 64.7598C631.553 65.7493 630.567 66.2441 629.415 66.2441C628.06 66.2441 627.012 65.7624 626.27 64.7988C625.528 63.8353 625.157 62.5365 625.157 60.9023C625.157 59.2096 625.57 57.8717 626.397 56.8887C627.23 55.8991 628.275 55.4043 629.532 55.4043C630.652 55.4043 631.599 55.7493 632.374 56.4395V51.6836H634.209V66H632.374V64.7598ZM639.53 68.5C640.441 68.5 641.187 67.6667 641.766 66L637.85 55.6387H639.842L642.586 63.7441L645.331 55.6387H647.323L643.407 66C643.029 66.9896 642.707 67.7513 642.44 68.2852C642.18 68.8255 641.834 69.278 641.405 69.6426C640.982 70.0137 640.461 70.1992 639.842 70.1992C639.38 70.1992 638.983 70.1536 638.651 70.0625V68.3633C638.937 68.4544 639.23 68.5 639.53 68.5ZM662.28 66.0195C661.876 66.0977 661.437 66.1367 660.961 66.1367C660.206 66.1367 659.653 66.0033 659.301 65.7363C658.95 65.4629 658.732 65.1146 658.647 64.6914C658.562 64.2682 658.52 63.6921 658.52 62.9629V57.084H657.241V55.6387H658.52V53.0605H660.356V55.6387H662.036V57.084H660.356V63.0605C660.356 63.7702 660.444 64.2227 660.62 64.418C660.802 64.6068 661.049 64.7012 661.362 64.7012C661.681 64.7012 661.987 64.6751 662.28 64.623V66.0195ZM670.022 55.4043C671.5 55.4043 672.678 55.8763 673.557 56.8203C674.443 57.7643 674.885 59.099 674.885 60.8242C674.885 62.543 674.443 63.8776 673.557 64.8281C672.678 65.7721 671.5 66.2441 670.022 66.2441C668.551 66.2441 667.372 65.7721 666.487 64.8281C665.608 63.8776 665.168 62.543 665.168 60.8242C665.168 59.099 665.608 57.7643 666.487 56.8203C667.372 55.8763 668.551 55.4043 670.022 55.4043ZM670.022 64.7988C670.901 64.7988 671.614 64.4668 672.161 63.8027C672.708 63.1322 672.981 62.1393 672.981 60.8242C672.981 59.5026 672.708 58.5098 672.161 57.8457C671.614 57.1751 670.901 56.8398 670.022 56.8398C669.143 56.8398 668.43 57.1751 667.883 57.8457C667.336 58.5098 667.063 59.5026 667.063 60.8242C667.063 62.1393 667.336 63.1322 667.883 63.8027C668.43 64.4668 669.143 64.7988 670.022 64.7988ZM688.426 57.084V66H686.59V57.084H685.067V55.6387H686.59V54.7207C686.59 52.5332 687.557 51.4395 689.491 51.4395C690.083 51.4395 690.542 51.4785 690.868 51.5566V53.1582C690.503 53.0931 690.132 53.0605 689.754 53.0605C689.305 53.0605 688.97 53.1875 688.749 53.4414C688.534 53.6888 688.426 54.1217 688.426 54.7402V55.6387H690.389V57.084H688.426ZM695.68 66H693.834V51.6836H695.68V66ZM700.991 68.5C701.902 68.5 702.648 67.6667 703.227 66L699.311 55.6387H701.303L704.047 63.7441L706.792 55.6387H708.784L704.868 66C704.49 66.9896 704.168 67.7513 703.901 68.2852C703.64 68.8255 703.295 69.278 702.866 69.6426C702.443 70.0137 701.922 70.1992 701.303 70.1992C700.841 70.1992 700.444 70.1536 700.112 70.0625V68.3633C700.398 68.4544 700.691 68.5 700.991 68.5ZM732.696 55.6387L729.581 66H727.823L725.577 58.3828L723.34 66H721.583L718.458 55.6387H720.499L722.403 63.5391L724.737 55.6387H726.417L728.76 63.5391L730.665 55.6387H732.696ZM738.016 56.957C738.934 55.9219 739.966 55.4043 741.112 55.4043C743.449 55.4043 744.618 56.6771 744.618 59.2227V66H742.772V59.3008C742.772 58.4544 742.619 57.8457 742.313 57.4746C742.014 57.1035 741.519 56.918 740.829 56.918C739.891 56.918 738.954 57.4714 738.016 58.5781V66H736.17V51.6836H738.016V56.957ZM753.708 66.2441C752.184 66.2441 750.96 65.7689 750.036 64.8184C749.111 63.8613 748.649 62.5299 748.649 60.8242C748.649 59.1315 749.095 57.8066 749.987 56.8496C750.885 55.8861 752.057 55.4043 753.502 55.4043C754.98 55.4043 756.159 55.8763 757.038 56.8203C757.923 57.7643 758.366 59.099 758.366 60.8242V61.2637H750.563C750.641 62.4616 750.97 63.3503 751.549 63.9297C752.135 64.5091 752.855 64.7988 753.708 64.7988C754.352 64.7988 754.931 64.6361 755.446 64.3105C755.967 63.9785 756.24 63.5098 756.266 62.9043H758.17C758.027 63.972 757.542 64.7956 756.715 65.375C755.895 65.9544 754.892 66.2441 753.708 66.2441ZM756.422 59.8184C756.273 58.8223 755.937 58.0768 755.417 57.582C754.896 57.0872 754.258 56.8398 753.502 56.8398C752.767 56.8398 752.135 57.0872 751.608 57.582C751.081 58.0703 750.745 58.8158 750.602 59.8184H756.422ZM764.282 56.957C765.2 55.9219 766.232 55.4043 767.377 55.4043C769.715 55.4043 770.883 56.6771 770.883 59.2227V66H769.038V59.3008C769.038 58.4544 768.885 57.8457 768.579 57.4746C768.279 57.1035 767.784 56.918 767.094 56.918C766.157 56.918 765.219 57.4714 764.282 58.5781V66H762.436V55.6387H764.282V56.957ZM783.467 68.5C784.379 68.5 785.124 67.6667 785.704 66L781.788 55.6387H783.78L786.524 63.7441L789.268 55.6387H791.26L787.344 66C786.967 66.9896 786.644 67.7513 786.377 68.2852C786.117 68.8255 785.772 69.278 785.342 69.6426C784.919 70.0137 784.398 70.1992 783.78 70.1992C783.318 70.1992 782.92 70.1536 782.588 70.0625V68.3633C782.875 68.4544 783.168 68.5 783.467 68.5ZM799.081 55.4043C800.558 55.4043 801.737 55.8763 802.616 56.8203C803.501 57.7643 803.944 59.099 803.944 60.8242C803.944 62.543 803.501 63.8776 802.616 64.8281C801.737 65.7721 800.558 66.2441 799.081 66.2441C797.609 66.2441 796.431 65.7721 795.545 64.8281C794.667 63.8776 794.227 62.543 794.227 60.8242C794.227 59.099 794.667 57.7643 795.545 56.8203C796.431 55.8763 797.609 55.4043 799.081 55.4043ZM799.081 64.7988C799.959 64.7988 800.672 64.4668 801.219 63.8027C801.766 63.1322 802.04 62.1393 802.04 60.8242C802.04 59.5026 801.766 58.5098 801.219 57.8457C800.672 57.1751 799.959 56.8398 799.081 56.8398C798.202 56.8398 797.489 57.1751 796.942 57.8457C796.395 58.5098 796.122 59.5026 796.122 60.8242C796.122 62.1393 796.395 63.1322 796.942 63.8027C797.489 64.4668 798.202 64.7988 799.081 64.7988ZM814.577 64.6816C813.659 65.7233 812.627 66.2441 811.481 66.2441C809.144 66.2441 807.975 64.9681 807.975 62.416V55.6387H809.821V62.3379C809.821 63.1842 809.971 63.793 810.27 64.1641C810.569 64.5352 811.064 64.7207 811.754 64.7207C812.783 64.7207 813.724 64.1673 814.577 63.0605V55.6387H816.413V66H814.577V64.6816ZM835.022 63.2754V60.9805H833.762C831.093 60.9805 829.758 61.7064 829.758 63.1582C829.758 63.6855 829.954 64.0924 830.344 64.3789C830.735 64.6589 831.262 64.7988 831.926 64.7988C832.532 64.7988 833.118 64.6621 833.684 64.3887C834.25 64.1152 834.696 63.7441 835.022 63.2754ZM835.022 64.9355C834.084 65.8079 832.877 66.2441 831.399 66.2441C830.37 66.2441 829.524 65.9674 828.86 65.4141C828.196 64.8542 827.864 64.1348 827.864 63.2559C827.864 60.834 829.95 59.623 834.124 59.623H835.022C835.022 58.8809 834.983 58.3438 834.905 58.0117C834.827 57.6732 834.609 57.3932 834.25 57.1719C833.892 56.9505 833.323 56.8398 832.542 56.8398C830.901 56.8398 830.055 57.4258 830.002 58.5977H828.167C828.303 56.4688 829.794 55.4043 832.639 55.4043C833.967 55.4043 835.002 55.668 835.745 56.1953C836.487 56.7227 836.858 57.7578 836.858 59.3008V66H835.022V64.9355ZM846.973 57.3184C846.713 57.2402 846.338 57.2012 845.85 57.2012C844.913 57.2012 844.109 57.6927 843.438 58.6758V66H841.592V55.6387H843.438V57.084C844.213 55.9642 845.111 55.4043 846.133 55.4043C846.394 55.4043 846.674 55.4303 846.973 55.4824V57.3184ZM854.657 66.2441C853.133 66.2441 851.909 65.7689 850.985 64.8184C850.06 63.8613 849.598 62.5299 849.598 60.8242C849.598 59.1315 850.044 57.8066 850.936 56.8496C851.834 55.8861 853.006 55.4043 854.452 55.4043C855.93 55.4043 857.108 55.8763 857.987 56.8203C858.872 57.7643 859.315 59.099 859.315 60.8242V61.2637H851.512C851.59 62.4616 851.919 63.3503 852.499 63.9297C853.084 64.5091 853.804 64.7988 854.657 64.7988C855.301 64.7988 855.881 64.6361 856.395 64.3105C856.916 63.9785 857.189 63.5098 857.215 62.9043H859.12C858.976 63.972 858.491 64.7956 857.665 65.375C856.844 65.9544 855.842 66.2441 854.657 66.2441ZM857.372 59.8184C857.222 58.8223 856.887 58.0768 856.366 57.582C855.845 57.0872 855.207 56.8398 854.452 56.8398C853.716 56.8398 853.084 57.0872 852.557 57.582C852.03 58.0703 851.694 58.8158 851.551 59.8184H857.372Z" fill="white"/>
</svg>
