<svg width="1440" height="878" viewBox="0 0 1440 878" fill="none" xmlns="http://www.w3.org/2000/svg">
<path d="M336.8 400.227C339.684 399.162 342.666 398.173 345.617 397.292C346.249 397.104 346.9 397.017 347.533 397.035C348.165 397.054 348.767 397.177 349.303 397.399C349.84 397.62 350.301 397.935 350.66 398.326C351.018 398.718 351.268 399.177 351.394 399.678C351.521 400.179 351.521 400.712 351.396 401.246C351.271 401.781 351.023 402.307 350.665 402.794C350.307 403.281 349.847 403.72 349.312 404.085C348.776 404.45 348.175 404.734 347.543 404.922C337.447 407.898 327.742 412.155 318.809 417.529C317.689 418.177 316.375 418.473 315.147 418.354C313.92 418.235 312.875 417.71 312.236 416.891C311.598 416.072 311.415 415.024 311.727 413.97C312.04 412.915 312.823 411.938 313.909 411.247C321.113 406.875 328.801 403.174 336.8 400.227ZM377.485 391.827C378.081 391.609 378.703 391.478 379.32 391.442C390.611 390.814 401.665 391.659 412.081 393.947C412.697 394.06 413.258 394.279 413.731 394.593C414.204 394.907 414.579 395.308 414.833 395.773C415.088 396.238 415.216 396.756 415.212 397.297C415.207 397.838 415.069 398.391 414.806 398.921C414.543 399.452 414.159 399.95 413.68 400.385C413.201 400.82 412.634 401.183 412.015 401.453C411.397 401.722 410.738 401.893 410.079 401.954C409.42 402.015 408.774 401.966 408.181 401.809C398.695 399.742 388.634 398.981 378.36 399.553C377.225 399.615 376.165 399.345 375.361 398.79C374.557 398.236 374.06 397.431 373.956 396.515C373.852 395.599 374.148 394.63 374.792 393.774C375.437 392.918 376.389 392.229 377.485 391.827ZM290.52 431.195C291.277 430.915 292.075 430.782 292.846 430.807C293.618 430.832 294.341 431.014 294.953 431.338C295.453 431.602 295.869 431.955 296.176 432.377C296.484 432.799 296.676 433.281 296.744 433.796C296.812 434.31 296.753 434.848 296.57 435.377C296.388 435.906 296.086 436.417 295.681 436.88C289.213 444.323 284.034 452.378 280.33 460.756C280.097 461.278 279.749 461.772 279.304 462.211C278.86 462.65 278.328 463.026 277.74 463.316C277.152 463.606 276.518 463.805 275.876 463.901C275.233 463.998 274.595 463.991 273.996 463.88C273.397 463.768 272.85 463.555 272.386 463.253C271.922 462.951 271.55 462.565 271.292 462.118C271.033 461.67 270.893 461.17 270.879 460.646C270.865 460.121 270.978 459.583 271.211 459.062C275.284 449.861 280.977 441.016 288.084 432.844C288.722 432.106 289.597 431.52 290.583 431.172L290.52 431.195ZM435.455 405.366C436.296 405.054 437.187 404.925 438.035 404.991C438.884 405.057 439.657 405.316 440.276 405.741C447.392 410.6 453.108 416.691 457.124 423.697C457.719 424.728 458.271 425.79 458.802 426.845C459.261 427.781 459.218 428.893 458.681 429.936C458.144 430.979 457.158 431.867 455.94 432.405C454.722 432.943 453.372 433.087 452.186 432.805C451 432.523 450.075 431.839 449.616 430.902C449.157 429.946 448.67 429.013 448.136 428.098C444.636 421.944 439.64 416.591 433.41 412.32C432.955 412.009 432.593 411.616 432.346 411.162C432.099 410.709 431.972 410.205 431.971 409.679C431.97 409.152 432.096 408.614 432.342 408.094C432.587 407.575 432.947 407.085 433.401 406.652C433.989 406.089 434.717 405.638 435.518 405.342L435.455 405.366ZM266.934 482.98C267.537 482.762 268.165 482.633 268.788 482.601C269.428 482.57 270.05 482.644 270.616 482.819C271.182 482.994 271.682 483.267 272.088 483.622C272.493 483.977 272.796 484.408 272.979 484.889C273.163 485.37 273.223 485.891 273.156 486.425C272.093 495.067 272.261 503.619 273.655 511.902C273.77 512.418 273.752 512.966 273.602 513.512C273.453 514.058 273.175 514.591 272.786 515.078C272.396 515.566 271.903 515.999 271.336 516.35C270.769 516.701 270.14 516.964 269.487 517.123C268.833 517.282 268.168 517.333 267.533 517.274C266.897 517.214 266.304 517.046 265.788 516.778C265.273 516.51 264.845 516.148 264.532 515.715C264.218 515.281 264.025 514.785 263.965 514.255C262.444 505.366 262.247 496.185 263.379 486.905C263.48 486.081 263.881 485.262 264.527 484.556C265.173 483.851 266.035 483.293 266.997 482.956L266.934 482.98ZM1008.92 241.811C1009.53 241.578 1010.18 241.441 1010.82 241.408C1011.46 241.376 1012.08 241.449 1012.64 241.623C1013.79 241.974 1014.64 242.715 1015.01 243.683C1015.2 244.162 1015.26 244.683 1015.19 245.215C1015.13 245.748 1014.94 246.281 1014.64 246.785C1014.02 247.803 1012.98 248.64 1011.74 249.111C1002.01 252.91 991.851 257.229 981.559 261.958C980.348 262.514 978.994 262.679 977.797 262.416C976.599 262.152 975.656 261.483 975.174 260.555C974.692 259.627 974.712 258.516 975.228 257.466C975.744 256.417 976.714 255.515 977.926 254.959C988.443 250.118 998.831 245.7 1008.79 241.815L1008.92 241.811ZM1040.23 230.893L1040.58 230.765C1051.34 227.462 1062.22 224.657 1073.18 222.362C1073.83 222.211 1074.49 222.166 1075.11 222.23C1075.74 222.295 1076.33 222.467 1076.84 222.736C1077.35 223.005 1077.77 223.366 1078.08 223.798C1078.39 224.23 1078.58 224.723 1078.64 225.249C1078.7 225.775 1078.62 226.323 1078.42 226.86C1078.23 227.398 1077.9 227.913 1077.48 228.377C1077.05 228.841 1076.53 229.243 1075.94 229.56C1075.36 229.876 1074.72 230.101 1074.07 230.221C1063.49 232.436 1052.99 235.148 1042.61 238.343C1041.35 238.769 1040.01 238.784 1038.9 238.386C1037.79 237.988 1036.98 237.208 1036.67 236.218C1036.35 235.229 1036.55 234.11 1037.22 233.109C1037.89 232.108 1038.97 231.306 1040.23 230.88L1040.23 230.893ZM1384.67 107.242C1385.92 106.782 1387.26 106.727 1388.39 107.09C1389.53 107.453 1390.37 108.203 1390.73 109.177C1391.09 110.15 1390.94 111.267 1390.31 112.28C1389.68 113.294 1388.63 114.122 1387.38 114.582C1377.07 118.388 1366.7 122.424 1356.53 126.457C1355.29 126.947 1353.95 127.035 1352.79 126.702C1351.64 126.37 1350.77 125.644 1350.37 124.684C1349.97 123.724 1350.08 122.61 1350.68 121.585C1351.27 120.561 1352.3 119.71 1353.54 119.22C1363.79 115.158 1374.25 111.131 1384.63 107.259L1384.67 107.242ZM1415.88 95.9203L1415.97 95.8856C1426.42 92.2099 1437.03 88.5857 1447.5 85.1231C1448.13 84.9169 1448.78 84.8097 1449.41 84.8076C1450.05 84.8055 1450.66 84.9085 1451.21 85.1108C1451.75 85.3131 1452.23 85.6108 1452.61 85.9866C1452.99 86.3625 1453.26 86.8093 1453.41 87.3016C1453.56 87.7938 1453.58 88.3218 1453.48 88.8555C1453.38 89.3891 1453.16 89.9181 1452.82 90.412C1452.49 90.9058 1452.04 91.355 1451.52 91.7338C1451 92.1127 1450.41 92.4139 1449.79 92.62C1439.39 96.0537 1428.88 99.6432 1418.5 103.308C1417.88 103.531 1417.23 103.657 1416.59 103.677C1415.95 103.698 1415.34 103.614 1414.78 103.429C1414.22 103.244 1413.73 102.963 1413.33 102.601C1412.94 102.239 1412.64 101.803 1412.47 101.319C1412.3 100.834 1412.25 100.311 1412.33 99.7782C1412.41 99.2454 1412.61 98.7138 1412.93 98.2136C1413.25 97.7134 1413.67 97.2545 1414.18 96.8632C1414.68 96.4718 1415.26 96.1556 1415.88 95.9325L1415.88 95.9203ZM948.672 269.342C949.891 268.806 951.241 268.664 952.426 268.947C953.611 269.231 954.534 269.916 954.991 270.854C955.448 271.791 955.402 272.903 954.863 273.946C954.324 274.988 953.337 275.875 952.118 276.411C947.076 279.009 941.867 281.779 936.66 284.605C932.207 287.013 927.772 289.47 923.346 291.951C922.776 292.271 922.153 292.504 921.513 292.636C920.873 292.768 920.228 292.797 919.615 292.721C919.002 292.645 918.432 292.466 917.939 292.194C917.446 291.922 917.039 291.563 916.741 291.136C916.444 290.709 916.261 290.224 916.204 289.707C916.146 289.19 916.216 288.653 916.408 288.125C916.6 287.597 916.911 287.089 917.323 286.631C917.735 286.172 918.241 285.771 918.81 285.452C923.232 282.958 927.87 280.426 932.35 277.994C937.631 275.127 942.903 272.333 948.03 269.677C948.258 269.547 948.494 269.427 948.735 269.319L948.672 269.342ZM458.437 450.459C459.166 450.188 459.934 450.054 460.681 450.066C461.428 450.078 462.133 450.236 462.74 450.529C463.347 450.821 463.84 451.24 464.179 451.751C464.519 452.261 464.695 452.851 464.695 453.473C464.621 462.74 462.882 472.169 459.532 481.457C459.068 482.442 458.198 483.306 457.095 483.878C455.992 484.451 454.735 484.692 453.57 484.553C452.404 484.414 451.415 483.906 450.795 483.128C450.176 482.35 449.971 481.359 450.22 480.348C453.307 471.847 454.92 463.214 455.009 454.727C455.012 453.866 455.353 452.984 455.982 452.211C456.61 451.439 457.493 450.816 458.5 450.435L458.437 450.459ZM1322.95 131.677C1324.19 131.191 1325.53 131.107 1326.68 131.443C1327.83 131.778 1328.7 132.507 1329.09 133.468C1329.49 134.43 1329.37 135.545 1328.77 136.568C1328.18 137.591 1327.15 138.439 1325.91 138.926C1315.76 143.172 1305.54 147.557 1295.55 151.964C1294.34 152.5 1292.99 152.644 1291.81 152.363C1290.63 152.083 1289.71 151.401 1289.25 150.468C1288.79 149.534 1288.84 148.426 1289.37 147.387C1289.9 146.347 1290.89 145.462 1292.1 144.925C1302.16 140.489 1312.45 136.026 1322.7 131.782L1322.95 131.677ZM1262.28 158.447C1263.51 157.937 1264.86 157.825 1266.02 158.135C1267.19 158.446 1268.09 159.154 1268.51 160.103C1268.93 161.053 1268.85 162.166 1268.28 163.199C1267.71 164.231 1266.7 165.098 1265.48 165.609C1258.62 168.792 1251.71 172.078 1244.92 175.324L1235.72 179.801C1234.53 180.389 1233.17 180.591 1231.95 180.361C1230.73 180.132 1229.75 179.49 1229.23 178.577C1228.7 177.664 1228.68 176.555 1229.16 175.493C1229.64 174.432 1230.58 173.505 1231.78 172.917C1234.88 171.395 1237.97 169.879 1241.07 168.387C1247.91 165.112 1254.89 161.815 1261.79 158.602L1262.28 158.447ZM1104.65 217.698C1105.18 217.495 1105.73 217.365 1106.28 217.315C1111.82 216.786 1117.39 216.44 1122.82 216.274C1128.24 216.107 1133.77 216.149 1139.23 216.415C1139.86 216.445 1140.45 216.58 1140.98 216.812C1141.51 217.044 1141.95 217.368 1142.3 217.766C1142.65 218.164 1142.88 218.628 1142.99 219.131C1143.1 219.635 1143.09 220.168 1142.95 220.7C1142.81 221.232 1142.55 221.754 1142.18 222.234C1141.81 222.714 1141.34 223.144 1140.8 223.499C1140.26 223.854 1139.66 224.127 1139.02 224.302C1138.39 224.478 1137.74 224.553 1137.11 224.522C1131.96 224.269 1126.73 224.184 1121.61 224.392C1116.49 224.601 1111.11 224.889 1105.83 225.38C1104.66 225.49 1103.56 225.254 1102.71 224.715C1101.86 224.175 1101.32 223.368 1101.19 222.438C1101.07 221.507 1101.35 220.515 1102.01 219.639C1102.66 218.763 1103.63 218.06 1104.76 217.657L1104.65 217.698ZM891.215 301.53C892.369 301.101 893.605 301.017 894.69 301.295C895.775 301.574 896.633 302.194 897.099 303.04C897.565 303.885 897.607 304.895 897.217 305.877C896.827 306.86 896.033 307.747 894.986 308.368C885.718 313.943 876.405 319.73 867.311 325.533C866.766 325.898 866.155 326.179 865.514 326.361C864.873 326.542 864.215 326.62 863.579 326.59C862.943 326.56 862.341 326.422 861.808 326.185C861.276 325.948 860.824 325.616 860.48 325.209C860.135 324.802 859.904 324.328 859.801 323.815C859.698 323.302 859.724 322.76 859.878 322.221C860.032 321.682 860.312 321.156 860.699 320.676C861.087 320.195 861.575 319.769 862.135 319.422C871.312 313.505 880.742 307.648 890.125 302.002C890.489 301.798 890.877 301.632 891.278 301.507L891.215 301.53ZM1203.04 187.832C1204.21 187.398 1205.47 187.321 1206.57 187.617C1207.66 187.914 1208.52 188.562 1208.96 189.434C1209.4 190.306 1209.41 191.34 1208.97 192.331C1208.53 193.323 1207.68 194.201 1206.59 194.793C1196.37 200.357 1187.19 205.708 1178.5 211.167C1177.39 211.863 1176.05 212.204 1174.79 212.115C1173.53 212.026 1172.45 211.515 1171.78 210.692C1171.11 209.87 1170.91 208.805 1171.22 207.732C1171.54 206.658 1172.34 205.663 1173.45 204.967C1182.36 199.385 1191.75 193.904 1202.19 188.217C1202.49 188.07 1202.8 187.941 1203.11 187.833L1203.04 187.832ZM275.39 534.018C276.573 533.578 277.843 533.502 278.946 533.807C280.048 534.111 280.903 534.773 281.337 535.659C284.99 543.177 289.785 550.161 295.623 556.466C296.294 557.255 296.522 558.283 296.261 559.332C295.999 560.382 295.268 561.371 294.22 562.092C293.172 562.814 291.89 563.211 290.642 563.201C289.395 563.191 288.279 562.774 287.53 562.038C281.245 555.274 276.086 547.775 272.163 539.699C271.71 538.766 271.757 537.66 272.292 536.624C272.827 535.587 273.807 534.704 275.018 534.169L275.39 534.018ZM836.199 336.905C837.322 336.482 838.527 336.387 839.596 336.638C840.665 336.889 841.526 337.469 842.023 338.272C842.52 339.074 842.619 340.048 842.303 341.014C841.988 341.98 841.278 342.875 840.302 343.536C831.395 349.604 822.551 355.94 813.965 362.251C812.92 363.02 811.612 363.458 810.328 363.469C809.045 363.48 807.892 363.063 807.123 362.309C806.353 361.555 806.031 360.526 806.226 359.449C806.421 358.372 807.118 357.335 808.163 356.566C816.866 350.184 825.819 343.808 834.809 337.626C835.26 337.331 835.755 337.092 836.275 336.918L836.199 336.905ZM1147.76 222.831C1148.86 222.431 1150.02 222.342 1151.06 222.578C1152.11 222.814 1152.95 223.361 1153.47 224.124C1153.98 224.888 1154.12 225.821 1153.87 226.762C1153.61 227.704 1152.98 228.596 1152.08 229.284C1143.65 235.636 1135.67 242.404 1128.2 249.539C1127.28 250.366 1126.06 250.914 1124.8 251.066C1123.53 251.219 1122.33 250.965 1121.43 250.357C1120.53 249.75 1120.01 248.836 1119.98 247.807C1119.94 246.778 1120.4 245.713 1121.25 244.835C1129.03 237.388 1137.36 230.326 1146.16 223.7C1146.66 223.333 1147.23 223.038 1147.83 222.832L1147.76 222.831ZM1167.6 220.751C1168.67 220.355 1169.81 220.257 1170.84 220.471C1181.08 222.634 1190.91 225.603 1200.22 229.341C1201.3 229.778 1202.06 230.589 1202.33 231.595C1202.6 232.601 1202.35 233.719 1201.64 234.704C1200.92 235.689 1199.81 236.46 1198.54 236.847C1197.27 237.234 1195.94 237.206 1194.86 236.768C1186.05 233.227 1176.74 230.414 1167.04 228.365C1166.11 228.166 1165.32 227.719 1164.79 227.086C1164.26 226.453 1164 225.665 1164.07 224.831C1164.13 223.996 1164.5 223.155 1165.13 222.425C1165.76 221.694 1166.62 221.11 1167.6 220.751ZM783.944 375.277C785.036 374.867 786.206 374.766 787.253 374.992C788.3 375.219 789.158 375.757 789.681 376.516C790.203 377.275 790.357 378.206 790.115 379.149C789.873 380.092 789.252 380.988 788.357 381.683C785.235 384.128 782.118 386.585 779.045 389.068C774.003 393.111 768.913 397.27 763.469 401.767C762.984 402.194 762.416 402.548 761.797 402.809C761.178 403.07 760.522 403.232 759.867 403.285C759.213 403.339 758.573 403.283 757.986 403.121C757.399 402.96 756.878 402.695 756.452 402.343C756.026 401.991 755.704 401.559 755.507 401.074C755.309 400.588 755.239 400.057 755.301 399.514C755.363 398.971 755.556 398.427 755.868 397.913C756.18 397.398 756.605 396.925 757.117 396.522C762.559 391.969 767.749 387.746 772.829 383.661C775.963 381.151 779.104 378.662 782.253 376.193C782.776 375.799 783.377 375.487 784.016 375.278L783.944 375.277ZM440.24 503.146C441.184 502.809 442.183 502.7 443.109 502.835C444.035 502.97 444.845 503.341 445.435 503.901C446.025 504.462 446.368 505.185 446.419 505.978C446.471 506.771 446.228 507.598 445.723 508.351C442.29 513.451 438.449 518.395 434.231 523.143C431.389 526.347 428.299 529.503 425.121 532.664C424.673 533.103 424.139 533.477 423.549 533.766C422.959 534.055 422.323 534.253 421.68 534.348C421.036 534.443 420.396 534.433 419.797 534.32C419.198 534.206 418.652 533.991 418.189 533.686C417.725 533.382 417.355 532.994 417.098 532.544C416.841 532.095 416.703 531.593 416.692 531.068C416.68 530.542 416.796 530.002 417.032 529.48C417.268 528.958 417.619 528.464 418.066 528.025C421.095 525.086 423.984 522.06 426.652 519.059C430.577 514.668 434.156 510.095 437.36 505.376C438.012 504.384 439.072 503.583 440.312 503.147L440.24 503.146ZM-132.701 720.167C-132.169 719.963 -131.611 719.837 -131.057 719.796C-120.367 718.798 -109.522 717.645 -98.8131 716.362C-97.5149 716.207 -96.2783 716.482 -95.3759 717.127C-94.4735 717.771 -93.9791 718.732 -94.0012 719.799C-94.0232 720.865 -94.56 721.949 -95.4936 722.812C-96.4272 723.676 -97.681 724.248 -98.9792 724.402C-109.791 725.696 -120.735 726.871 -131.536 727.855C-132.699 727.965 -133.804 727.729 -134.653 727.189C-135.502 726.65 -136.039 725.843 -136.168 724.913C-136.297 723.982 -136.009 722.99 -135.356 722.114C-134.703 721.237 -133.728 720.535 -132.606 720.132L-132.701 720.167ZM1102.67 266.622C1103.64 266.262 1104.67 266.144 1105.63 266.286C1106.58 266.428 1107.41 266.822 1108 267.414C1108.6 268.006 1108.92 268.767 1108.93 269.593C1108.94 270.419 1108.64 271.269 1108.07 272.026C1104.33 276.981 1100.93 282.075 1097.88 287.28C1096.13 290.297 1094.56 293.365 1093.17 296.47C1092.94 296.991 1092.59 297.485 1092.15 297.925C1091.7 298.364 1091.17 298.739 1090.58 299.029C1090 299.319 1089.36 299.518 1088.72 299.615C1088.08 299.712 1087.44 299.704 1086.84 299.593C1086.24 299.482 1085.69 299.269 1085.23 298.967C1084.77 298.664 1084.39 298.278 1084.14 297.831C1083.88 297.384 1083.74 296.883 1083.72 296.359C1083.71 295.835 1083.82 295.297 1084.06 294.775C1085.59 291.384 1087.32 288.034 1089.25 284.738C1092.48 279.207 1096.09 273.793 1100.06 268.53C1100.72 267.7 1101.67 267.04 1102.76 266.66L1102.67 266.622ZM734.559 416.163C735.626 415.765 736.769 415.662 737.797 415.872C738.826 416.083 739.68 416.593 740.218 417.319C740.755 418.045 740.945 418.944 740.755 419.867C740.565 420.79 740.008 421.683 739.174 422.397C731.755 428.796 724.376 435.226 717.039 441.688L715.098 443.377C714.133 444.218 712.863 444.757 711.565 444.874C710.268 444.992 709.051 444.679 708.181 444.005C707.311 443.331 706.86 442.35 706.927 441.278C706.994 440.207 707.573 439.133 708.538 438.292L710.479 436.602C717.862 430.17 725.257 423.734 732.661 417.294C733.201 416.812 733.851 416.424 734.559 416.163ZM-67.8664 712.405C-67.4492 712.249 -67.0177 712.137 -66.583 712.07C-55.9021 710.519 -45.0426 708.777 -34.3467 706.928C-33.7049 706.818 -33.063 706.81 -32.4581 706.907C-31.8532 707.005 -31.2969 707.204 -30.821 707.494C-30.3451 707.785 -29.9588 708.16 -29.6844 708.6C-29.41 709.039 -29.253 709.534 -29.2219 710.055C-29.1907 710.577 -29.2863 711.115 -29.5031 711.639C-29.72 712.164 -30.0537 712.664 -30.4855 713.111C-30.9173 713.558 -31.4388 713.944 -32.0199 714.246C-32.6009 714.548 -33.2302 714.761 -33.872 714.871C-44.6866 716.736 -55.681 718.5 -66.4291 720.062C-67.6086 720.228 -68.752 720.039 -69.6492 719.532C-70.5464 719.024 -71.1369 718.231 -71.3119 717.299C-71.4868 716.367 -71.2342 715.359 -70.6011 714.459C-69.968 713.56 -68.997 712.83 -67.8664 712.405ZM311.462 572.653C312.264 572.358 313.112 572.229 313.924 572.277C314.737 572.325 315.487 572.549 316.104 572.928C322.33 576.726 329.012 580.035 336.083 582.819L338.862 581.376C339.793 581.315 340.698 581.418 341.516 581.677C342.335 581.936 343.05 582.347 343.615 582.881C344.18 583.416 344.581 584.062 344.794 584.779C345.006 585.496 345.025 586.267 344.848 587.042C344.671 587.817 344.303 588.578 343.768 589.276C343.233 589.975 342.543 590.594 341.742 591.095C340.941 591.596 340.048 591.967 339.121 592.183C338.194 592.399 337.253 592.456 336.36 592.35C336.048 592.229 335.725 592.126 335.397 592.01L334.124 592.661C327.258 596.154 320.276 599.621 313.329 602.991C312.146 603.53 310.828 603.694 309.655 603.45C308.482 603.205 307.545 602.571 307.043 601.681C306.541 600.791 306.513 599.716 306.966 598.683C307.418 597.649 308.315 596.74 309.467 596.146C314.869 593.512 320.294 590.843 325.67 588.136C320.012 585.658 314.615 582.848 309.513 579.725C308.87 579.33 308.395 578.781 308.138 578.134C307.88 577.487 307.849 576.766 308.047 576.045C308.246 575.325 308.667 574.63 309.267 574.034C309.867 573.438 310.625 572.961 311.462 572.653ZM395.715 547.117C396.82 546.717 397.999 546.633 399.045 546.88C400.091 547.127 400.938 547.69 401.437 548.469C401.937 549.249 402.058 550.195 401.779 551.144C401.5 552.093 400.839 552.983 399.91 553.659C391.003 560.133 381.72 566.219 372.111 571.885C371.55 572.252 370.922 572.532 370.266 572.707C369.61 572.881 368.938 572.947 368.293 572.901C367.648 572.855 367.043 572.697 366.515 572.437C365.986 572.177 365.545 571.821 365.218 571.389C364.892 570.958 364.687 570.462 364.616 569.93C364.545 569.398 364.61 568.841 364.807 568.295C365.003 567.748 365.327 567.223 365.758 566.751C366.189 566.279 366.72 565.871 367.316 565.55C376.584 560.076 385.54 554.199 394.135 547.951C394.661 547.627 395.238 547.376 395.839 547.211L395.715 547.117ZM1221.36 242.528C1222.22 242.227 1223.13 242.115 1223.98 242.206C1224.84 242.297 1225.61 242.587 1226.21 243.044C1234.19 248.399 1241.25 254.591 1247.27 261.503C1247.62 261.902 1247.85 262.366 1247.97 262.87C1248.08 263.373 1248.06 263.907 1247.92 264.44C1247.79 264.972 1247.52 265.494 1247.16 265.975C1246.79 266.455 1246.32 266.886 1245.78 267.241C1245.23 267.596 1244.63 267.87 1243.99 268.046C1243.36 268.222 1242.71 268.297 1242.08 268.266C1241.46 268.236 1240.86 268.101 1240.33 267.869C1239.81 267.637 1239.36 267.313 1239.01 266.915C1233.37 260.464 1226.76 254.69 1219.29 249.701C1218.68 249.291 1218.24 248.738 1218.01 248.095C1217.78 247.453 1217.77 246.743 1217.98 246.038C1218.19 245.332 1218.61 244.655 1219.2 244.074C1219.8 243.492 1220.54 243.027 1221.36 242.723L1221.36 242.528ZM-3.1963 701.159C-2.88236 701.036 -2.55766 700.944 -2.22915 700.885C8.43004 698.744 19.2726 696.425 29.8616 694.046C31.1184 693.808 32.3599 693.972 33.3276 694.504C34.2953 695.036 34.9148 695.894 35.0568 696.901C35.1987 697.907 34.8525 698.984 34.0899 699.906C33.3274 700.829 32.2072 701.527 30.9631 701.855C20.2173 704.291 9.30771 706.622 -1.45454 708.773C-2.66258 709.013 -3.86356 708.883 -4.82504 708.406C-5.78652 707.93 -6.44011 707.142 -6.65892 706.195C-6.87772 705.248 -6.6462 704.209 -6.00943 703.279C-5.37266 702.35 -4.37577 701.596 -3.21199 701.165L-3.1963 701.159ZM61.1999 686.566C61.4093 686.475 61.624 686.396 61.8423 686.329C72.4104 683.652 83.1059 680.789 93.6621 677.838C94.9455 677.477 96.2687 677.536 97.3407 678.001C98.4126 678.467 99.1451 679.303 99.3776 680.323C99.6101 681.343 99.3234 682.465 98.5803 683.442C97.8372 684.419 96.6987 685.17 95.4152 685.532C84.7696 688.529 73.9399 691.414 63.2733 694.114C62.644 694.31 61.9939 694.406 61.3602 694.396C60.7266 694.387 60.1215 694.272 59.5799 694.059C59.0383 693.846 58.571 693.538 58.2038 693.154C57.8367 692.769 57.5773 692.315 57.4405 691.818C57.3038 691.321 57.2924 690.79 57.4069 690.256C57.5214 689.722 57.7593 689.195 58.1075 688.705C58.4558 688.215 58.9075 687.771 59.4365 687.4C59.9655 687.029 60.5616 686.737 61.1908 686.542L61.1999 686.566ZM686.238 458.005C687.301 457.618 688.435 457.523 689.455 457.737C690.474 457.951 691.319 458.461 691.851 459.183C692.384 459.905 692.573 460.797 692.389 461.714C692.204 462.631 691.656 463.518 690.833 464.232C681.79 472.004 673.754 478.793 666.272 484.96C665.824 485.491 665.254 485.95 664.602 486.304C663.951 486.658 663.234 486.899 662.506 487.007C661.777 487.116 661.054 487.09 660.39 486.932C659.726 486.774 659.138 486.487 658.669 486.093C658.199 485.699 657.86 485.207 657.676 484.654C657.492 484.1 657.468 483.5 657.606 482.895C657.744 482.29 658.04 481.697 658.473 481.159C658.905 480.621 659.463 480.152 660.106 479.785C667.53 473.653 675.501 466.93 684.554 459.182C685.075 458.729 685.692 458.359 686.361 458.098L686.238 458.005ZM280.055 609.906C280.664 609.656 281.308 609.502 281.95 609.452C282.592 609.402 283.219 609.457 283.795 609.614C284.959 609.932 285.846 610.645 286.262 611.598C286.677 612.551 286.587 613.665 286.01 614.695C285.434 615.725 284.418 616.587 283.188 617.091C273.151 621.643 262.881 626.142 252.672 630.466C251.447 630.985 250.099 631.107 248.926 630.804C247.752 630.502 246.849 629.801 246.415 628.855C245.981 627.91 246.052 626.796 246.611 625.761C247.171 624.725 248.173 623.852 249.399 623.334C259.503 619.062 269.663 614.603 279.605 610.086L280.055 609.906ZM124.998 668.664L125.327 668.542C135.799 665.316 146.383 661.911 156.756 658.416C158.017 657.993 159.35 657.981 160.462 658.383C161.573 658.784 162.373 659.567 162.684 660.558C162.996 661.549 162.794 662.668 162.123 663.667C161.451 664.667 160.366 665.466 159.105 665.889C148.618 669.413 137.956 672.847 127.369 676.101C126.11 676.527 124.776 676.543 123.663 676.145C122.549 675.746 121.746 674.967 121.43 673.977C121.115 672.987 121.312 671.869 121.98 670.868C122.647 669.867 123.729 669.065 124.989 668.639L124.998 668.664ZM218.946 635.769C219.561 635.534 220.206 635.397 220.846 635.364C221.485 635.331 222.106 635.402 222.672 635.575C223.239 635.748 223.74 636.019 224.147 636.372C224.555 636.725 224.86 637.153 225.046 637.632C225.232 638.111 225.296 638.631 225.232 639.163C225.169 639.695 224.98 640.229 224.677 640.733C224.374 641.238 223.962 641.703 223.465 642.103C222.968 642.503 222.395 642.829 221.78 643.063C211.487 647.112 201.019 651.073 190.537 654.9C189.29 655.361 187.952 655.415 186.816 655.052C185.68 654.689 184.84 653.939 184.481 652.965C184.122 651.992 184.272 650.875 184.9 649.862C185.528 648.848 186.581 648.02 187.828 647.56C198.124 643.76 208.53 639.919 218.711 635.855L218.946 635.769ZM1079.46 318.657C1080.08 318.425 1080.74 318.293 1081.38 318.267C1082.02 318.243 1082.64 318.324 1083.2 318.505C1083.76 318.687 1084.26 318.966 1084.66 319.326C1085.06 319.686 1085.35 320.12 1085.53 320.604C1085.7 321.087 1085.76 321.611 1085.68 322.144C1084.47 330.793 1084.5 339.365 1085.76 347.68C1085.9 348.719 1085.53 349.832 1084.72 350.773C1083.91 351.714 1082.73 352.408 1081.44 352.7C1080.15 352.993 1078.85 352.861 1077.83 352.333C1076.81 351.805 1076.16 350.925 1076.01 349.887C1074.68 340.953 1074.65 331.748 1075.93 322.461C1076.09 321.66 1076.53 320.878 1077.19 320.213C1077.85 319.549 1078.71 319.032 1079.65 318.727L1079.46 318.657ZM366.707 592.27C367.705 591.903 368.768 591.793 369.743 591.956C379.65 593.598 389.839 594.529 400.204 594.74C400.836 594.754 401.438 594.873 401.976 595.09C402.514 595.308 402.977 595.619 403.339 596.006C403.701 596.393 403.955 596.849 404.086 597.347C404.217 597.846 404.222 598.377 404.103 598.91C403.983 599.444 403.74 599.969 403.387 600.457C403.034 600.944 402.579 601.384 402.048 601.751C401.516 602.119 400.918 602.406 400.288 602.597C399.659 602.788 399.009 602.879 398.378 602.865C387.49 602.636 376.788 601.653 366.381 599.925C365.413 599.763 364.582 599.34 364.007 598.715C363.431 598.091 363.141 597.298 363.177 596.449C363.214 595.6 363.574 594.739 364.208 593.989C364.842 593.238 365.717 592.637 366.707 592.27ZM636.581 498.782C637.676 498.373 638.848 498.274 639.897 498.504C640.945 498.734 641.802 499.278 642.321 500.042C642.839 500.806 642.987 501.741 642.736 502.686C642.486 503.632 641.854 504.527 640.95 505.218L638.535 507.069C630.527 513.208 622.504 519.116 614.739 524.61C613.673 525.335 612.37 525.726 611.111 525.699C609.852 525.671 608.736 525.228 608.004 524.464C607.271 523.7 606.981 522.676 607.195 521.612C607.41 520.549 608.111 519.531 609.149 518.777C616.835 513.355 624.734 507.547 632.619 501.509L634.987 499.676C635.523 499.318 636.122 499.04 636.751 498.859L636.581 498.782ZM1255.51 282.471C1256.73 282.019 1258.04 281.957 1259.17 282.297C1260.29 282.638 1261.14 283.355 1261.52 284.296C1261.83 285.111 1262.13 285.927 1262.43 286.743C1263.8 290.477 1264.89 294.316 1265.67 298.237C1266.47 302.375 1266.85 306.616 1266.79 310.918C1266.74 311.962 1266.19 313.013 1265.28 313.851C1264.36 314.688 1263.14 315.246 1261.87 315.407C1260.6 315.569 1259.39 315.321 1258.48 314.716C1257.58 314.111 1257.05 313.197 1257.01 312.164C1257.04 308.312 1256.69 304.514 1255.96 300.808C1255.24 297.2 1254.24 293.667 1252.98 290.23C1252.69 289.46 1252.41 288.701 1252.13 287.942C1251.94 287.467 1251.87 286.948 1251.92 286.416C1251.98 285.884 1252.16 285.349 1252.45 284.843C1252.75 284.336 1253.15 283.867 1253.65 283.462C1254.14 283.058 1254.71 282.726 1255.32 282.485L1255.51 282.471ZM583.353 536.11C584.495 535.688 585.718 535.605 586.793 535.876C587.869 536.147 588.723 536.754 589.197 537.583C589.671 538.413 589.732 539.408 589.369 540.384C589.006 541.359 588.244 542.247 587.224 542.883C577.586 548.901 567.911 554.529 558.448 559.62C557.87 559.953 557.235 560.195 556.58 560.333C555.926 560.47 555.266 560.5 554.64 560.42C554.014 560.341 553.434 560.153 552.935 559.869C552.437 559.585 552.029 559.21 551.738 558.766C551.446 558.323 551.276 557.82 551.238 557.288C551.199 556.756 551.294 556.205 551.515 555.669C551.736 555.133 552.079 554.622 552.525 554.167C552.97 553.712 553.508 553.322 554.107 553.021C563.333 548.058 572.786 542.554 582.176 536.683C582.605 536.471 583.056 536.3 583.519 536.174L583.353 536.11ZM430.13 593.759C430.626 593.578 431.14 593.458 431.655 593.405C442.215 592.291 452.786 590.536 463.282 588.154C463.935 587.983 464.602 587.918 465.243 587.965C465.884 588.012 466.486 588.168 467.012 588.426C467.538 588.684 467.977 589.037 468.304 589.464C468.631 589.891 468.837 590.383 468.912 590.911C468.986 591.439 468.927 591.992 468.737 592.536C468.548 593.08 468.232 593.603 467.809 594.076C467.385 594.548 466.864 594.958 466.275 595.283C465.687 595.607 465.043 595.839 464.384 595.964C453.404 598.465 442.345 600.303 431.299 601.46C430.137 601.58 429.029 601.354 428.172 600.824C427.316 600.295 426.767 599.495 426.624 598.569C426.482 597.643 426.755 596.651 427.395 595.771C428.034 594.89 428.998 594.18 430.115 593.765L430.13 593.759ZM525.227 567.21C526.46 566.711 527.804 566.612 528.965 566.934C530.126 567.257 531.008 567.974 531.417 568.929C531.827 569.884 531.729 570.999 531.147 572.027C530.565 573.055 529.546 573.913 528.313 574.412C520.815 577.736 513.242 580.809 505.814 583.55C502.867 584.638 499.905 585.731 496.95 586.697C495.691 587.124 494.357 587.142 493.242 586.745C492.128 586.348 491.323 585.57 491.005 584.581C490.688 583.592 490.883 582.474 491.548 581.473C492.214 580.471 493.295 579.668 494.554 579.24C497.417 578.267 500.294 577.233 503.166 576.187C510.344 573.538 517.655 570.575 524.845 567.379L525.227 567.21ZM1087.37 369.8C1088.54 369.363 1089.8 369.283 1090.9 369.578C1092 369.873 1092.85 370.52 1093.3 371.393C1096.99 378.794 1102.17 385.475 1108.65 391.192C1109.48 391.907 1109.86 392.912 1109.73 393.988C1109.6 395.063 1108.96 396.12 1107.96 396.926C1106.95 397.733 1105.66 398.222 1104.37 398.287C1103.08 398.352 1101.89 397.987 1101.07 397.272C1093.95 390.994 1088.24 383.665 1084.15 375.548C1083.91 375.089 1083.8 374.581 1083.81 374.053C1083.82 373.524 1083.96 372.986 1084.22 372.469C1084.47 371.952 1084.85 371.465 1085.31 371.038C1085.77 370.611 1086.32 370.252 1086.92 369.98L1087.37 369.8ZM1255.21 334.67C1256.06 334.352 1256.98 334.223 1257.84 334.299C1258.7 334.374 1259.49 334.65 1260.1 335.096C1260.72 335.543 1261.15 336.143 1261.34 336.832C1261.54 337.521 1261.49 338.272 1261.2 339.004C1257.6 348.232 1252.52 357.201 1246.11 365.649C1245.37 366.623 1244.24 367.374 1242.97 367.738C1241.69 368.101 1240.37 368.046 1239.3 367.585C1238.23 367.124 1237.5 366.296 1237.26 365.282C1237.03 364.267 1237.31 363.15 1238.04 362.176C1243.99 354.441 1248.72 346.22 1252.09 337.753C1252.34 337.104 1252.77 336.489 1253.34 335.963C1253.91 335.438 1254.61 335.016 1255.37 334.734L1255.21 334.67ZM1128.18 404.198C1129.42 403.747 1130.74 403.693 1131.86 404.048C1136.55 405.498 1141.51 406.49 1146.63 407.007C1151.23 407.477 1155.95 407.532 1160.72 407.172C1162.02 407.074 1163.23 407.406 1164.08 408.095C1164.93 408.784 1165.36 409.774 1165.27 410.847C1165.18 411.92 1164.58 412.988 1163.6 413.817C1162.62 414.645 1161.34 415.166 1160.04 415.264C1154.59 415.668 1149.19 415.6 1143.94 415.062C1138.13 414.478 1132.52 413.351 1127.21 411.701C1126.35 411.436 1125.66 410.95 1125.21 410.304C1124.75 409.659 1124.57 408.884 1124.67 408.078C1124.78 407.272 1125.17 406.472 1125.8 405.78C1126.43 405.088 1127.26 404.535 1128.2 404.192L1128.18 404.198ZM1218.81 382.632C1219.9 382.231 1221.06 382.134 1222.09 382.359C1223.13 382.583 1223.98 383.115 1224.51 383.864C1225.03 384.613 1225.19 385.533 1224.97 386.469C1224.74 387.404 1224.14 388.297 1223.26 388.997C1214.5 396.109 1204.57 402.123 1193.9 406.786C1193.29 407.046 1192.65 407.212 1192 407.274C1191.36 407.335 1190.73 407.292 1190.15 407.145C1189.56 406.999 1189.04 406.753 1188.61 406.421C1188.17 406.09 1187.84 405.679 1187.62 405.212C1187.4 404.745 1187.3 404.231 1187.33 403.701C1187.36 403.17 1187.51 402.632 1187.79 402.118C1188.06 401.604 1188.45 401.124 1188.92 400.705C1189.4 400.286 1189.95 399.937 1190.56 399.677C1200.21 395.481 1209.18 390.059 1217.1 383.64C1217.66 383.224 1218.31 382.901 1218.99 382.691L1218.81 382.632Z" fill="#FF0401" fill-opacity="0.3"/>
<path d="M514.374 512.371C512.637 513.347 511.211 514.776 510.237 516.515C509.264 518.253 508.778 520.24 508.829 522.275L509.862 564.528C509.897 565.97 509.555 567.378 508.872 568.614C508.189 569.85 507.187 570.871 505.965 571.577L492.299 579.449C488.891 581.409 486.009 584.138 483.868 587.431L482.477 589.565C482.218 589.947 482.076 590.401 482.069 590.873C482.062 591.345 482.189 591.816 482.436 592.23C482.683 592.645 483.039 592.986 483.464 593.215C483.888 593.443 484.363 593.55 484.832 593.521L487.396 593.377C491.397 593.211 495.265 592.139 498.711 590.242L512.528 582.626C513.768 581.948 515.178 581.613 516.62 581.655C518.063 581.696 519.488 582.112 520.755 582.862L557.892 604.775C559.682 605.828 561.695 606.406 563.729 606.451C565.763 606.496 567.747 606.007 569.485 605.032C553.825 595.219 539.26 580.139 533.374 573.714C533.188 573.509 533.049 573.266 532.967 573.005C532.884 572.744 532.86 572.47 532.897 572.204C532.933 571.938 533.029 571.687 533.178 571.468C533.326 571.25 533.523 571.069 533.754 570.941L536.282 573.492C536.873 574.095 537.66 574.461 538.484 574.519C539.307 574.576 540.107 574.32 540.722 573.802L544.149 570.91C544.608 570.515 544.919 569.976 545.035 569.373C545.15 568.742 545.487 568.184 545.985 567.796L547.257 566.776L545.554 567.361C545.019 567.543 544.433 567.555 543.875 567.395L542.936 567.127L541.401 566.731L544.353 565.1C546.233 564.063 547.962 562.784 549.5 561.295L557.253 553.804L566.948 561.884C567.956 562.724 569.203 563.212 570.486 563.268C571.769 563.324 573.012 562.945 574.013 562.192L577.133 559.844L563.069 548.174L565.201 546.061C565.278 545.989 565.327 545.891 565.34 545.785C565.354 545.678 565.33 545.568 565.274 545.473C565.218 545.378 565.132 545.303 565.031 545.26C564.93 545.217 564.818 545.209 564.715 545.237L561.776 546.016L558.378 528.331L554.707 529.812C553.544 530.279 552.591 531.132 552.001 532.234C551.411 533.336 551.219 534.622 551.455 535.886L553.749 548.159L543.331 550.932C541.236 551.487 539.233 552.312 537.371 553.387L534.467 555.066L534.855 553.579L535.078 552.651C535.21 552.091 535.52 551.596 535.961 551.237L537.348 550.079L535.832 550.646C535.234 550.867 534.568 550.871 533.947 550.657C533.352 550.455 532.717 550.449 532.138 550.64L527.867 552.092C527.099 552.351 526.472 552.896 526.111 553.618C525.751 554.34 525.683 555.185 525.923 555.984L526.981 559.356C526.751 559.491 526.492 559.571 526.222 559.589C525.952 559.607 525.678 559.563 525.422 559.46C525.165 559.358 524.933 559.2 524.741 558.997C524.55 558.795 524.405 558.554 524.317 558.293C521.501 550.276 515.319 530.473 514.374 512.371Z" fill="#4F4F4F" fill-opacity="0.8"/>
</svg>
