<svg width="1235" height="205" viewBox="0 0 1235 205" fill="none" xmlns="http://www.w3.org/2000/svg">
<path d="M1218.5 46C1181.38 46 1218.5 91 1218.5 91C1218.5 91 1255.62 46 1218.5 46ZM1218.5 74.4653C1216.02 74.4653 1213.59 73.7248 1211.53 72.3375C1209.47 70.9503 1207.86 68.9785 1206.91 66.6715C1205.96 64.3646 1205.71 61.826 1206.2 59.377C1206.68 56.9279 1207.88 54.6783 1209.63 52.9127C1211.38 51.147 1213.62 49.9446 1216.05 49.4574C1218.49 48.9703 1221.01 49.2203 1223.3 50.1758C1225.59 51.1314 1227.55 52.7496 1228.93 54.8258C1230.31 56.9021 1231.04 59.343 1231.04 61.8401C1231.04 65.1885 1229.72 68.3997 1227.37 70.7674C1225.02 73.1351 1221.83 74.4653 1218.5 74.4653Z" fill="#FF0401"/>
<path d="M1219 51C1216.82 51 1214.7 51.6451 1212.89 52.8538C1211.08 54.0625 1209.67 55.7805 1208.84 57.7905C1208 59.8004 1207.79 62.0122 1208.21 64.146C1208.64 66.2798 1209.68 68.2398 1211.22 69.7782C1212.76 71.3165 1214.72 72.3642 1216.85 72.7887C1218.99 73.2131 1221.2 72.9952 1223.21 72.1626C1225.22 71.3301 1226.94 69.9202 1228.15 68.1112C1229.35 66.3023 1230 64.1756 1230 62C1230 60.5552 1229.72 59.1242 1229.16 57.7892C1228.61 56.4541 1227.8 55.241 1226.78 54.2194C1225.76 53.1977 1224.55 52.3875 1223.21 51.8351C1221.88 51.2827 1220.44 50.9989 1219 51ZM1219 71.2237C1217.17 71.2237 1215.39 70.682 1213.87 69.6672C1212.35 68.6525 1211.17 67.2102 1210.47 65.5229C1209.77 63.8355 1209.59 61.9788 1209.95 60.1878C1210.3 58.3967 1211.18 56.7518 1212.47 55.461C1213.77 54.1702 1215.41 53.2917 1217.2 52.9364C1219 52.5811 1220.85 52.7651 1222.54 53.465C1224.23 54.165 1225.67 55.3496 1226.68 56.8688C1227.69 58.3881 1228.23 60.1738 1228.23 62C1228.23 63.2127 1227.99 64.4135 1227.53 65.5341C1227.07 66.6546 1226.39 67.6728 1225.53 68.5303C1224.67 69.3877 1223.65 70.0677 1222.53 70.5313C1221.41 70.9949 1220.21 71.2329 1219 71.2318V71.2237Z" fill="#FF0401"/>
<path d="M1223 99.4915C1223 100.382 1222.74 101.253 1222.25 101.994C1221.75 102.735 1221.05 103.313 1220.23 103.655C1219.41 103.997 1218.5 104.087 1217.63 103.915C1216.75 103.742 1215.95 103.314 1215.32 102.685C1214.69 102.056 1214.26 101.254 1214.09 100.381C1213.91 99.5079 1214 98.6026 1214.34 97.7799C1214.68 96.9571 1215.26 96.2539 1216 95.759C1216.74 95.2642 1217.61 95 1218.5 95C1219.69 95 1220.84 95.473 1221.68 96.315C1222.52 97.1571 1223 98.2995 1223 99.4915Z" fill="#FF0401"/>
<path d="M29.9747 187C31.99 186.994 33.9684 186.457 35.7121 185.443C37.4558 184.429 38.9039 182.973 39.9116 181.222L60.8544 144.901C61.5686 143.659 62.5927 142.626 63.8259 141.902C65.0591 141.178 66.4589 140.789 67.8874 140.774L83.829 140.625C87.803 140.591 91.7176 139.654 95.2793 137.884L97.5908 136.737C98.0125 136.536 98.3687 136.219 98.6181 135.823C98.8676 135.427 99 134.968 99 134.5C99 134.032 98.8676 133.573 98.6181 133.177C98.3687 132.781 98.0125 132.464 97.5908 132.263L95.2793 131.116C91.716 129.351 87.8024 128.414 83.829 128.375L67.8874 128.226C66.4589 128.211 65.0591 127.822 63.8259 127.098C62.5927 126.374 61.5686 125.341 60.8544 124.099L39.9116 87.7783C38.9039 86.0268 37.4558 84.5714 35.7121 83.5574C33.9684 82.5434 31.99 82.0064 29.9747 82C38.5131 97.8078 43.3745 117.495 45.1595 125.75C45.2165 126.013 45.2135 126.286 45.1508 126.548C45.088 126.81 44.9671 127.055 44.7971 127.264C44.6271 127.472 44.4124 127.64 44.1689 127.754C43.9255 127.867 43.6596 127.925 43.3911 127.921L42.5685 124.545C42.3654 123.752 41.8705 123.066 41.1837 122.625C40.4969 122.184 39.6691 122.021 38.8669 122.167L34.4002 122.993C33.7961 123.105 33.2463 123.416 32.8373 123.876C32.4046 124.349 31.8245 124.661 31.1921 124.759L29.547 125.007L31.3485 125.329C31.9088 125.426 32.4257 125.694 32.8291 126.097L33.5036 126.782L34.6141 127.855H31.2333C29.0628 127.83 26.8982 128.086 24.7925 128.614L14.1566 131.388L9.90379 119.906C9.46263 118.711 8.63164 117.701 7.5459 117.04C6.46016 116.379 5.18362 116.106 3.92372 116.265L0 116.761L6.18581 133.377L3.23268 134.12C3.12767 134.145 3.03405 134.204 2.96699 134.289C2.89993 134.373 2.86336 134.478 2.86336 134.587C2.86336 134.695 2.89993 134.8 2.96699 134.885C3.03405 134.969 3.12767 135.029 3.23268 135.053L6.18581 135.788L0 152.404L3.94832 152.908C5.20189 153.068 6.47269 152.8 7.55604 152.147C8.63939 151.495 9.4722 150.495 9.92025 149.309L14.2717 137.81L24.7596 140.435C26.8657 140.962 29.0298 141.22 31.2004 141.203H34.5812L33.4707 142.276L32.7962 142.953C32.3936 143.358 31.8767 143.628 31.3155 143.729L29.5141 144.042L31.1593 144.29C31.7936 144.388 32.3747 144.703 32.8045 145.182C33.2139 145.64 33.7638 145.948 34.3673 146.057L38.8339 146.882C39.635 147.029 40.4619 146.867 41.1485 146.427C41.8352 145.988 42.3307 145.304 42.5355 144.513L43.3581 141.137C43.6267 141.133 43.8926 141.19 44.136 141.304C44.3795 141.418 44.5943 141.585 44.7643 141.794C44.9343 142.003 45.0551 142.247 45.1178 142.509C45.1806 142.771 45.1836 143.044 45.1267 143.308C43.3746 151.463 38.5131 171.2 29.9747 187Z" fill="#4F4F4F"/>
<path d="M849.671 205C847.691 205 845.668 204.929 843.688 204.797C843.264 204.768 842.851 204.671 842.472 204.511C842.094 204.351 841.758 204.132 841.483 203.866C841.209 203.599 841 203.291 840.871 202.959C840.741 202.627 840.693 202.276 840.728 201.929C840.763 201.581 840.882 201.243 841.077 200.932C841.272 200.622 841.539 200.347 841.864 200.121C842.189 199.896 842.565 199.725 842.97 199.619C843.375 199.513 843.802 199.473 844.226 199.502C850.991 199.978 857.806 199.549 864.404 198.231C865.226 198.082 866.086 198.202 866.801 198.565C867.517 198.928 868.031 199.506 868.234 200.176C868.438 200.846 868.314 201.554 867.89 202.15C867.466 202.746 866.775 203.183 865.964 203.367C860.635 204.455 855.163 205.003 849.671 205ZM823.208 200.799C822.799 200.798 822.394 200.735 822.013 200.614C815.049 198.367 808.556 195.24 802.771 191.347C802.424 191.131 802.134 190.86 801.918 190.55C801.703 190.24 801.565 189.898 801.515 189.543C801.465 189.188 801.503 188.829 801.627 188.487C801.75 188.144 801.957 187.826 802.234 187.551C802.512 187.276 802.854 187.049 803.241 186.886C803.628 186.722 804.051 186.624 804.485 186.598C804.919 186.571 805.356 186.617 805.767 186.733C806.179 186.849 806.559 187.031 806.882 187.27C812.154 190.805 818.065 193.645 824.402 195.689C825.102 195.916 825.683 196.336 826.045 196.876C826.407 197.417 826.528 198.044 826.386 198.65C826.245 199.256 825.85 199.802 825.27 200.194C824.689 200.587 823.96 200.801 823.208 200.799ZM884.55 196.184C884.03 196.184 883.519 196.081 883.058 195.885C882.597 195.688 882.201 195.403 881.903 195.054C881.659 194.769 881.487 194.447 881.395 194.108C881.304 193.768 881.295 193.417 881.369 193.074C881.443 192.731 881.598 192.404 881.826 192.111C882.055 191.818 882.351 191.564 882.699 191.365C888.268 188.155 893.195 184.255 897.303 179.804C897.56 179.527 897.881 179.295 898.248 179.121C898.614 178.946 899.019 178.832 899.439 178.786C899.86 178.74 900.287 178.762 900.697 178.851C901.107 178.94 901.491 179.094 901.828 179.305C902.165 179.516 902.448 179.779 902.661 180.08C902.874 180.381 903.013 180.713 903.069 181.057C903.126 181.402 903.099 181.752 902.99 182.088C902.882 182.425 902.693 182.74 902.436 183.016C897.922 187.903 892.509 192.184 886.39 195.707C885.84 196.026 885.181 196.193 884.507 196.184H884.55ZM791.191 178.621C790.614 178.622 790.046 178.495 789.548 178.255C789.05 178.014 788.641 177.668 788.361 177.253C785.144 172.501 783.049 167.295 782.184 161.906C782.055 161.112 781.958 160.309 781.872 159.514C781.803 158.812 782.078 158.116 782.635 157.58C783.192 157.044 783.986 156.711 784.842 156.655C785.698 156.599 786.547 156.824 787.2 157.281C787.854 157.738 788.26 158.389 788.329 159.091C788.393 159.806 788.48 160.512 788.598 161.218C789.341 165.945 791.166 170.514 793.979 174.685C794.185 174.989 794.315 175.324 794.364 175.669C794.412 176.015 794.376 176.365 794.259 176.699C794.142 177.034 793.946 177.346 793.682 177.618C793.418 177.89 793.091 178.117 792.72 178.286C792.239 178.506 791.698 178.621 791.148 178.621H791.191ZM910.357 168.834C909.944 168.831 909.535 168.765 909.152 168.64C908.758 168.51 908.399 168.317 908.096 168.073C907.793 167.829 907.551 167.539 907.385 167.218C907.219 166.898 907.132 166.554 907.129 166.205C907.125 165.857 907.205 165.512 907.365 165.189C909.935 159.951 911.741 154.483 912.746 148.898C912.792 148.543 912.925 148.199 913.137 147.888C913.349 147.576 913.636 147.303 913.98 147.085C914.324 146.866 914.719 146.707 915.14 146.617C915.561 146.527 916 146.507 916.43 146.559C916.861 146.612 917.274 146.735 917.645 146.922C918.016 147.108 918.336 147.354 918.588 147.645C918.84 147.936 919.018 148.266 919.111 148.615C919.203 148.963 919.209 149.324 919.128 149.674C918.064 155.674 916.135 161.548 913.381 167.175C913.136 167.674 912.711 168.101 912.163 168.397C911.615 168.693 910.97 168.846 910.314 168.834H910.357ZM408.115 148.086C407.691 148.09 407.27 148.025 406.876 147.896C406.483 147.767 406.124 147.575 405.821 147.332C405.208 146.841 404.858 146.171 404.848 145.469C404.843 145.121 404.922 144.776 405.08 144.453C405.237 144.131 405.471 143.836 405.767 143.588C406.366 143.085 407.183 142.799 408.039 142.79C414.765 142.658 421.868 142.296 429.143 141.705C429.999 141.636 430.854 141.849 431.519 142.296C432.184 142.744 432.605 143.39 432.689 144.092C432.773 144.794 432.514 145.495 431.968 146.041C431.422 146.586 430.634 146.931 429.778 147C422.342 147.609 415.077 147.98 408.19 148.112L408.115 148.086ZM386.752 147.68H386.516C379.275 147.255 372.07 146.486 364.938 145.376C364.512 145.32 364.104 145.194 363.738 145.005C363.372 144.817 363.056 144.571 362.808 144.28C362.56 143.99 362.386 143.662 362.296 143.316C362.206 142.969 362.201 142.612 362.283 142.264C362.364 141.916 362.53 141.585 362.77 141.29C363.01 140.996 363.32 140.744 363.681 140.55C364.042 140.355 364.447 140.222 364.872 140.158C365.297 140.095 365.733 140.101 366.154 140.178C373.037 141.249 379.99 141.989 386.978 142.393C387.835 142.418 388.644 142.72 389.228 143.234C389.813 143.748 390.124 144.431 390.094 145.134C390.064 145.836 389.695 146.499 389.068 146.979C388.442 147.458 387.609 147.713 386.752 147.689V147.68ZM150.994 145.473C150.138 145.473 149.316 145.194 148.711 144.698C148.105 144.201 147.765 143.528 147.765 142.826C147.765 142.124 148.105 141.45 148.711 140.954C149.316 140.457 150.138 140.178 150.994 140.178C158.075 140.178 165.242 140.046 172.291 139.869C173.148 139.848 173.979 140.107 174.603 140.589C175.226 141.07 175.591 141.735 175.617 142.438C175.642 143.14 175.327 143.821 174.74 144.333C174.152 144.844 173.341 145.143 172.485 145.164C165.382 145.341 158.161 145.447 151.026 145.473H150.994ZM129.61 145.35H129.546C122.411 145.235 115.189 145.05 108.087 144.794C107.663 144.778 107.246 144.694 106.862 144.547C106.478 144.399 106.132 144.191 105.846 143.934C105.56 143.677 105.338 143.377 105.193 143.049C105.049 142.722 104.984 142.375 105.003 142.027C105.022 141.679 105.125 141.338 105.305 141.023C105.485 140.708 105.738 140.425 106.052 140.19C106.365 139.955 106.732 139.773 107.131 139.655C107.53 139.536 107.953 139.483 108.377 139.499C115.426 139.755 122.583 139.94 129.675 140.046C130.099 140.049 130.518 140.121 130.908 140.257C131.298 140.394 131.651 140.592 131.948 140.84C132.245 141.088 132.479 141.382 132.638 141.705C132.796 142.027 132.875 142.372 132.871 142.72C132.867 143.068 132.779 143.411 132.613 143.731C132.447 144.051 132.205 144.341 131.902 144.584C131.6 144.828 131.241 145.02 130.848 145.15C130.455 145.279 130.034 145.344 129.61 145.341V145.35ZM450.667 144.723C449.811 144.778 448.963 144.552 448.31 144.094C447.657 143.637 447.252 142.985 447.185 142.283C447.118 141.581 447.394 140.886 447.952 140.35C448.51 139.815 449.305 139.483 450.161 139.428C453.788 138.96 457.554 138.422 461.332 137.848C464.56 137.363 467.789 136.842 471.017 136.304C471.433 136.234 471.861 136.233 472.277 136.299C472.694 136.365 473.09 136.498 473.444 136.689C473.797 136.881 474.102 137.128 474.339 137.416C474.576 137.705 474.742 138.028 474.827 138.369C474.912 138.71 474.914 139.061 474.833 139.402C474.753 139.744 474.591 140.069 474.357 140.359C474.123 140.649 473.822 140.898 473.47 141.093C473.119 141.288 472.724 141.424 472.309 141.493C469.08 142.04 465.712 142.561 462.462 143.055C458.63 143.638 454.821 144.176 451.129 144.661C450.963 144.69 450.794 144.711 450.624 144.723H450.667ZM787.36 144.608C786.859 144.609 786.365 144.515 785.916 144.332C785.468 144.149 785.077 143.884 784.775 143.556C784.474 143.228 784.269 142.847 784.178 142.443C784.087 142.039 784.112 141.623 784.25 141.228C786.362 135.362 789.517 129.784 793.613 124.672C794.114 124.156 794.832 123.811 795.626 123.706C796.42 123.601 797.234 123.743 797.907 124.104C798.581 124.465 799.065 125.019 799.266 125.658C799.467 126.297 799.37 126.975 798.994 127.558C795.232 132.232 792.331 137.335 790.384 142.702C790.19 143.248 789.787 143.728 789.235 144.071C788.683 144.414 788.01 144.603 787.317 144.608H787.36ZM193.75 144.423C192.894 144.442 192.064 144.181 191.442 143.698C190.821 143.214 190.459 142.548 190.436 141.846C190.413 141.144 190.731 140.463 191.321 139.953C191.91 139.444 192.722 139.147 193.578 139.128C200.66 138.81 207.816 138.422 214.833 137.963C215.686 137.907 216.532 138.131 217.184 138.586C217.835 139.041 218.24 139.69 218.309 140.39C218.377 141.09 218.104 141.783 217.549 142.318C216.994 142.852 216.203 143.184 215.349 143.241C208.279 143.699 201.068 144.123 193.923 144.414L193.75 144.423ZM236.389 141.643C235.532 141.679 234.694 141.435 234.057 140.964C233.42 140.494 233.038 139.835 232.993 139.132C232.949 138.43 233.247 137.742 233.821 137.22C234.395 136.698 235.199 136.384 236.055 136.348C240.909 135.933 245.816 135.465 250.648 134.998L257.202 134.309C258.058 134.217 258.924 134.407 259.609 134.838C260.295 135.269 260.743 135.906 260.856 136.608C260.968 137.31 260.736 138.021 260.21 138.583C259.685 139.144 258.908 139.512 258.052 139.605C255.835 139.843 253.629 140.081 251.423 140.302C246.559 140.778 241.608 141.237 236.722 141.661L236.389 141.643ZM344.878 140.964C344.512 140.968 344.148 140.92 343.802 140.822C340.337 139.86 336.893 138.775 333.578 137.61C330.264 136.445 326.928 135.121 323.688 133.674C323.316 133.508 322.987 133.283 322.721 133.012C322.454 132.742 322.255 132.431 322.135 132.097C322.016 131.764 321.977 131.414 322.022 131.068C322.067 130.723 322.194 130.387 322.397 130.082C322.6 129.777 322.874 129.507 323.204 129.289C323.534 129.07 323.913 128.907 324.32 128.809C324.726 128.71 325.153 128.679 325.574 128.715C325.996 128.752 326.405 128.857 326.777 129.023C329.833 130.391 332.976 131.671 336.118 132.738C339.261 133.806 342.575 134.883 345.879 135.81C346.606 136.013 347.221 136.421 347.614 136.963C348.007 137.504 348.151 138.142 348.022 138.763C347.892 139.384 347.497 139.946 346.907 140.35C346.317 140.753 345.571 140.971 344.803 140.964H344.878ZM492.573 137.751C491.78 137.754 491.014 137.517 490.421 137.086C489.827 136.655 489.447 136.06 489.354 135.415C489.261 134.769 489.461 134.118 489.916 133.585C490.37 133.053 491.048 132.676 491.82 132.527C498.664 131.159 505.584 129.667 512.375 128.114C512.786 128.01 513.218 127.975 513.646 128.01C514.073 128.044 514.488 128.149 514.866 128.317C515.244 128.486 515.577 128.714 515.846 128.989C516.115 129.265 516.314 129.581 516.431 129.92C516.549 130.259 516.583 130.614 516.531 130.964C516.478 131.314 516.342 131.652 516.129 131.959C515.915 132.265 515.629 132.533 515.288 132.747C514.946 132.961 514.556 133.117 514.14 133.206C507.274 134.812 500.268 136.321 493.337 137.707C493.072 137.751 492.8 137.766 492.53 137.751H492.573ZM278.747 136.869C277.941 136.87 277.164 136.624 276.569 136.179C275.973 135.734 275.601 135.123 275.527 134.465C275.453 133.807 275.682 133.15 276.168 132.623C276.654 132.096 277.363 131.738 278.155 131.618C285.57 130.479 292.318 129.235 298.785 127.805C299.613 127.624 300.495 127.719 301.237 128.071C301.978 128.423 302.519 129.002 302.74 129.68C302.962 130.359 302.845 131.082 302.416 131.69C301.987 132.299 301.281 132.742 300.454 132.924C293.824 134.38 286.926 135.66 279.35 136.825C279.136 136.848 278.92 136.857 278.704 136.851L278.747 136.869ZM916.631 134.451C915.818 134.453 915.033 134.203 914.435 133.751C913.836 133.3 913.468 132.68 913.402 132.015C912.872 126.386 911.532 120.829 909.41 115.458C909.181 114.8 909.272 114.094 909.664 113.489C910.056 112.884 910.719 112.427 911.513 112.215C912.307 112.002 913.171 112.051 913.922 112.349C914.674 112.648 915.255 113.174 915.544 113.817C917.834 119.584 919.279 125.553 919.849 131.6C919.914 132.298 919.639 132.99 919.085 133.522C918.53 134.055 917.741 134.385 916.889 134.442L916.631 134.451ZM533.715 128.185C532.942 128.19 532.193 127.967 531.603 127.558C531.013 127.148 530.622 126.578 530.5 125.952C530.379 125.326 530.536 124.685 530.943 124.146C531.349 123.606 531.978 123.204 532.715 123.013C539.452 121.248 546.21 119.297 552.807 117.303C553.61 117.06 554.499 117.088 555.277 117.382C556.055 117.675 556.659 118.211 556.956 118.869C557.252 119.528 557.218 120.257 556.86 120.895C556.501 121.533 555.849 122.028 555.045 122.272C548.362 124.284 541.528 126.234 534.716 128.052C534.378 128.134 534.025 128.17 533.672 128.158L533.715 128.185ZM319.965 127.602C319.214 127.6 318.489 127.383 317.912 126.989C317.336 126.595 316.944 126.049 316.806 125.444C316.667 124.84 316.789 124.214 317.151 123.676C317.514 123.137 318.094 122.718 318.792 122.492C325.308 120.437 331.64 118.01 337.743 115.229C338.486 114.92 339.346 114.859 340.143 115.058C340.94 115.257 341.612 115.701 342.019 116.297C342.427 116.893 342.537 117.595 342.328 118.256C342.118 118.917 341.606 119.486 340.896 119.845C334.532 122.749 327.926 125.282 321.127 127.426C320.741 127.541 320.332 127.595 319.922 127.584L319.965 127.602ZM307.513 124.275C306.778 124.275 306.064 124.07 305.49 123.692C299.782 119.919 294.502 115.731 289.713 111.178C289.154 110.646 288.875 109.953 288.939 109.252C289.003 108.551 289.403 107.899 290.052 107.441C290.702 106.982 291.547 106.754 292.401 106.806C293.256 106.858 294.051 107.186 294.61 107.719C299.143 112.031 304.142 115.998 309.547 119.571C310.065 119.916 310.441 120.384 310.621 120.91C310.802 121.437 310.78 121.997 310.557 122.512C310.334 123.028 309.921 123.474 309.376 123.79C308.831 124.106 308.181 124.275 307.513 124.275ZM573.857 116.067C573.106 116.072 572.376 115.862 571.794 115.473C571.212 115.084 570.813 114.541 570.666 113.937C570.52 113.332 570.635 112.705 570.991 112.163C571.348 111.621 571.923 111.198 572.619 110.966C575.051 110.146 577.484 109.316 579.894 108.46C583.844 107.075 587.847 105.627 592.141 104.047C592.529 103.89 592.952 103.799 593.384 103.778C593.816 103.757 594.249 103.808 594.657 103.928C595.064 104.047 595.438 104.232 595.757 104.472C596.075 104.713 596.332 105.003 596.511 105.326C596.69 105.649 596.788 105.999 596.799 106.354C596.81 106.708 596.734 107.061 596.575 107.392C596.416 107.722 596.179 108.022 595.875 108.276C595.572 108.529 595.21 108.73 594.81 108.866C590.505 110.481 586.427 111.946 582.445 113.349C579.991 114.208 577.537 115.052 575.084 115.882C574.679 116.01 574.247 116.067 573.814 116.05L573.857 116.067ZM810.111 115.423C809.465 115.416 808.837 115.251 808.308 114.948C807.778 114.646 807.371 114.22 807.14 113.726C806.908 113.232 806.862 112.693 807.008 112.177C807.154 111.662 807.485 111.194 807.958 110.834C811.171 108.4 814.595 106.162 818.204 104.136C820.636 102.768 823.208 101.488 825.834 100.226C826.202 100.052 826.608 99.9395 827.029 99.8944C827.451 99.8493 827.879 99.8728 828.289 99.9633C828.699 100.054 829.084 100.21 829.42 100.422C829.757 100.635 830.039 100.899 830.251 101.201C830.463 101.503 830.601 101.836 830.656 102.182C830.711 102.527 830.682 102.878 830.572 103.215C830.461 103.551 830.271 103.866 830.012 104.142C829.753 104.419 829.43 104.65 829.062 104.824C826.576 105.98 824.155 107.224 821.873 108.504C818.521 110.373 815.338 112.437 812.349 114.682C811.734 115.159 810.914 115.419 810.068 115.406L810.111 115.423ZM1204.8 111.893C1204.43 111.898 1204.07 111.847 1203.72 111.743C1197.04 109.872 1190.23 108.063 1183.47 106.368C1182.65 106.163 1181.96 105.698 1181.56 105.077C1181.16 104.457 1181.08 103.731 1181.33 103.059C1181.58 102.387 1182.15 101.825 1182.9 101.495C1183.66 101.166 1184.54 101.097 1185.36 101.303C1192.19 103.015 1199.06 104.833 1205.81 106.739C1206.54 106.942 1207.15 107.351 1207.55 107.892C1207.94 108.433 1208.08 109.072 1207.95 109.693C1207.82 110.313 1207.43 110.876 1206.84 111.279C1206.25 111.682 1205.5 111.9 1204.73 111.893H1204.8ZM356.985 110.366C356.319 110.368 355.668 110.2 355.123 109.886C354.577 109.572 354.163 109.128 353.938 108.613C353.713 108.099 353.687 107.54 353.865 107.013C354.042 106.486 354.414 106.018 354.93 105.671C358.296 103.402 361.487 100.965 364.486 98.3727C366.22 96.8688 367.855 95.2898 369.383 93.6423C369.64 93.3659 369.961 93.1338 370.328 92.9591C370.695 92.7845 371.099 92.6707 371.52 92.6244C371.94 92.5781 372.367 92.6002 372.777 92.6893C373.187 92.7784 373.571 92.9327 373.908 93.1437C374.245 93.3546 374.528 93.6179 374.741 93.9186C374.954 94.2192 375.093 94.5513 375.15 94.8959C375.206 95.2405 375.179 95.5909 375.07 95.927C374.962 96.2631 374.774 96.5784 374.516 96.8548C372.833 98.6483 371.037 100.369 369.135 102.009C365.952 104.765 362.563 107.356 358.987 109.766C358.403 110.138 357.681 110.334 356.942 110.322L356.985 110.366ZM612.825 101.682C612.091 101.685 611.378 101.482 610.803 101.108C610.228 100.733 609.826 100.209 609.663 99.6224C609.5 99.0354 609.586 98.4203 609.907 97.8786C610.227 97.337 610.763 96.9012 611.426 96.643C617.338 94.319 623.232 91.9656 629.108 89.5827L630.658 88.9649C631.428 88.6571 632.316 88.613 633.127 88.8422C633.937 89.0714 634.603 89.5552 634.979 90.1872C635.354 90.8192 635.408 91.5475 635.128 92.212C634.849 92.8765 634.259 93.4228 633.488 93.7306L631.938 94.3483C626.041 96.7017 620.136 99.0551 614.225 101.409C613.791 101.588 613.311 101.682 612.825 101.682ZM1163.88 101.629C1163.6 101.63 1163.31 101.601 1163.03 101.541C1156.23 100.023 1149.28 98.5845 1142.4 97.2519C1141.99 97.1719 1141.6 97.0261 1141.26 96.8227C1140.91 96.6193 1140.62 96.3624 1140.4 96.0665C1140.18 95.7707 1140.03 95.4417 1139.96 95.0984C1139.89 94.7552 1139.91 94.4044 1140 94.0659C1140.1 93.7275 1140.28 93.4082 1140.53 93.1261C1140.77 92.8441 1141.09 92.6048 1141.45 92.4221C1141.81 92.2393 1142.21 92.1167 1142.63 92.0611C1143.05 92.0055 1143.48 92.018 1143.89 92.0979C1150.84 93.4482 1157.88 94.9044 1164.72 96.4312C1165.47 96.6023 1166.12 96.9898 1166.55 97.5224C1166.98 98.0549 1167.16 98.6966 1167.06 99.3294C1166.96 99.9621 1166.58 100.543 1165.99 100.966C1165.41 101.388 1164.66 101.624 1163.88 101.629ZM903.448 101.47C902.897 101.469 902.356 101.353 901.876 101.132C901.395 100.911 900.992 100.593 900.703 100.208C897.788 96.3378 894.487 92.6717 890.835 89.2474L888.833 89.5121C888.257 89.3325 887.733 89.0555 887.296 88.699C886.859 88.3425 886.518 87.9146 886.296 87.443C886.074 86.9714 885.976 86.4668 886.007 85.9619C886.039 85.457 886.2 84.9632 886.479 84.5127C886.759 84.0622 887.151 83.6651 887.63 83.3471C888.11 83.0291 888.665 82.7974 889.261 82.6671C889.856 82.5368 890.479 82.5107 891.088 82.5907C891.696 82.6707 892.277 82.8549 892.793 83.1314C892.955 83.2814 893.127 83.4226 893.299 83.5726L894.214 83.4579C899.143 82.849 904.137 82.2841 909.087 81.7722C909.922 81.7075 910.755 81.912 911.41 82.3421C912.064 82.7723 912.489 83.3946 912.594 84.077C912.699 84.7595 912.476 85.4487 911.972 85.9986C911.468 86.5486 910.723 86.9161 909.894 87.0234C906.041 87.4293 902.167 87.8529 898.314 88.3118C901.181 91.2108 903.816 94.259 906.203 97.4372C906.504 97.8386 906.668 98.2987 906.68 98.7697C906.691 99.2407 906.549 99.7057 906.268 100.117C905.988 100.528 905.578 100.87 905.082 101.108C904.586 101.346 904.022 101.471 903.448 101.47ZM846.83 97.9403C846.073 97.9355 845.342 97.7126 844.765 97.3106C844.188 96.9086 843.801 96.353 843.673 95.7411C843.545 95.1291 843.683 94.4997 844.063 93.9629C844.444 93.426 845.042 93.0157 845.754 92.8039C852.581 90.7809 859.549 89.0923 866.621 87.747C867.042 87.6452 867.484 87.6148 867.919 87.6577C868.355 87.7006 868.775 87.8158 869.155 87.9964C869.534 88.177 869.865 88.4191 870.126 88.708C870.388 88.9968 870.575 89.3264 870.676 89.6766C870.777 90.0267 870.79 90.3901 870.714 90.7445C870.639 91.0989 870.475 91.4368 870.235 91.7378C869.994 92.0387 869.681 92.2963 869.315 92.4948C868.949 92.6933 868.538 92.8285 868.106 92.8922C861.283 94.1961 854.56 95.8286 847.971 97.7814C847.581 97.8638 847.176 97.8878 846.776 97.852L846.83 97.9403ZM279.877 97.852C279.289 97.8417 278.715 97.6997 278.219 97.4415C277.722 97.1833 277.32 96.8187 277.057 96.387C273.433 91.119 270.545 85.5326 268.448 79.7337C268.328 79.3999 268.289 79.0499 268.334 78.7039C268.379 78.3578 268.506 78.0224 268.709 77.7167C268.912 77.411 269.186 77.1411 269.516 76.9223C269.846 76.7036 270.226 76.5404 270.633 76.4418C271.04 76.3433 271.466 76.3115 271.888 76.3482C272.31 76.3849 272.719 76.4894 273.092 76.6558C273.465 76.8222 273.794 77.0471 274.061 77.3178C274.328 77.5885 274.527 77.8996 274.647 78.2334C276.617 83.6503 279.328 88.8669 282.729 93.7836C283.005 94.1861 283.148 94.6408 283.143 95.1025C283.138 95.5643 282.986 96.0171 282.703 96.4159C282.419 96.8147 282.013 97.1456 281.524 97.3759C281.036 97.6061 280.483 97.7277 279.92 97.7285L279.877 97.852ZM1122.29 93.6159C1122.07 93.6201 1121.85 93.6023 1121.64 93.563C1114.72 92.4245 1107.65 91.3565 1100.72 90.3858C1099.91 90.2421 1099.2 89.847 1098.73 89.2826C1098.26 88.7182 1098.08 88.0281 1098.22 87.3559C1098.36 86.6838 1098.81 86.0814 1099.47 85.6743C1100.14 85.2671 1100.97 85.0865 1101.8 85.1701C1108.84 86.1409 1115.95 87.2176 1122.93 88.3737C1123.72 88.5042 1124.42 88.8686 1124.89 89.3962C1125.36 89.9239 1125.58 90.5773 1125.5 91.2299C1125.43 91.8825 1125.05 92.4878 1124.46 92.9286C1123.87 93.3694 1123.1 93.6143 1122.3 93.6159H1122.29ZM1080.11 87.7912C1079.97 87.7999 1079.82 87.7999 1079.67 87.7912C1072.69 87.0145 1065.58 86.3262 1058.55 85.7261C1057.69 85.6547 1056.9 85.3073 1056.36 84.7603C1055.82 84.2133 1055.56 83.5115 1055.65 82.8093C1055.73 82.1071 1056.16 81.462 1056.82 81.016C1057.49 80.5699 1058.35 80.3595 1059.2 80.4309C1066.31 81.0222 1073.49 81.7282 1080.54 82.5137C1080.97 82.5368 1081.38 82.6282 1081.76 82.7827C1082.14 82.9371 1082.48 83.1516 1082.76 83.4138C1083.04 83.6761 1083.26 83.981 1083.39 84.3111C1083.53 84.6412 1083.59 84.99 1083.56 85.3377C1083.53 85.6854 1083.42 86.0251 1083.23 86.3374C1083.04 86.6498 1082.78 86.9287 1082.46 87.1581C1082.14 87.3876 1081.77 87.5632 1081.37 87.6748C1080.96 87.7865 1080.54 87.832 1080.11 87.8088V87.7912ZM651.364 86.4409C650.634 86.4374 649.928 86.2316 649.36 85.857C648.791 85.4824 648.394 84.9609 648.234 84.3777C648.073 83.7945 648.157 83.1838 648.473 82.645C648.79 82.1062 649.319 81.6711 649.975 81.4105C657.175 78.5952 663.546 76.1682 669.443 74.0061C669.832 73.774 670.279 73.6161 670.752 73.544C671.225 73.4718 671.712 73.4873 672.176 73.5891C672.641 73.691 673.072 73.8766 673.438 74.1326C673.804 74.3886 674.096 74.7085 674.291 75.0687C674.487 75.429 674.583 75.8205 674.57 76.2149C674.558 76.6092 674.438 76.9962 674.22 77.3477C674.002 77.6993 673.691 78.0064 673.309 78.2467C672.928 78.4869 672.486 78.6542 672.015 78.7364C666.161 80.8898 659.844 83.2902 652.644 86.0878C652.228 86.2535 651.772 86.3439 651.31 86.3526L651.364 86.4409ZM930.74 85.1789C930.316 85.1946 929.892 85.1415 929.493 85.0229C929.094 84.9043 928.727 84.7224 928.414 84.4876C927.781 84.0134 927.404 83.3527 927.366 82.6505C927.327 81.9483 927.63 81.2623 928.209 80.7434C928.787 80.2246 929.593 79.9153 930.449 79.8837C937.53 79.3454 944.741 78.8953 951.876 78.5423C952.732 78.5001 953.574 78.7386 954.216 79.2054C954.857 79.6721 955.247 80.3288 955.298 81.031C955.349 81.7331 955.058 82.4233 954.489 82.9496C953.92 83.476 953.119 83.7953 952.263 83.8374C945.203 84.1816 938.068 84.6317 931.052 85.1701L930.74 85.1789ZM1037.56 84.208H1037.34C1030.29 83.8021 1023.13 83.4844 1016.08 83.2726C1015.22 83.2457 1014.42 82.941 1013.83 82.4254C1013.25 81.9099 1012.94 81.2257 1012.98 80.5235C1013.01 79.8214 1013.38 79.1586 1014.01 78.6811C1014.64 78.2036 1015.47 77.9505 1016.33 77.9774C1023.45 78.1981 1030.66 78.5157 1037.79 78.9305C1038.64 78.9551 1039.45 79.2577 1040.04 79.7716C1040.62 80.2855 1040.93 80.9686 1040.9 81.6708C1040.87 82.373 1040.5 83.0366 1039.88 83.5158C1039.25 83.9949 1038.42 84.2503 1037.56 84.2257V84.208ZM973.443 83.0785C973.019 83.0831 972.598 83.0192 972.204 82.8904C971.81 82.7616 971.451 82.5705 971.147 82.3279C970.843 82.0854 970.601 81.7961 970.433 81.4766C970.266 81.1572 970.177 80.8138 970.171 80.4661C970.165 80.1184 970.243 79.7733 970.4 79.4503C970.557 79.1273 970.79 78.8328 971.086 78.5836C971.382 78.3345 971.735 78.1357 972.124 77.9983C972.514 77.861 972.932 77.7879 973.356 77.7833C980.481 77.6245 987.691 77.5626 994.88 77.5891C995.736 77.5891 996.557 77.8681 997.163 78.3646C997.768 78.8611 998.109 79.5345 998.109 80.2367C998.109 80.9388 997.768 81.6123 997.163 82.1088C996.557 82.6053 995.736 82.8842 994.88 82.8842C987.81 82.8842 980.664 82.8843 973.604 83.0785H973.443ZM382.62 82.7695C382.191 82.7704 381.767 82.7015 381.372 82.5666C380.98 82.4324 380.624 82.2362 380.325 81.9892C380.026 81.7422 379.789 81.4493 379.628 81.1272C379.467 80.805 379.385 80.4599 379.387 80.1118C379.389 79.7637 379.474 79.4193 379.639 79.0983C382.299 73.891 384.196 68.4429 385.289 62.8685C385.431 62.1745 385.905 61.5554 386.604 61.1474C387.303 60.7394 388.172 60.5761 389.018 60.6931C389.864 60.8101 390.619 61.198 391.116 61.7715C391.614 62.345 391.813 63.0571 391.671 63.751C390.484 69.7354 388.447 75.5852 385.601 81.181C385.326 81.6523 384.887 82.0462 384.339 82.3132C383.791 82.5801 383.159 82.7082 382.523 82.6813L382.62 82.7695ZM874.434 76.0711C873.749 76.0706 873.082 75.8913 872.529 75.5593C866.908 72.1956 860.958 69.2174 854.74 66.6546C854.361 66.4976 854.024 66.2808 853.747 66.0168C853.47 65.7529 853.26 65.4469 853.128 65.1162C852.995 64.7855 852.943 64.4367 852.975 64.0896C853.007 63.7426 853.123 63.4042 853.314 63.0936C853.506 62.783 853.77 62.5063 854.091 62.2794C854.413 62.0526 854.786 61.88 855.19 61.7714C855.593 61.6628 856.018 61.6204 856.442 61.6466C856.865 61.6729 857.278 61.7671 857.656 61.9241C864.186 64.621 870.434 67.7528 876.339 71.2879C876.888 71.6177 877.295 72.0812 877.504 72.6123C877.712 73.1435 877.711 73.715 877.5 74.2454C877.288 74.7758 876.878 75.238 876.328 75.5659C875.777 75.8937 875.115 76.0706 874.434 76.0711ZM690.472 72.188C689.719 72.1916 688.988 71.9793 688.406 71.5876C687.823 71.1959 687.426 70.6496 687.283 70.0433C687.14 69.4369 687.26 68.8087 687.622 68.2672C687.984 67.7258 688.566 67.3052 689.267 67.0782L691.139 66.4692C697.349 64.4482 703.515 62.5773 709.434 60.9093C710.24 60.6986 711.114 60.7555 711.869 61.0679C712.625 61.3803 713.2 61.9232 713.472 62.5799C713.744 63.2366 713.691 63.9546 713.325 64.5796C712.958 65.2046 712.307 65.6866 711.511 65.922C705.657 67.5635 699.587 69.3993 693.474 71.385L691.634 71.9939C691.23 72.0958 690.806 72.1318 690.386 72.0997L690.472 72.188ZM268.147 64.4923C267.307 64.4927 266.5 64.2247 265.897 63.7452C265.295 63.2658 264.943 62.6125 264.918 61.9241C264.918 61.3358 264.918 60.7474 264.918 60.1591C264.92 57.4657 265.121 54.7749 265.521 52.1016C265.959 49.2868 266.679 46.5063 267.673 43.7882C267.939 43.1383 268.502 42.5983 269.244 42.2819C269.985 41.9655 270.848 41.8973 271.649 42.0917C272.451 42.286 273.129 42.7278 273.542 43.324C273.955 43.9202 274.069 44.6244 273.861 45.2885C272.986 47.7284 272.353 50.2224 271.967 52.7459C271.598 55.2054 271.411 57.681 271.408 60.1591C271.408 60.7151 271.408 61.2622 271.408 61.8094C271.419 62.1571 271.347 62.5033 271.195 62.8281C271.043 63.1529 270.815 63.4501 270.523 63.7026C270.231 63.955 269.882 64.1578 269.494 64.2994C269.107 64.441 268.689 64.5185 268.265 64.5277L268.147 64.4923ZM730.969 60.9622C730.184 60.9626 729.427 60.7289 728.837 60.3047C728.248 59.8806 727.866 59.295 727.765 58.6573C727.663 58.0196 727.849 57.3734 728.286 56.8394C728.723 56.3053 729.382 55.9199 730.14 55.7553C737.307 54.1932 744.41 52.8871 751.265 51.8722C751.689 51.7964 752.127 51.7913 752.553 51.8574C752.979 51.9234 753.384 52.0591 753.745 52.2564C754.106 52.4537 754.414 52.7086 754.652 53.0059C754.89 53.3031 755.053 53.6366 755.13 53.9864C755.208 54.3363 755.198 54.6954 755.103 55.0422C755.007 55.389 754.827 55.7166 754.574 56.0052C754.321 56.2938 753.999 56.5376 753.629 56.7222C753.258 56.9067 752.846 57.028 752.417 57.0791C745.734 58.0675 738.792 59.3472 731.808 60.874C731.501 60.9084 731.19 60.9114 730.882 60.8828L730.969 60.9622ZM836.434 60.265C836.094 60.2644 835.756 60.2198 835.433 60.1327C828.803 58.3659 822.022 57.0031 815.147 56.0554C814.714 56.0116 814.297 55.8962 813.92 55.7164C813.543 55.5366 813.214 55.296 812.954 55.0091C812.693 54.7223 812.506 54.3951 812.404 54.0474C812.302 53.6997 812.287 53.3387 812.36 52.986C812.433 52.6334 812.592 52.2965 812.828 51.9957C813.063 51.6949 813.371 51.4363 813.732 51.2357C814.093 51.0352 814.5 50.8967 814.928 50.8286C815.357 50.7605 815.797 50.7643 816.223 50.8396C823.417 51.824 830.511 53.2488 837.446 55.1022C838.174 55.2986 838.794 55.7015 839.194 56.2385C839.593 56.7756 839.747 57.4118 839.626 58.0331C839.506 58.6544 839.119 59.2203 838.536 59.6293C837.953 60.0382 837.212 60.2636 836.445 60.265H836.434ZM773.036 54.8375C772.18 54.8656 771.345 54.6136 770.716 54.1369C770.086 53.6603 769.713 52.998 769.679 52.2958C769.644 51.5936 769.952 50.909 770.533 50.3926C771.114 49.8763 771.922 49.5704 772.778 49.5423C778.051 49.1893 783.314 49.0127 788.415 49.0127C790.438 49.0127 792.472 49.0128 794.474 49.0922C795.33 49.1156 796.14 49.417 796.725 49.93C797.311 50.4431 797.623 51.1259 797.595 51.828C797.566 52.5302 797.199 53.1944 796.573 53.6743C795.948 54.1543 795.115 54.4108 794.259 54.3874C792.311 54.3345 790.341 54.3167 788.372 54.3079C783.443 54.3079 778.364 54.4757 773.305 54.8198L773.036 54.8375ZM389.249 48.448C388.443 48.4509 387.664 48.2061 387.066 47.7619C386.469 47.3176 386.096 46.7059 386.021 46.0474C385.439 40.4828 383.798 35.0274 381.156 29.8795C380.819 29.2335 380.809 28.5042 381.128 27.8521C381.447 27.2 382.069 26.6785 382.857 26.4023C383.644 26.1261 384.534 26.1178 385.329 26.3793C386.124 26.6408 386.76 27.1507 387.097 27.7968C390.001 33.4514 391.816 39.4416 392.478 45.5533C392.518 45.8999 392.474 46.2495 392.349 46.5822C392.224 46.9149 392.02 47.2242 391.749 47.4922C391.478 47.7603 391.146 47.9819 390.77 48.1444C390.395 48.3069 389.984 48.4071 389.561 48.4392L389.249 48.448ZM279.974 31.424C279.384 31.4248 278.805 31.293 278.3 31.043C277.795 30.793 277.383 30.4344 277.109 30.006C276.835 29.5776 276.71 29.0958 276.746 28.6129C276.783 28.1301 276.979 27.6647 277.316 27.2673C281.551 22.2524 286.623 17.7488 292.382 13.8881C293.044 13.4422 293.896 13.2302 294.748 13.2989C295.601 13.3676 296.385 13.7113 296.929 14.2544C297.473 14.7974 297.731 15.4952 297.648 16.1945C297.564 16.8937 297.145 17.5371 296.483 17.983C291.165 21.5009 286.473 25.6122 282.546 30.1972C282.249 30.5508 281.853 30.8399 281.39 31.0398C280.926 31.2396 280.411 31.3443 279.888 31.3446L279.974 31.424ZM372.256 17.0475C371.409 17.0446 370.598 16.7688 369.996 16.2797C367.485 14.26 364.714 12.4699 361.731 10.9404C359.057 9.56523 356.215 8.42338 353.251 7.53379C352.446 7.2927 351.791 6.79936 351.43 6.16216C351.068 5.52496 351.031 4.79612 351.325 4.13607C351.619 3.47601 352.22 2.93874 352.997 2.64249C353.774 2.34623 354.663 2.31533 355.468 2.55641C358.853 3.57718 362.099 4.88444 365.154 6.45713C368.535 8.18887 371.674 10.219 374.516 12.5113C374.974 12.88 375.287 13.3523 375.416 13.8678C375.545 14.3833 375.484 14.9186 375.24 15.4054C374.997 15.8921 374.582 16.3084 374.048 16.6008C373.515 16.8933 372.887 17.0488 372.245 17.0475H372.256ZM312.668 9.50192C311.924 9.50279 311.202 9.29259 310.624 8.90692C310.047 8.52126 309.65 7.98381 309.501 7.38566C309.351 6.7875 309.459 6.16531 309.804 5.62458C310.15 5.08385 310.713 4.65783 311.398 4.41854C318.284 1.95764 325.626 0.465864 333.116 0.00588333C333.54 -0.0172958 333.965 0.0281534 334.368 0.139793C334.77 0.251432 335.142 0.427008 335.462 0.656469C335.781 0.885931 336.043 1.16481 336.231 1.47716C336.42 1.78951 336.531 2.12922 336.559 2.4769C336.588 2.82459 336.532 3.17349 336.396 3.50358C336.26 3.83367 336.046 4.13852 335.766 4.40076C335.486 4.663 335.146 4.87749 334.765 5.03196C334.384 5.18642 333.97 5.27789 333.546 5.30107C326.781 5.7051 320.148 7.04486 313.927 9.26362C313.494 9.3955 313.032 9.44961 312.571 9.42241L312.668 9.50192Z" fill="#FF0401" fill-opacity="0.3"/>
</svg>
