<svg width="338" height="56" viewBox="0 0 338 56" fill="none" xmlns="http://www.w3.org/2000/svg">
<path d="M332.859 12.5658C322.717 12.5658 332.859 24.8585 332.859 24.8585C332.859 24.8585 343 12.5658 332.859 12.5658ZM332.859 20.3417C332.181 20.3417 331.518 20.1394 330.955 19.7604C330.391 19.3815 329.952 18.8428 329.693 18.2126C329.433 17.5825 329.366 16.889 329.498 16.22C329.63 15.551 329.956 14.9365 330.436 14.4541C330.915 13.9718 331.525 13.6433 332.19 13.5103C332.855 13.3772 333.544 13.4455 334.17 13.7065C334.796 13.9675 335.331 14.4096 335.708 14.9768C336.084 15.5439 336.285 16.2107 336.285 16.8928C336.285 17.8075 335.924 18.6847 335.281 19.3315C334.639 19.9783 333.767 20.3417 332.859 20.3417Z" fill="#FF0401"/>
<path d="M332.995 13.9316C332.401 13.9316 331.82 14.1079 331.326 14.4381C330.832 14.7682 330.446 15.2375 330.219 15.7866C329.992 16.3357 329.932 16.9398 330.048 17.5227C330.164 18.1056 330.45 18.641 330.87 19.0613C331.291 19.4815 331.826 19.7677 332.409 19.8837C332.992 19.9996 333.596 19.9401 334.145 19.7126C334.694 19.4852 335.163 19.1001 335.494 18.6059C335.824 18.1118 336 17.5308 336 16.9365C336 16.5418 335.923 16.1509 335.772 15.7862C335.621 15.4215 335.4 15.0902 335.121 14.8111C334.841 14.532 334.51 14.3107 334.145 14.1598C333.781 14.0089 333.39 13.9313 332.995 13.9316ZM332.995 19.4562C332.496 19.4562 332.009 19.3082 331.594 19.031C331.179 18.7538 330.856 18.3598 330.665 17.8989C330.474 17.4379 330.424 16.9307 330.522 16.4415C330.619 15.9522 330.86 15.5029 331.213 15.1503C331.566 14.7977 332.015 14.5577 332.504 14.4606C332.994 14.3635 333.501 14.4138 333.962 14.605C334.422 14.7962 334.816 15.1198 335.093 15.5348C335.37 15.9498 335.517 16.4376 335.517 16.9365C335.517 17.2678 335.452 17.5958 335.326 17.9019C335.199 18.208 335.013 18.4862 334.779 18.7204C334.545 18.9546 334.267 19.1404 333.961 19.267C333.654 19.3937 333.326 19.4587 332.995 19.4584V19.4562Z" fill="#FF0401"/>
<path d="M334.088 27.1781C334.088 27.4213 334.017 27.6592 333.882 27.8617C333.747 28.0641 333.555 28.2221 333.331 28.3155C333.106 28.4089 332.859 28.4335 332.62 28.3864C332.382 28.3392 332.162 28.2223 331.99 28.0505C331.818 27.8787 331.701 27.6596 331.653 27.4211C331.605 27.1826 331.63 26.9353 331.723 26.7106C331.816 26.4858 331.973 26.2937 332.175 26.1585C332.378 26.0233 332.615 25.9512 332.859 25.9512C333.184 25.9512 333.496 26.0804 333.727 26.3104C333.957 26.5404 334.087 26.8525 334.088 27.1781Z" fill="#FF0401"/>
<path d="M8.18822 51.0828C8.73874 51.0811 9.27917 50.9344 9.7555 50.6574C10.2318 50.3804 10.6274 49.9828 10.9027 49.5044L16.6236 39.5826C16.8187 39.2434 17.0985 38.9611 17.4354 38.7634C17.7722 38.5657 18.1546 38.4595 18.5448 38.4551L22.8996 38.4145C23.9852 38.4051 25.0546 38.1492 26.0275 37.6659L26.659 37.3524C26.7741 37.2976 26.8714 37.211 26.9396 37.1028C27.0077 36.9947 27.0439 36.8693 27.0439 36.7414C27.0439 36.6134 27.0077 36.4881 26.9396 36.3799C26.8714 36.2717 26.7741 36.1852 26.659 36.1303L26.0275 35.8168C25.0541 35.3348 23.985 35.0789 22.8996 35.0682L18.5448 35.0276C18.1546 35.0233 17.7722 34.917 17.4354 34.7193C17.0985 34.5216 16.8187 34.2393 16.6236 33.9001L10.9027 23.9784C10.6274 23.4999 10.2318 23.1023 9.7555 22.8253C9.27917 22.5484 8.73874 22.4017 8.18822 22.3999C10.5207 26.7181 11.8487 32.0962 12.3363 34.3511C12.3518 34.4231 12.351 34.4976 12.3339 34.5692C12.3167 34.6408 12.2837 34.7076 12.2373 34.7646C12.1908 34.8216 12.1322 34.8673 12.0657 34.8984C11.9992 34.9295 11.9265 34.9452 11.8532 34.9442L11.6285 34.0219C11.573 33.8054 11.4378 33.618 11.2502 33.4975C11.0626 33.377 10.8364 33.3323 10.6173 33.3725L9.39713 33.598C9.23211 33.6287 9.08192 33.7136 8.97019 33.8392C8.85199 33.9685 8.69351 34.0536 8.52078 34.0805L8.07137 34.1482L8.56349 34.2361C8.71655 34.2627 8.85774 34.3359 8.96794 34.4458L9.15221 34.633L9.45556 34.9261H8.53203C7.93912 34.9194 7.34781 34.9892 6.7726 35.1336L3.86716 35.8912L2.70542 32.7546C2.58491 32.4282 2.35791 32.1523 2.06132 31.9717C1.76473 31.7912 1.41601 31.7166 1.07185 31.7602L0 31.8955L1.68978 36.4347L0.883074 36.6376C0.854389 36.6443 0.828813 36.6605 0.810494 36.6837C0.792176 36.7068 0.782187 36.7355 0.782187 36.765C0.782187 36.7946 0.792176 36.8233 0.810494 36.8464C0.828813 36.8695 0.854389 36.8858 0.883074 36.8924L1.68978 37.0931L0 41.6323L1.07857 41.7699C1.421 41.8137 1.76815 41.7405 2.06409 41.5621C2.36003 41.3838 2.58753 41.1106 2.70992 40.7867L3.89862 37.6456L6.7636 38.3627C7.33893 38.5067 7.93009 38.5772 8.52303 38.5724H9.44656L9.14322 38.8655L8.95897 39.0504C8.84898 39.161 8.70778 39.235 8.55449 39.2624L8.0624 39.3481L8.51181 39.4157C8.68508 39.4426 8.84381 39.5286 8.96122 39.6593C9.07307 39.7844 9.22329 39.8685 9.38814 39.8983L10.6083 40.1238C10.8271 40.164 11.053 40.1196 11.2406 39.9996C11.4281 39.8795 11.5635 39.6927 11.6195 39.4766L11.8442 38.5544C11.9175 38.5534 11.9902 38.569 12.0567 38.6001C12.1232 38.6312 12.1819 38.6769 12.2283 38.7339C12.2747 38.7909 12.3077 38.8577 12.3249 38.9293C12.342 39.0009 12.3428 39.0754 12.3273 39.1474C11.8487 41.3753 10.5207 46.7669 8.18822 51.0828Z" fill="#4F4F4F"/>
<path d="M232.105 56C231.564 56 231.012 55.9807 230.471 55.9446C230.355 55.9366 230.242 55.9101 230.139 55.8664C230.035 55.8228 229.944 55.7629 229.869 55.6901C229.794 55.6174 229.737 55.5332 229.701 55.4424C229.666 55.3516 229.653 55.256 229.662 55.161C229.672 55.0661 229.704 54.9736 229.757 54.8889C229.811 54.8041 229.884 54.7288 229.973 54.6673C230.061 54.6057 230.164 54.5591 230.275 54.5301C230.385 54.501 230.502 54.4902 230.618 54.4981C232.466 54.6282 234.328 54.511 236.13 54.1509C236.354 54.1102 236.589 54.1429 236.785 54.2422C236.98 54.3414 237.121 54.4993 237.176 54.6822C237.232 54.8651 237.198 55.0586 237.082 55.2215C236.966 55.3843 236.778 55.5036 236.556 55.554C235.1 55.8511 233.605 56.0009 232.105 56ZM224.876 54.8525C224.765 54.8522 224.654 54.8351 224.55 54.8018C222.647 54.1881 220.874 53.334 219.294 52.2705C219.199 52.2115 219.12 52.1375 219.061 52.0528C219.002 51.9681 218.964 51.8745 218.95 51.7776C218.937 51.6807 218.947 51.5826 218.981 51.489C219.015 51.3955 219.071 51.3086 219.147 51.2334C219.223 51.1582 219.316 51.0964 219.422 51.0517C219.528 51.0069 219.643 50.9801 219.762 50.973C219.88 50.9658 219.999 50.9784 220.112 51.01C220.225 51.0415 220.328 51.0914 220.417 51.1567C221.857 52.1222 223.471 52.8982 225.203 53.4566C225.394 53.5185 225.552 53.6332 225.651 53.7809C225.75 53.9285 225.783 54.0999 225.745 54.2654C225.706 54.4309 225.598 54.5801 225.439 54.6873C225.281 54.7944 225.082 54.8529 224.876 54.8525ZM241.633 53.5916C241.491 53.5917 241.351 53.5637 241.225 53.51C241.1 53.4562 240.991 53.3784 240.91 53.283C240.843 53.2052 240.796 53.1173 240.771 53.0245C240.746 52.9317 240.744 52.8358 240.764 52.7422C240.784 52.6486 240.827 52.5592 240.889 52.4791C240.951 52.399 241.032 52.3297 241.127 52.2753C242.649 51.3986 243.995 50.3331 245.117 49.1171C245.187 49.0416 245.275 48.9782 245.375 48.9305C245.475 48.8828 245.586 48.8517 245.7 48.8391C245.815 48.8264 245.932 48.8324 246.044 48.8568C246.156 48.8811 246.261 48.9233 246.353 48.9809C246.445 49.0385 246.522 49.1105 246.581 49.1926C246.639 49.2747 246.677 49.3654 246.692 49.4596C246.708 49.5537 246.7 49.6494 246.67 49.7412C246.641 49.833 246.589 49.9192 246.519 49.9947C245.286 51.3296 243.807 52.4992 242.136 53.4614C241.986 53.5486 241.805 53.5942 241.621 53.5916H241.633ZM216.13 48.7941C215.972 48.7943 215.817 48.7597 215.681 48.6939C215.545 48.6282 215.433 48.5337 215.357 48.4204C214.478 47.1223 213.906 45.7 213.67 44.228C213.634 44.011 213.608 43.7916 213.584 43.5747C213.566 43.3829 213.641 43.1928 213.793 43.0463C213.945 42.8998 214.162 42.8089 214.396 42.7936C214.63 42.7782 214.861 42.8397 215.04 42.9645C215.219 43.0893 215.33 43.2671 215.348 43.459C215.366 43.6542 215.389 43.8471 215.422 44.0399C215.625 45.3313 216.123 46.5795 216.892 47.7189C216.948 47.8019 216.984 47.8933 216.997 47.9877C217.01 48.0822 217 48.1778 216.968 48.2691C216.936 48.3605 216.883 48.4458 216.811 48.5201C216.738 48.5945 216.649 48.6565 216.548 48.7025C216.417 48.7625 216.269 48.794 216.119 48.7941H216.13ZM248.683 46.1205C248.57 46.1197 248.458 46.1017 248.354 46.0675C248.246 46.0319 248.148 45.9793 248.065 45.9127C247.982 45.8461 247.916 45.7667 247.871 45.6792C247.826 45.5916 247.802 45.4976 247.801 45.4024C247.8 45.3073 247.822 45.213 247.865 45.1248C248.568 43.694 249.061 42.2002 249.335 40.6745C249.348 40.5775 249.384 40.4837 249.442 40.3986C249.5 40.3135 249.579 40.2389 249.673 40.1792C249.767 40.1195 249.874 40.0761 249.989 40.0514C250.104 40.0268 250.224 40.0214 250.342 40.0357C250.459 40.05 250.572 40.0837 250.674 40.1347C250.775 40.1856 250.863 40.2529 250.931 40.3324C251 40.4119 251.049 40.5019 251.074 40.5971C251.099 40.6924 251.101 40.7909 251.079 40.8866C250.788 42.5255 250.261 44.1303 249.509 45.6672C249.442 45.8037 249.326 45.9202 249.176 46.0011C249.027 46.0821 248.85 46.1237 248.671 46.1205H248.683ZM111.485 40.4527C111.369 40.4538 111.254 40.4362 111.147 40.4008C111.039 40.3655 110.941 40.3132 110.858 40.2468C110.691 40.1127 110.595 39.9297 110.593 39.7379C110.591 39.6429 110.613 39.5486 110.656 39.4604C110.699 39.3723 110.763 39.2919 110.844 39.224C111.007 39.0868 111.23 39.0084 111.464 39.0062C113.302 38.97 115.242 38.8712 117.229 38.7096C117.463 38.6908 117.697 38.7489 117.878 38.8712C118.06 38.9935 118.175 39.17 118.198 39.3618C118.221 39.5536 118.15 39.745 118.001 39.894C117.852 40.043 117.637 40.1373 117.403 40.1561C115.371 40.3225 113.387 40.4237 111.505 40.4599L111.485 40.4527ZM105.649 40.3418H105.585C103.607 40.2257 101.639 40.0157 99.6904 39.7125C99.5739 39.6971 99.4624 39.6627 99.3624 39.6113C99.2625 39.5598 99.1761 39.4925 99.1085 39.4132C99.0408 39.3339 98.9932 39.2443 98.9686 39.1497C98.9439 39.055 98.9427 38.9573 98.9649 38.8623C98.9872 38.7673 99.0324 38.6769 99.098 38.5964C99.1636 38.516 99.2483 38.4472 99.3469 38.3941C99.4455 38.341 99.5561 38.3046 99.6722 38.2872C99.7883 38.2697 99.9074 38.2716 100.023 38.2926C101.903 38.5851 103.802 38.7872 105.711 38.8977C105.945 38.9044 106.166 38.987 106.326 39.1274C106.485 39.2678 106.57 39.4544 106.562 39.6462C106.554 39.8381 106.453 40.0194 106.282 40.1502C106.111 40.2811 105.883 40.3509 105.649 40.3442V40.3418ZM41.247 39.7391C41.0131 39.7391 40.7888 39.6629 40.6234 39.5272C40.458 39.3916 40.3651 39.2076 40.3651 39.0158C40.3651 38.824 40.458 38.64 40.6234 38.5044C40.7888 38.3688 41.0131 38.2926 41.247 38.2926C43.1814 38.2926 45.1393 38.2564 47.0649 38.2082C47.2988 38.2024 47.5259 38.2731 47.6963 38.4047C47.8666 38.5363 47.9663 38.7179 47.9733 38.9098C47.9803 39.1016 47.8941 39.2878 47.7337 39.4275C47.5732 39.5672 47.3517 39.6489 47.1178 39.6547C45.1775 39.7029 43.2049 39.7318 41.2558 39.7391H41.247ZM35.4056 39.7053H35.388C33.4389 39.674 31.4663 39.6233 29.526 39.5534C29.4102 39.5491 29.2965 39.5262 29.1915 39.4859C29.0865 39.4456 28.9922 39.3888 28.914 39.3186C28.8358 39.2484 28.7752 39.1663 28.7357 39.0769C28.6962 38.9875 28.6785 38.8926 28.6838 38.7976C28.689 38.7027 28.7169 38.6095 28.7661 38.5234C28.8152 38.4372 28.8845 38.3599 28.9701 38.2957C29.0557 38.2316 29.1559 38.1819 29.2649 38.1495C29.3739 38.1171 29.4896 38.1027 29.6054 38.1069C31.531 38.1768 33.4859 38.2275 35.4233 38.2564C35.5391 38.2574 35.6535 38.277 35.7601 38.3142C35.8667 38.3515 35.9632 38.4055 36.0443 38.4734C36.1254 38.5412 36.1894 38.6214 36.2326 38.7095C36.2759 38.7977 36.2975 38.8919 36.2964 38.9869C36.2952 39.0819 36.2713 39.1757 36.2259 39.2631C36.1805 39.3505 36.1146 39.4297 36.0318 39.4962C35.9491 39.5627 35.8513 39.6152 35.7438 39.6506C35.6364 39.6861 35.5214 39.7038 35.4056 39.7029V39.7053ZM123.109 39.5341C122.875 39.5492 122.643 39.4874 122.465 39.3624C122.287 39.2374 122.176 39.0594 122.158 38.8676C122.14 38.6757 122.215 38.4858 122.367 38.3395C122.52 38.1933 122.737 38.1027 122.971 38.0877C123.961 37.9599 124.99 37.8128 126.022 37.6561C126.904 37.5235 127.786 37.3813 128.668 37.2342C128.782 37.2152 128.899 37.2148 129.012 37.2328C129.126 37.2509 129.234 37.2872 129.331 37.3395C129.428 37.3919 129.511 37.4594 129.575 37.5381C129.64 37.6169 129.686 37.7053 129.709 37.7983C129.732 37.8914 129.733 37.9873 129.71 38.0806C129.688 38.1739 129.644 38.2626 129.58 38.3419C129.516 38.4211 129.434 38.4893 129.338 38.5425C129.242 38.5957 129.134 38.6328 129.021 38.6518C128.139 38.8013 127.219 38.9435 126.331 39.0785C125.284 39.2376 124.244 39.3847 123.235 39.5173C123.19 39.5252 123.144 39.5308 123.097 39.5341H123.109ZM215.084 39.5028C214.947 39.5031 214.812 39.4772 214.689 39.4273C214.567 39.3774 214.46 39.3048 214.378 39.2152C214.295 39.1256 214.239 39.0215 214.214 38.9112C214.189 38.8009 214.196 38.6873 214.234 38.5795C214.811 36.977 215.673 35.4531 216.792 34.0568C216.929 33.9157 217.125 33.8215 217.342 33.7928C217.559 33.7641 217.781 33.8029 217.965 33.9015C218.149 34.0002 218.281 34.1516 218.336 34.3262C218.391 34.5007 218.364 34.6858 218.262 34.8451C217.234 36.1218 216.442 37.5158 215.91 38.9821C215.857 39.1311 215.747 39.2622 215.596 39.356C215.445 39.4498 215.261 39.5013 215.072 39.5028H215.084ZM52.9269 39.4522C52.693 39.4573 52.4662 39.386 52.2963 39.254C52.1265 39.122 52.0277 38.94 52.0214 38.7482C52.0152 38.5564 52.1021 38.3704 52.2631 38.2312C52.4241 38.0919 52.646 38.0108 52.8799 38.0057C54.8142 37.9189 56.7692 37.8128 58.686 37.6875C58.9191 37.6721 59.1501 37.7334 59.3281 37.8577C59.5062 37.982 59.6168 38.1593 59.6355 38.3504C59.6542 38.5416 59.5795 38.731 59.4279 38.8771C59.2763 39.0231 59.0602 39.1138 58.8271 39.1291C56.8956 39.2545 54.9259 39.3702 52.9739 39.4498L52.9269 39.4522ZM64.5744 38.6928C64.3405 38.7027 64.1114 38.636 63.9374 38.5073C63.7635 38.3787 63.659 38.1987 63.6469 38.0069C63.6348 37.8151 63.7161 37.6272 63.873 37.4845C64.0298 37.3419 64.2494 37.2562 64.4833 37.2463C65.8091 37.133 67.1497 37.0052 68.4696 36.8774L70.26 36.6894C70.4939 36.6641 70.7304 36.7161 70.9176 36.8339C71.1048 36.9516 71.2272 37.1256 71.258 37.3174C71.2888 37.5092 71.2254 37.7032 71.0818 37.8567C70.9382 38.0102 70.7261 38.1106 70.4922 38.1359C69.8866 38.201 69.284 38.2661 68.6813 38.3263C67.3525 38.4565 66.0002 38.5819 64.6655 38.6976L64.5744 38.6928ZM94.2106 38.5071C94.1106 38.5084 94.0111 38.4953 93.9166 38.4686C92.97 38.2058 92.0293 37.9092 91.1238 37.591C90.2183 37.2728 89.307 36.9112 88.4221 36.5158C88.3204 36.4704 88.2306 36.4089 88.1578 36.3351C88.085 36.2612 88.0307 36.1762 87.9979 36.0851C87.9652 35.994 87.9546 35.8985 87.9668 35.804C87.9791 35.7096 88.0139 35.618 88.0693 35.5346C88.1247 35.4512 88.1996 35.3775 88.2897 35.3178C88.3799 35.2582 88.4834 35.2136 88.5945 35.1867C88.7056 35.1599 88.8221 35.1512 88.9373 35.1613C89.0525 35.1713 89.1641 35.1999 89.2658 35.2453C90.1007 35.619 90.9592 35.9685 91.8176 36.2602C92.676 36.552 93.5815 36.8461 94.484 37.0992C94.6826 37.1546 94.8507 37.2663 94.9579 37.4142C95.0652 37.562 95.1047 37.7364 95.0693 37.906C95.0339 38.0756 94.9259 38.2293 94.7647 38.3395C94.6036 38.4496 94.3998 38.5091 94.19 38.5071H94.2106ZM134.557 37.6296C134.34 37.6303 134.131 37.5656 133.968 37.4479C133.806 37.3302 133.703 37.1677 133.677 36.9913C133.652 36.8149 133.706 36.637 133.831 36.4916C133.955 36.3461 134.14 36.2431 134.351 36.2024C136.22 35.8287 138.111 35.4213 139.966 34.997C140.078 34.9686 140.196 34.9589 140.313 34.9685C140.43 34.978 140.543 35.0066 140.646 35.0526C140.75 35.0985 140.841 35.1609 140.914 35.2361C140.987 35.3113 141.042 35.3978 141.074 35.4904C141.106 35.5831 141.115 35.6801 141.101 35.7757C141.087 35.8713 141.049 35.9636 140.991 36.0472C140.933 36.1308 140.855 36.204 140.761 36.2626C140.668 36.3211 140.562 36.3637 140.448 36.388C138.572 36.8268 136.658 37.239 134.765 37.6175C134.693 37.6296 134.619 37.6337 134.545 37.6296H134.557ZM76.1455 37.3885C75.9254 37.3888 75.7131 37.3216 75.5504 37.2001C75.3877 37.0786 75.2862 36.9116 75.2659 36.7318C75.2457 36.5521 75.3081 36.3727 75.4409 36.2288C75.5737 36.0849 75.7674 35.9869 75.9838 35.9541C78.0093 35.6431 79.8526 35.3032 81.6194 34.9126C81.8455 34.8631 82.0864 34.8892 82.289 34.9853C82.4916 35.0813 82.6393 35.2395 82.6998 35.4249C82.7602 35.6103 82.7283 35.8078 82.6112 35.974C82.494 36.1401 82.3012 36.2613 82.0751 36.3109C80.2641 36.7087 78.3797 37.0582 76.3101 37.3764C76.2517 37.3828 76.1927 37.3853 76.1337 37.3837L76.1455 37.3885ZM250.397 36.728C250.175 36.7285 249.96 36.6603 249.797 36.537C249.633 36.4136 249.533 36.2442 249.515 36.0626C249.37 34.525 249.004 33.0069 248.424 31.5399C248.361 31.3599 248.386 31.1671 248.493 31.0019C248.601 30.8366 248.782 30.7119 248.999 30.6538C249.215 30.5958 249.451 30.609 249.657 30.6906C249.862 30.7722 250.021 30.9159 250.1 31.0915C250.725 32.6667 251.12 34.2975 251.276 35.9493C251.294 36.14 251.219 36.3288 251.067 36.4743C250.915 36.6198 250.7 36.7102 250.467 36.7255L250.397 36.728ZM145.795 35.0163C145.584 35.0177 145.379 34.9569 145.218 34.845C145.057 34.7331 144.95 34.5775 144.917 34.4064C144.884 34.2354 144.927 34.0603 145.038 33.9129C145.149 33.7656 145.321 33.6558 145.522 33.6035C147.362 33.1214 149.209 32.5886 151.011 32.0437C151.23 31.9772 151.473 31.985 151.685 32.0652C151.898 32.1455 152.063 32.2917 152.144 32.4717C152.225 32.6516 152.216 32.8507 152.118 33.025C152.02 33.1993 151.842 33.3345 151.622 33.401C149.796 33.9507 147.93 34.4835 146.069 34.9801C145.976 35.0025 145.88 35.0122 145.784 35.009L145.795 35.0163ZM87.4049 34.8572C87.2 34.8565 87.0017 34.7972 86.8442 34.6897C86.6867 34.5821 86.5799 34.4329 86.5419 34.2677C86.504 34.1026 86.5374 33.9317 86.6364 33.7845C86.7354 33.6374 86.8939 33.5231 87.0845 33.4613C88.8645 32.8998 90.5944 32.2368 92.2615 31.4772C92.4645 31.3928 92.6994 31.3761 92.9171 31.4304C93.1348 31.4848 93.3184 31.606 93.4296 31.7688C93.5409 31.9316 93.571 32.1234 93.5139 32.304C93.4567 32.4847 93.3166 32.6401 93.1228 32.738C91.3842 33.5314 89.5796 34.2234 87.7224 34.809C87.617 34.8405 87.5053 34.8552 87.3932 34.8523L87.4049 34.8572ZM84.0036 33.9483C83.8026 33.9484 83.6077 33.8923 83.4509 33.7892C81.8917 32.7584 80.4492 31.6143 79.1411 30.3706C78.9883 30.2252 78.9122 30.0359 78.9296 29.8444C78.947 29.6529 79.0564 29.475 79.2337 29.3497C79.4111 29.2243 79.6419 29.1619 79.8754 29.1762C80.1089 29.1904 80.326 29.2801 80.4788 29.4256C81.717 30.6036 83.0827 31.6872 84.5592 32.6633C84.7007 32.7575 84.8033 32.8853 84.8526 33.0291C84.902 33.173 84.8958 33.3259 84.8349 33.4668C84.774 33.6076 84.6614 33.7296 84.5125 33.8158C84.3636 33.902 84.1858 33.9483 84.0036 33.9483ZM156.761 31.7062C156.556 31.7075 156.356 31.6501 156.197 31.5438C156.038 31.4376 155.929 31.2892 155.889 31.1241C155.849 30.9591 155.881 30.7878 155.978 30.6397C156.075 30.4916 156.233 30.376 156.423 30.3128C157.087 30.0886 157.752 29.862 158.41 29.6281C159.489 29.2496 160.583 28.8542 161.756 28.4227C161.862 28.3798 161.977 28.3547 162.095 28.3491C162.213 28.3435 162.331 28.3574 162.443 28.39C162.554 28.4225 162.656 28.4732 162.743 28.5388C162.83 28.6044 162.9 28.6838 162.949 28.772C162.998 28.8603 163.025 28.9557 163.028 29.0527C163.031 29.1496 163.01 29.246 162.967 29.3362C162.923 29.4264 162.858 29.5086 162.776 29.5778C162.693 29.647 162.594 29.7018 162.485 29.739C161.309 30.1802 160.195 30.5804 159.107 30.9637C158.437 31.1983 157.766 31.429 157.096 31.6556C156.985 31.6904 156.867 31.7061 156.749 31.7014L156.761 31.7062ZM221.298 31.5302C221.122 31.5283 220.951 31.4832 220.806 31.4005C220.661 31.3179 220.55 31.2016 220.487 31.0667C220.424 30.9318 220.411 30.7844 220.451 30.6435C220.491 30.5027 220.581 30.3749 220.711 30.2766C221.588 29.6118 222.523 29.0003 223.509 28.4468C224.174 28.0731 224.876 27.7236 225.594 27.3788C225.694 27.3313 225.805 27.3005 225.92 27.2882C226.035 27.2759 226.152 27.2823 226.264 27.3071C226.376 27.3318 226.481 27.3744 226.573 27.4324C226.665 27.4904 226.742 27.5627 226.8 27.6452C226.858 27.7277 226.896 27.8187 226.911 27.9131C226.926 28.0074 226.918 28.1033 226.888 28.1952C226.858 28.2871 226.806 28.3732 226.735 28.4487C226.664 28.5241 226.576 28.5874 226.475 28.6349C225.796 28.9507 225.135 29.2906 224.512 29.6402C223.596 30.1505 222.726 30.7145 221.91 31.3277C221.742 31.4581 221.518 31.5291 221.287 31.5254L221.298 31.5302ZM329.116 30.5659C329.016 30.5672 328.916 30.5534 328.822 30.5249C326.996 30.0138 325.135 29.5196 323.289 29.0568C323.065 29.0005 322.878 28.8736 322.768 28.7041C322.659 28.5345 322.636 28.3362 322.704 28.1527C322.773 27.9692 322.928 27.8155 323.134 27.7256C323.341 27.6356 323.583 27.6167 323.807 27.6729C325.67 28.1406 327.549 28.6373 329.392 29.158C329.591 29.2134 329.759 29.3251 329.866 29.4729C329.973 29.6208 330.013 29.7952 329.978 29.9648C329.942 30.1344 329.834 30.288 329.673 30.3982C329.512 30.5084 329.308 30.5678 329.098 30.5659H329.116ZM97.5179 30.1488C97.3358 30.1492 97.1581 30.1034 97.009 30.0177C96.86 29.932 96.747 29.8105 96.6855 29.67C96.6239 29.5295 96.617 29.3768 96.6655 29.2329C96.714 29.089 96.8156 28.9609 96.9564 28.8663C97.8758 28.2465 98.7477 27.5806 99.5669 26.8725C100.041 26.4617 100.487 26.0304 100.905 25.5803C100.975 25.5048 101.063 25.4414 101.163 25.3937C101.263 25.346 101.373 25.3149 101.488 25.3023C101.603 25.2896 101.72 25.2957 101.832 25.32C101.944 25.3443 102.049 25.3865 102.141 25.4441C102.233 25.5017 102.31 25.5737 102.368 25.6558C102.426 25.7379 102.464 25.8286 102.48 25.9228C102.495 26.0169 102.488 26.1126 102.458 26.2044C102.429 26.2963 102.377 26.3824 102.307 26.4579C101.847 26.9478 101.356 27.4178 100.837 27.8658C99.9674 28.6187 99.0415 29.3264 98.0647 29.9849C97.9052 30.0865 97.708 30.1401 97.5061 30.1368L97.5179 30.1488ZM167.406 27.7766C167.205 27.7773 167.011 27.722 166.853 27.6197C166.696 27.5174 166.587 27.3743 166.542 27.2139C166.498 27.0536 166.521 26.8855 166.609 26.7376C166.696 26.5896 166.843 26.4706 167.024 26.4C168.639 25.7652 170.249 25.1223 171.854 24.4714L172.277 24.3026C172.488 24.2185 172.73 24.2065 172.952 24.2691C173.173 24.3317 173.355 24.4639 173.458 24.6365C173.56 24.8091 173.575 25.0081 173.498 25.1896C173.422 25.3711 173.261 25.5204 173.05 25.6045L172.627 25.7732C171.016 26.4161 169.403 27.059 167.788 27.7018C167.67 27.751 167.539 27.7766 167.406 27.7766ZM317.939 27.7621C317.86 27.7624 317.782 27.7543 317.707 27.738C315.849 27.3234 313.949 26.9304 312.071 26.5664C311.958 26.5445 311.852 26.5047 311.758 26.4491C311.664 26.3936 311.584 26.3234 311.523 26.2426C311.462 26.1617 311.422 26.0719 311.403 25.9781C311.384 25.8843 311.389 25.7885 311.415 25.6961C311.442 25.6036 311.491 25.5164 311.558 25.4393C311.626 25.3623 311.712 25.2969 311.81 25.247C311.909 25.1971 312.018 25.1636 312.133 25.1484C312.247 25.1332 312.364 25.1366 312.477 25.1585C314.376 25.5273 316.298 25.9251 318.168 26.3422C318.373 26.3889 318.55 26.4948 318.667 26.6403C318.785 26.7857 318.834 26.961 318.806 27.1339C318.778 27.3067 318.675 27.4655 318.515 27.5809C318.356 27.6963 318.151 27.7607 317.939 27.7621ZM246.795 27.7187C246.645 27.7185 246.497 27.6867 246.366 27.6263C246.235 27.566 246.124 27.4791 246.046 27.374C245.249 26.3167 244.348 25.3152 243.35 24.3798L242.803 24.4521C242.646 24.403 242.503 24.3274 242.383 24.23C242.264 24.1326 242.171 24.0157 242.11 23.8869C242.05 23.758 242.023 23.6202 242.031 23.4823C242.04 23.3444 242.084 23.2095 242.16 23.0864C242.237 22.9633 242.344 22.8548 242.475 22.768C242.605 22.6811 242.757 22.6178 242.92 22.5822C243.083 22.5466 243.253 22.5395 243.419 22.5614C243.585 22.5832 243.744 22.6335 243.885 22.7091C243.929 22.75 243.976 22.7886 244.023 22.8296L244.273 22.7983C245.619 22.6319 246.984 22.4776 248.336 22.3378C248.564 22.3201 248.792 22.3759 248.97 22.4935C249.149 22.611 249.265 22.781 249.294 22.9674C249.322 23.1538 249.262 23.3421 249.124 23.4923C248.986 23.6425 248.783 23.7429 248.556 23.7722C247.504 23.8831 246.446 23.9988 245.393 24.1242C246.176 24.9161 246.896 25.7488 247.548 26.617C247.63 26.7266 247.675 26.8523 247.678 26.981C247.681 27.1097 247.643 27.2367 247.566 27.349C247.489 27.4612 247.377 27.5547 247.242 27.6197C247.106 27.6847 246.952 27.7189 246.795 27.7187ZM231.329 26.7544C231.122 26.7531 230.923 26.6922 230.765 26.5824C230.607 26.4726 230.502 26.3208 230.467 26.1537C230.432 25.9865 230.469 25.8146 230.573 25.6679C230.677 25.5212 230.841 25.4092 231.035 25.3513C232.9 24.7987 234.804 24.3374 236.735 23.9699C236.85 23.9421 236.971 23.9338 237.09 23.9455C237.209 23.9572 237.324 23.9887 237.428 24.038C237.531 24.0874 237.622 24.1535 237.693 24.2324C237.764 24.3113 237.816 24.4014 237.843 24.497C237.871 24.5927 237.874 24.6919 237.854 24.7887C237.833 24.8856 237.788 24.9779 237.723 25.0601C237.657 25.1423 237.571 25.2127 237.471 25.2669C237.371 25.3211 237.259 25.358 237.141 25.3754C235.277 25.7316 233.441 26.1776 231.641 26.711C231.534 26.7335 231.424 26.7401 231.314 26.7303L231.329 26.7544ZM76.4542 26.7303C76.2935 26.7275 76.1368 26.6887 76.0011 26.6182C75.8653 26.5476 75.7557 26.448 75.6839 26.3301C74.6939 24.8911 73.9049 23.365 73.3321 21.7809C73.2993 21.6897 73.2887 21.5941 73.3009 21.4996C73.3131 21.4051 73.3479 21.3134 73.4034 21.2299C73.4588 21.1464 73.5337 21.0727 73.6239 21.0129C73.714 20.9532 73.8177 20.9086 73.9289 20.8817C74.0401 20.8548 74.1566 20.8461 74.2719 20.8561C74.3871 20.8661 74.4989 20.8947 74.6007 20.9401C74.7026 20.9856 74.7925 21.047 74.8653 21.121C74.9382 21.1949 74.9926 21.2799 75.0254 21.3711C75.5635 22.8508 76.3042 24.2758 77.2332 25.6189C77.3086 25.7289 77.3476 25.8531 77.3463 25.9792C77.3451 26.1054 77.3036 26.2291 77.226 26.338C77.1484 26.4469 77.0375 26.5373 76.9042 26.6002C76.7708 26.6631 76.6197 26.6963 76.4659 26.6966L76.4542 26.7303ZM306.576 25.5731C306.517 25.5743 306.458 25.5694 306.4 25.5587C304.51 25.2477 302.578 24.9559 300.685 24.6907C300.463 24.6515 300.268 24.5436 300.141 24.3894C300.013 24.2352 299.963 24.0467 300.001 23.8631C300.039 23.6795 300.162 23.5149 300.344 23.4037C300.526 23.2925 300.754 23.2431 300.979 23.266C302.902 23.5312 304.845 23.8253 306.753 24.1411C306.967 24.1767 307.157 24.2763 307.287 24.4204C307.417 24.5646 307.477 24.7431 307.455 24.9213C307.433 25.0996 307.332 25.265 307.17 25.3854C307.008 25.5058 306.798 25.5727 306.579 25.5731H306.576ZM295.055 23.982C295.015 23.9844 294.975 23.9844 294.935 23.982C293.027 23.7698 291.087 23.5818 289.164 23.4179C288.93 23.3984 288.715 23.3034 288.567 23.154C288.418 23.0046 288.348 22.8129 288.372 22.6211C288.395 22.4293 288.511 22.253 288.693 22.1312C288.876 22.0093 289.109 21.9519 289.343 21.9714C291.284 22.1329 293.247 22.3258 295.173 22.5403C295.289 22.5466 295.402 22.5716 295.506 22.6138C295.61 22.656 295.703 22.7146 295.779 22.7862C295.856 22.8579 295.914 22.9412 295.951 23.0313C295.989 23.1215 296.004 23.2168 295.996 23.3118C295.988 23.4067 295.958 23.4995 295.906 23.5849C295.855 23.6702 295.784 23.7464 295.696 23.8091C295.609 23.8717 295.507 23.9197 295.397 23.9502C295.287 23.9807 295.171 23.9931 295.055 23.9868V23.982ZM177.933 23.6131C177.734 23.6122 177.541 23.5559 177.386 23.4536C177.231 23.3513 177.122 23.2088 177.078 23.0495C177.034 22.8902 177.057 22.7234 177.144 22.5762C177.23 22.429 177.375 22.3102 177.554 22.239C179.521 21.4699 181.261 20.8069 182.872 20.2163C182.979 20.1529 183.101 20.1098 183.23 20.0901C183.359 20.0704 183.492 20.0746 183.619 20.1024C183.746 20.1302 183.864 20.1809 183.964 20.2509C184.063 20.3208 184.143 20.4082 184.197 20.5066C184.25 20.605 184.276 20.712 184.273 20.8197C184.269 20.9274 184.237 21.0331 184.177 21.1291C184.118 21.2252 184.033 21.3091 183.928 21.3747C183.824 21.4403 183.703 21.486 183.575 21.5085C181.976 22.0967 180.25 22.7524 178.283 23.5167C178.169 23.5619 178.045 23.5866 177.919 23.589L177.933 23.6131ZM254.251 23.2684C254.135 23.2727 254.019 23.2582 253.91 23.2258C253.801 23.1934 253.701 23.1437 253.615 23.0795C253.443 22.95 253.34 22.7695 253.329 22.5777C253.319 22.3859 253.401 22.1985 253.559 22.0567C253.717 21.915 253.937 21.8305 254.171 21.8219C256.106 21.6748 258.075 21.5519 260.025 21.4554C260.258 21.4439 260.488 21.5091 260.664 21.6366C260.839 21.7641 260.945 21.9435 260.959 22.1353C260.973 22.3271 260.894 22.5156 260.738 22.6594C260.583 22.8032 260.364 22.8904 260.13 22.9019C258.202 22.996 256.253 23.1189 254.336 23.266L254.251 23.2684ZM283.431 23.0032H283.37C281.444 22.8923 279.489 22.8055 277.563 22.7476C277.33 22.7403 277.109 22.657 276.95 22.5162C276.791 22.3754 276.706 22.1885 276.715 21.9967C276.724 21.8049 276.826 21.6238 276.998 21.4934C277.169 21.3629 277.397 21.2938 277.631 21.3012C279.577 21.3614 281.547 21.4482 283.493 21.5615C283.727 21.5682 283.948 21.6509 284.108 21.7913C284.267 21.9316 284.352 22.1182 284.344 22.3101C284.336 22.5019 284.235 22.6832 284.064 22.8141C283.893 22.945 283.665 23.0147 283.431 23.008V23.0032ZM265.916 22.6946C265.8 22.6959 265.685 22.6784 265.578 22.6432C265.47 22.6081 265.372 22.5558 265.289 22.4896C265.206 22.4233 265.14 22.3443 265.094 22.257C265.048 22.1698 265.024 22.076 265.022 21.981C265.021 21.886 265.042 21.7917 265.085 21.7035C265.128 21.6153 265.191 21.5348 265.272 21.4667C265.353 21.3987 265.449 21.3444 265.556 21.3069C265.662 21.2693 265.777 21.2494 265.892 21.2481C267.839 21.2047 269.808 21.1878 271.772 21.1951C272.006 21.1951 272.23 21.2713 272.396 21.4069C272.561 21.5426 272.654 21.7265 272.654 21.9183C272.654 22.1101 272.561 22.2941 272.396 22.4297C272.23 22.5654 272.006 22.6416 271.772 22.6416C269.841 22.6416 267.889 22.6416 265.96 22.6946H265.916ZM104.52 22.6102C104.403 22.6105 104.288 22.5916 104.179 22.5548C104.072 22.5181 103.975 22.4645 103.894 22.3971C103.812 22.3296 103.747 22.2496 103.703 22.1616C103.659 22.0736 103.637 21.9793 103.637 21.8842C103.638 21.7891 103.661 21.695 103.706 21.6073C104.433 20.1849 104.951 18.6966 105.25 17.1738C105.289 16.9843 105.418 16.8151 105.609 16.7037C105.8 16.5922 106.037 16.5476 106.268 16.5796C106.499 16.6115 106.706 16.7175 106.841 16.8742C106.977 17.0308 107.032 17.2253 106.993 17.4149C106.669 19.0497 106.112 20.6477 105.335 22.1763C105.26 22.305 105.14 22.4126 104.99 22.4855C104.84 22.5585 104.668 22.5935 104.494 22.5861L104.52 22.6102ZM238.87 20.7804C238.683 20.7803 238.5 20.7313 238.349 20.6406C236.814 19.7217 235.188 18.9082 233.49 18.2081C233.386 18.1652 233.294 18.106 233.219 18.0339C233.143 17.9618 233.086 17.8782 233.049 17.7878C233.013 17.6975 232.999 17.6022 233.008 17.5074C233.017 17.4126 233.048 17.3202 233.1 17.2353C233.153 17.1505 233.225 17.0749 233.313 17.0129C233.401 16.9509 233.503 16.9038 233.613 16.8741C233.723 16.8445 233.839 16.8329 233.955 16.8401C234.07 16.8472 234.183 16.873 234.287 16.9159C236.07 17.6526 237.777 18.5081 239.39 19.4738C239.54 19.5639 239.651 19.6905 239.708 19.8356C239.765 19.9807 239.765 20.1368 239.707 20.2817C239.649 20.4266 239.537 20.5528 239.387 20.6424C239.237 20.732 239.056 20.7803 238.87 20.7804ZM188.617 19.7196C188.411 19.7206 188.211 19.6626 188.052 19.5556C187.893 19.4486 187.785 19.2994 187.746 19.1338C187.707 18.9681 187.739 18.7965 187.838 18.6486C187.937 18.5007 188.096 18.3858 188.287 18.3238L188.799 18.1574C190.495 17.6054 192.18 17.0943 193.797 16.6386C194.017 16.5811 194.256 16.5966 194.462 16.682C194.668 16.7673 194.825 16.9156 194.9 17.095C194.974 17.2744 194.959 17.4705 194.859 17.6413C194.759 17.812 194.581 17.9437 194.364 18.008C192.765 18.4564 191.107 18.9578 189.437 19.5003L188.934 19.6666C188.824 19.6945 188.708 19.7043 188.593 19.6955L188.617 19.7196ZM73.2498 17.6174C73.0204 17.6175 72.8 17.5443 72.6353 17.4133C72.4707 17.2824 72.3747 17.1039 72.3678 16.9159C72.3678 16.7551 72.3678 16.5944 72.3678 16.4337C72.3682 15.698 72.4232 14.9629 72.5325 14.2326C72.6522 13.4637 72.8489 12.7042 73.1204 11.9617C73.1931 11.7841 73.3469 11.6366 73.5494 11.5502C73.752 11.4637 73.9876 11.4451 74.2066 11.4982C74.4255 11.5513 74.6109 11.672 74.7236 11.8348C74.8363 11.9977 74.8676 12.1901 74.8108 12.3715C74.5718 13.038 74.3988 13.7193 74.2934 14.4086C74.1924 15.0805 74.1414 15.7568 74.1405 16.4337C74.1405 16.5856 74.1405 16.7351 74.1405 16.8845C74.1437 16.9795 74.1239 17.0741 74.0825 17.1628C74.041 17.2515 73.9787 17.3327 73.8989 17.4017C73.8192 17.4706 73.7237 17.526 73.6179 17.5647C73.512 17.6034 73.3979 17.6246 73.2821 17.6271L73.2498 17.6174ZM199.679 16.6531C199.465 16.6532 199.258 16.5894 199.097 16.4735C198.936 16.3576 198.832 16.1977 198.804 16.0235C198.776 15.8493 198.827 15.6727 198.946 15.5269C199.066 15.381 199.246 15.2757 199.453 15.2307C201.411 14.804 203.351 14.4472 205.224 14.17C205.339 14.1493 205.459 14.1479 205.575 14.1659C205.692 14.1839 205.803 14.221 205.901 14.2749C206 14.3288 206.084 14.3985 206.149 14.4797C206.214 14.5608 206.258 14.6519 206.279 14.7475C206.301 14.8431 206.298 14.9412 206.272 15.0359C206.246 15.1307 206.197 15.2201 206.127 15.299C206.058 15.3778 205.97 15.4444 205.869 15.4948C205.768 15.5452 205.655 15.5784 205.538 15.5923C203.713 15.8623 201.816 16.2119 199.908 16.629C199.825 16.6384 199.74 16.6392 199.656 16.6314L199.679 16.6531ZM228.489 16.4626C228.396 16.4625 228.304 16.4503 228.216 16.4265C226.405 15.9438 224.552 15.5716 222.674 15.3127C222.556 15.3007 222.442 15.2692 222.339 15.2201C222.236 15.171 222.146 15.1052 222.075 15.0269C222.004 14.9485 221.953 14.8592 221.925 14.7642C221.897 14.6692 221.893 14.5706 221.913 14.4742C221.933 14.3779 221.976 14.2859 222.041 14.2037C222.105 14.1215 222.189 14.0509 222.288 13.9961C222.386 13.9413 222.498 13.9035 222.615 13.8849C222.731 13.8663 222.852 13.8673 222.968 13.8879C224.933 14.1568 226.871 14.546 228.766 15.0523C228.965 15.106 229.134 15.216 229.243 15.3627C229.352 15.5094 229.394 15.6832 229.361 15.853C229.328 16.0227 229.223 16.1772 229.064 16.289C228.904 16.4007 228.702 16.4622 228.492 16.4626H228.489ZM211.171 14.98C210.937 14.9877 210.709 14.9188 210.537 14.7886C210.365 14.6584 210.263 14.4775 210.254 14.2857C210.244 14.0939 210.328 13.9069 210.487 13.7658C210.646 13.6247 210.866 13.5412 211.1 13.5335C212.541 13.4371 213.978 13.3888 215.372 13.3888C215.924 13.3888 216.48 13.3889 217.027 13.4106C217.261 13.417 217.482 13.4993 217.642 13.6394C217.802 13.7796 217.887 13.9661 217.879 14.1579C217.872 14.3497 217.771 14.5311 217.6 14.6623C217.43 14.7934 217.202 14.8634 216.968 14.857C216.436 14.8426 215.898 14.8377 215.36 14.8353C214.014 14.8353 212.626 14.8812 211.244 14.9752L211.171 14.98ZM106.331 13.2346C106.111 13.2354 105.898 13.1685 105.735 13.0471C105.572 12.9258 105.47 12.7587 105.449 12.5788C105.291 11.0587 104.842 9.56846 104.121 8.16221C104.029 7.98574 104.026 7.78652 104.113 7.60839C104.2 7.43025 104.37 7.28778 104.585 7.21233C104.8 7.13689 105.043 7.13463 105.26 7.20607C105.478 7.2775 105.651 7.41679 105.743 7.59326C106.537 9.13794 107.033 10.7743 107.213 12.4438C107.224 12.5385 107.212 12.634 107.178 12.7249C107.144 12.8158 107.088 12.9003 107.014 12.9735C106.94 13.0467 106.85 13.1073 106.747 13.1516C106.644 13.196 106.532 13.2234 106.417 13.2322L106.331 13.2346ZM76.4806 8.5841C76.3195 8.58433 76.1613 8.54833 76.0234 8.48004C75.8854 8.41175 75.7729 8.31379 75.6981 8.19676C75.6232 8.07973 75.5889 7.94811 75.5989 7.81622C75.6088 7.68432 75.6626 7.5572 75.7545 7.44862C76.9115 6.0787 78.2969 4.84847 79.8702 3.79381C80.0511 3.67201 80.2836 3.6141 80.5165 3.63287C80.7495 3.65163 80.9637 3.74553 81.1123 3.89387C81.2608 4.04221 81.3314 4.23284 81.3085 4.42386C81.2857 4.61488 81.1712 4.79063 80.9903 4.91244C79.5376 5.87343 78.2561 6.99652 77.1832 8.249C77.1022 8.34558 76.9938 8.42456 76.8673 8.47916C76.7408 8.53376 76.6 8.56234 76.4571 8.56241L76.4806 8.5841ZM101.689 4.65688C101.458 4.65608 101.236 4.58075 101.072 4.44714C100.386 3.89543 99.629 3.4064 98.8143 2.98861C98.0839 2.61294 97.3075 2.30102 96.4978 2.05801C96.2779 1.99215 96.0989 1.85739 96.0003 1.68332C95.9016 1.50926 95.8912 1.31016 95.9715 1.12985C96.0518 0.949545 96.2162 0.802779 96.4285 0.72185C96.6407 0.640921 96.8835 0.632479 97.1034 0.698336C98.0281 0.977181 98.9148 1.33429 99.7492 1.7639C100.673 2.23696 101.53 2.79153 102.307 3.41771C102.432 3.51845 102.517 3.64747 102.553 3.78828C102.588 3.92909 102.571 4.07531 102.505 4.20829C102.438 4.34127 102.325 4.45496 102.179 4.53486C102.033 4.61476 101.862 4.65724 101.687 4.65688H101.689ZM85.4117 2.59565C85.2083 2.59588 85.0111 2.53846 84.8534 2.43311C84.6957 2.32776 84.5873 2.18094 84.5465 2.01755C84.5057 1.85415 84.535 1.68418 84.6295 1.53647C84.7239 1.38876 84.8777 1.27238 85.0649 1.20701C86.9458 0.534769 88.9513 0.12726 90.9974 0.00160715C91.1132 -0.0047247 91.2294 0.0076907 91.3394 0.0381873C91.4493 0.0686838 91.5509 0.116646 91.6382 0.179328C91.7256 0.24201 91.797 0.318193 91.8485 0.403518C91.8999 0.488843 91.9304 0.58164 91.9381 0.676618C91.9459 0.771596 91.9307 0.866904 91.8935 0.957075C91.8563 1.04725 91.7978 1.13052 91.7214 1.20216C91.6449 1.2738 91.552 1.33239 91.448 1.37458C91.3439 1.41678 91.2308 1.44176 91.115 1.4481C89.2669 1.55847 87.4549 1.92445 85.7557 2.53055C85.6374 2.56657 85.5111 2.58136 85.3853 2.57393L85.4117 2.59565Z" fill="#FF0401" fill-opacity="0.3"/>
</svg>
