<svg width="340" height="49" viewBox="0 0 340 49" fill="none" xmlns="http://www.w3.org/2000/svg">
<path d="M14.5703 48.1742C14.3136 48.1742 14.0675 48.1261 13.886 48.0404C13.7045 47.9548 13.6025 47.8386 13.6025 47.7174C13.6025 47.5963 13.7045 47.4801 13.886 47.3945C14.0675 47.3088 14.3136 47.2607 14.5703 47.2607C16.7122 47.2516 18.8799 47.2013 21.0217 47.1085C21.1488 47.1031 21.2769 47.1095 21.3987 47.1275C21.5205 47.1455 21.6336 47.1746 21.7315 47.2132C21.8295 47.2518 21.9104 47.2991 21.9696 47.3524C22.0288 47.4058 22.0651 47.4641 22.0766 47.5241C22.088 47.5841 22.0743 47.6445 22.0362 47.702C21.9982 47.7595 21.9365 47.8129 21.8547 47.8591C21.7729 47.9053 21.6727 47.9435 21.5597 47.9715C21.4466 47.9994 21.323 48.0165 21.1959 48.0219C19.0089 48.1148 16.7864 48.1666 14.5929 48.1742H14.5703ZM8.04137 48.0737H7.97041C5.76078 47.9961 3.55115 47.8743 1.39958 47.7114C1.14592 47.6912 0.919659 47.6243 0.770541 47.5253C0.621422 47.4264 0.561674 47.3035 0.60445 47.1838C0.647226 47.0641 0.788998 46.9573 0.998611 46.8869C1.20822 46.8165 1.4685 46.7883 1.72216 46.8085C3.81889 46.9608 5.97367 47.0871 8.12524 47.1633C8.3819 47.1677 8.62431 47.2201 8.79914 47.3089C8.97396 47.3977 9.0669 47.5156 9.05749 47.6368C9.04807 47.7579 8.93711 47.8723 8.74897 47.9548C8.56083 48.0373 8.31094 48.0812 8.05429 48.0768L8.04137 48.0737ZM27.5668 47.617C27.4397 47.6221 27.3117 47.6153 27.1902 47.5971C27.0686 47.5788 26.9559 47.5494 26.8584 47.5106C26.7609 47.4718 26.6805 47.4243 26.6219 47.3709C26.5633 47.3174 26.5276 47.259 26.5168 47.199C26.506 47.1391 26.5203 47.0787 26.559 47.0213C26.5976 46.9639 26.6598 46.9107 26.7421 46.8647C26.8243 46.8187 26.9249 46.7808 27.0382 46.7531C27.1515 46.7254 27.2752 46.7086 27.4023 46.7035C29.528 46.5299 31.6473 46.3122 33.7054 46.0564C33.9539 46.0255 34.2182 46.0425 34.4403 46.1036C34.6623 46.1647 34.8237 46.2649 34.8892 46.3822C34.9546 46.4995 34.9187 46.6243 34.7893 46.7291C34.6598 46.8339 34.4474 46.9101 34.1989 46.941C32.0861 47.2029 29.9119 47.4251 27.7474 47.6048C27.6884 47.6126 27.6279 47.6176 27.5668 47.62V47.617ZM40.1891 46.0473C39.9622 46.0464 39.7431 46.008 39.5701 45.9386C39.3971 45.8693 39.2813 45.7735 39.2429 45.6679C39.2044 45.5623 39.2458 45.4537 39.3598 45.3611C39.4738 45.2685 39.6532 45.1977 39.8665 45.1612C41.9052 44.8125 43.9052 44.4197 45.8116 43.9934C46.0424 43.9448 46.3045 43.9407 46.5416 43.9821C46.7788 44.0235 46.9722 44.107 47.0805 44.2148C47.1889 44.3226 47.2035 44.4462 47.1212 44.559C47.039 44.6719 46.8665 44.7651 46.6406 44.8186C44.6793 45.2571 42.6213 45.6621 40.5117 46.0199C40.4086 46.0386 40.2995 46.0489 40.1891 46.0503V46.0473ZM304.055 44.8826H304.035C301.848 44.8643 299.635 44.8156 297.455 44.7303C297.328 44.7258 297.204 44.7096 297.09 44.6825C296.976 44.6554 296.875 44.6179 296.792 44.5723C296.709 44.5267 296.645 44.4739 296.605 44.4167C296.566 44.3596 296.55 44.2993 296.56 44.2393C296.569 44.1793 296.604 44.1208 296.661 44.0672C296.718 44.0135 296.798 43.9656 296.894 43.9264C296.991 43.8872 297.103 43.8573 297.224 43.8385C297.345 43.8197 297.473 43.8123 297.6 43.8168C299.745 43.893 301.922 43.9417 304.071 43.9691C304.327 43.9701 304.573 44.0192 304.753 44.1056C304.933 44.1919 305.032 44.3085 305.03 44.4296C305.028 44.5508 304.924 44.6665 304.741 44.7515C304.558 44.8364 304.311 44.8836 304.055 44.8826ZM310.583 44.8521C310.327 44.8543 310.079 44.8084 309.894 44.7243C309.709 44.6402 309.603 44.5249 309.598 44.4038C309.593 44.2826 309.691 44.1656 309.869 44.0783C310.047 43.9911 310.291 43.9409 310.548 43.9386C312.703 43.9006 314.877 43.8305 316.999 43.7331C317.256 43.7214 317.512 43.7583 317.711 43.8357C317.91 43.913 318.036 44.0246 318.061 44.1457C318.086 44.2668 318.007 44.3877 317.843 44.4816C317.679 44.5755 317.443 44.6349 317.187 44.6466C315.016 44.7456 312.803 44.8171 310.613 44.8567L310.583 44.8521ZM291.032 44.4182C290.989 44.4197 290.946 44.4197 290.903 44.4182C288.729 44.2812 286.539 44.1137 284.4 43.9158C284.274 43.9052 284.153 43.8829 284.045 43.85C283.937 43.8172 283.845 43.7746 283.772 43.7247C283.699 43.6748 283.648 43.6185 283.622 43.5592C283.596 43.4999 283.595 43.4388 283.619 43.3793C283.644 43.3199 283.693 43.2633 283.764 43.2129C283.835 43.1625 283.927 43.1193 284.034 43.0857C284.141 43.0522 284.261 43.029 284.387 43.0176C284.513 43.0062 284.642 43.0067 284.768 43.0191C286.871 43.2124 289.023 43.3784 291.158 43.5123C291.415 43.5202 291.654 43.5759 291.824 43.6671C291.994 43.7583 292.08 43.8776 292.063 43.9988C292.046 44.1199 291.928 44.233 291.735 44.313C291.542 44.3931 291.289 44.4337 291.032 44.4258V44.4182ZM323.58 44.2553C323.323 44.2646 323.069 44.2254 322.874 44.1463C322.679 44.0672 322.558 43.9547 322.538 43.8336C322.518 43.7125 322.602 43.5926 322.769 43.5004C322.937 43.4081 323.175 43.3511 323.432 43.3418C325.567 43.1896 327.706 42.9916 329.79 42.7739C329.914 42.7609 330.042 42.7596 330.167 42.77C330.292 42.7804 330.412 42.8024 330.519 42.8346C330.626 42.8668 330.719 42.9087 330.792 42.9579C330.865 43.007 330.917 43.0625 330.944 43.1211C330.972 43.1796 330.975 43.2402 330.953 43.2993C330.931 43.3584 330.884 43.4149 330.816 43.4655C330.747 43.5161 330.659 43.5599 330.555 43.5943C330.451 43.6287 330.333 43.6531 330.209 43.6661C328.086 43.8884 325.909 44.0833 323.735 44.2447C323.686 44.2513 323.637 44.2559 323.586 44.2584L323.58 44.2553ZM51.9727 43.4012C51.7609 43.4016 51.5546 43.3692 51.3855 43.309C51.2165 43.2487 51.094 43.1639 51.0369 43.0676C50.9797 42.9714 50.9911 42.8689 51.0693 42.776C51.1474 42.683 51.288 42.6048 51.4695 42.5532C53.2791 42.0355 55.0727 41.4631 56.8049 40.8541C56.9068 40.8182 57.0226 40.7921 57.1458 40.7774C57.2691 40.7626 57.3972 40.7595 57.523 40.7681C57.6488 40.7767 57.7698 40.7969 57.879 40.8276C57.9883 40.8583 58.0836 40.8989 58.1597 40.9469C58.2357 40.995 58.291 41.0497 58.3222 41.1079C58.3535 41.166 58.3602 41.2265 58.3419 41.2859C58.3236 41.3453 58.2807 41.4024 58.2157 41.4539C58.1507 41.5055 58.0648 41.5505 57.9629 41.5864C56.1823 42.2137 54.334 42.8044 52.4792 43.3342C52.3246 43.3801 52.1456 43.4043 51.963 43.4042L51.9727 43.4012ZM278.22 43.249C278.139 43.2491 278.059 43.2439 277.981 43.2337C275.845 42.9749 273.713 42.6841 271.649 42.3674C271.405 42.3301 271.202 42.2485 271.085 42.1405C270.968 42.0326 270.947 41.9072 271.026 41.7919C271.105 41.6767 271.278 41.5809 271.507 41.5258C271.736 41.4707 272.001 41.4608 272.246 41.4981C274.275 41.8026 276.365 42.0949 278.462 42.3492C278.691 42.3763 278.892 42.4423 279.025 42.5345C279.159 42.6267 279.216 42.7389 279.186 42.8497C279.157 42.9606 279.042 43.0624 278.864 43.136C278.685 43.2095 278.456 43.2497 278.22 43.249ZM265.801 41.3443C265.678 41.344 265.556 41.3326 265.442 41.3108C263.391 40.9256 261.359 40.5039 259.401 40.0593C259.283 40.0343 259.177 39.9984 259.089 39.9537C259 39.909 258.932 39.8563 258.888 39.799C258.844 39.7416 258.824 39.6806 258.831 39.6197C258.837 39.5587 258.87 39.4989 258.926 39.444C258.982 39.389 259.061 39.3399 259.159 39.2996C259.256 39.2593 259.369 39.2286 259.492 39.2094C259.615 39.1901 259.744 39.1826 259.873 39.1874C260.002 39.1922 260.128 39.2091 260.243 39.2372C262.155 39.6711 264.149 40.0837 266.162 40.4552C266.372 40.4943 266.546 40.5669 266.655 40.6603C266.763 40.7537 266.799 40.8621 266.756 40.9667C266.713 41.0713 266.594 41.1656 266.42 41.2331C266.245 41.3007 266.026 41.3373 265.801 41.3367V41.3443ZM62.4402 39.729C62.244 39.7291 62.0523 39.7011 61.8905 39.6486C61.7288 39.5961 61.6047 39.5216 61.5347 39.4351C61.4647 39.3485 61.4522 39.254 61.4987 39.164C61.5452 39.074 61.6485 38.9928 61.7951 38.9312C63.3467 38.278 64.9112 37.561 66.4434 36.8149C66.6218 36.7277 66.8662 36.6775 67.123 36.6754C67.3798 36.6732 67.6279 36.7193 67.8127 36.8035C67.9975 36.8877 68.1039 37.0031 68.1084 37.1243C68.1129 37.2455 68.0153 37.3626 67.8369 37.4498C66.2692 38.211 64.6724 38.9449 63.0822 39.6133C62.9041 39.6874 62.6745 39.728 62.437 39.7275L62.4402 39.729ZM254.049 38.6632C253.881 38.6635 253.715 38.6431 253.569 38.6039C251.704 38.1014 249.814 37.5533 247.953 36.9748C247.839 36.9435 247.74 36.9016 247.662 36.8516C247.584 36.8017 247.528 36.7447 247.498 36.6843C247.468 36.6238 247.464 36.561 247.488 36.4999C247.511 36.4388 247.56 36.3805 247.632 36.3287C247.705 36.2768 247.799 36.2325 247.909 36.1984C248.019 36.1644 248.143 36.1412 248.272 36.1305C248.402 36.1197 248.535 36.1215 248.663 36.1358C248.791 36.1501 248.911 36.1765 249.017 36.2136C250.846 36.7814 252.701 37.3189 254.53 37.8122C254.714 37.8623 254.859 37.9398 254.94 38.0326C255.022 38.1254 255.037 38.2283 254.982 38.3255C254.927 38.4226 254.806 38.5085 254.638 38.5698C254.469 38.6312 254.262 38.6645 254.049 38.6647V38.6632ZM71.5272 35.297C71.2976 35.2967 71.0758 35.2578 70.9014 35.1874C70.8045 35.1485 70.7249 35.101 70.667 35.0476C70.6091 34.9942 70.574 34.9359 70.5639 34.8761C70.5537 34.8163 70.5685 34.7561 70.6076 34.6991C70.6467 34.642 70.7093 34.5891 70.7917 34.5434C72.1239 33.808 73.4626 33.0316 74.8884 32.1668C75.0479 32.0737 75.2786 32.0139 75.5306 32.0002C75.7827 31.9866 76.0361 32.0202 76.2361 32.0939C76.4362 32.1675 76.5669 32.2753 76.6002 32.394C76.6335 32.5128 76.5667 32.6329 76.4142 32.7286C74.9723 33.6025 73.6142 34.3911 72.2658 35.1372C72.1745 35.1889 72.06 35.2305 71.9307 35.2589C71.8013 35.2874 71.6602 35.3019 71.5175 35.3016L71.5272 35.297ZM243.136 35.2864C242.929 35.2865 242.726 35.255 242.559 35.1965C240.869 34.6058 239.124 33.9648 237.372 33.2919C237.266 33.2553 237.177 33.2089 237.111 33.1556C237.044 33.1023 237.001 33.0432 236.985 32.9818C236.968 32.9204 236.978 32.858 237.014 32.7985C237.05 32.739 237.111 32.6835 237.193 32.6355C237.276 32.5875 237.379 32.5479 237.495 32.5191C237.611 32.4904 237.738 32.4731 237.869 32.4682C238 32.4634 238.131 32.4712 238.255 32.4911C238.38 32.511 238.494 32.5426 238.591 32.584C240.32 33.2478 242.043 33.8796 243.711 34.4627C243.874 34.5199 243.995 34.5999 244.057 34.6914C244.118 34.7829 244.117 34.8812 244.054 34.9724C243.99 35.0636 243.867 35.143 243.703 35.1993C243.538 35.2557 243.34 35.2862 243.136 35.2864ZM232.995 31.4056C232.757 31.4061 232.528 31.3655 232.35 31.2914C230.811 30.6565 229.217 29.9805 227.476 29.2238C227.286 29.1419 227.174 29.0278 227.163 28.9067C227.152 28.7857 227.244 28.6675 227.417 28.5783C227.591 28.489 227.833 28.436 228.089 28.4309C228.346 28.4258 228.596 28.4689 228.785 28.5509C230.517 29.303 232.098 29.9744 233.624 30.6047C233.773 30.6661 233.878 30.7475 233.926 30.8381C233.974 30.9286 233.962 31.0239 233.892 31.1111C233.822 31.1984 233.696 31.2734 233.533 31.326C233.37 31.3786 233.176 31.4064 232.979 31.4056H232.995ZM79.5754 30.451C79.3962 30.4511 79.2205 30.4278 79.0677 30.3835C78.915 30.3393 78.7913 30.276 78.7103 30.2005C78.6294 30.1251 78.5944 30.0405 78.6093 29.9562C78.6242 29.8719 78.6885 29.7913 78.7948 29.7232C80.1173 28.8721 81.4141 28.0226 82.6173 27.2294C82.7679 27.1325 82.9933 27.0676 83.2447 27.0486C83.4961 27.0297 83.7532 27.0582 83.9603 27.1281C84.1674 27.198 84.3078 27.3036 84.351 27.422C84.3943 27.5404 84.3369 27.6621 84.1914 27.7607C82.985 28.5555 81.685 29.4096 80.356 30.2637C80.2662 30.3217 80.1488 30.3688 80.0131 30.4014C79.8775 30.4339 79.7275 30.4509 79.5754 30.451ZM223.353 27.2537C223.106 27.2537 222.868 27.209 222.689 27.1289C221.527 26.6113 220.369 26.0921 219.214 25.5714L217.95 25.005C217.764 24.9214 217.656 24.8064 217.649 24.6852C217.643 24.564 217.739 24.4466 217.916 24.3587C218.093 24.2709 218.337 24.2199 218.594 24.2169C218.85 24.2139 219.099 24.2592 219.285 24.3427L220.547 24.9106L224.017 26.4651C224.158 26.5279 224.256 26.6092 224.298 26.6984C224.339 26.7877 224.324 26.8808 224.252 26.9658C224.18 27.0507 224.056 27.1236 223.896 27.1749C223.736 27.2263 223.547 27.2537 223.353 27.2537ZM87.2107 25.4542C87.0323 25.4542 86.8574 25.4309 86.7053 25.387C86.5532 25.343 86.4297 25.2801 86.3486 25.2051C86.2675 25.1301 86.2319 25.046 86.2457 24.9621C86.2595 24.8781 86.3222 24.7976 86.4268 24.7295C87.0881 24.3001 87.7494 23.8708 88.4139 23.446C89.0784 23.0212 89.7042 22.6269 90.33 22.2402C90.406 22.191 90.5022 22.1495 90.6127 22.1181C90.7233 22.0868 90.846 22.0661 90.9737 22.0574C91.1013 22.0488 91.2314 22.0522 91.3562 22.0676C91.481 22.083 91.5981 22.11 91.7004 22.1471C91.8028 22.1841 91.8884 22.2305 91.9523 22.2834C92.0162 22.3363 92.057 22.3946 92.0724 22.4551C92.0878 22.5155 92.0774 22.5768 92.0418 22.6354C92.0063 22.6939 91.9463 22.7485 91.8654 22.7959C91.2461 23.178 90.6074 23.5785 89.9719 23.9865C89.3364 24.3945 88.6526 24.8375 87.9978 25.2654C87.9053 25.3221 87.7859 25.3678 87.6492 25.3987C87.5125 25.4296 87.3623 25.445 87.2107 25.4435V25.4542ZM213.866 23.0182C213.626 23.0163 213.396 22.9723 213.221 22.8949C211.473 22.1245 209.905 21.4439 208.421 20.8151C208.318 20.7763 208.234 20.728 208.172 20.6731C208.11 20.6183 208.073 20.5581 208.062 20.4962C208.051 20.4343 208.068 20.372 208.11 20.3132C208.152 20.2544 208.218 20.2002 208.306 20.1539C208.394 20.1077 208.501 20.0704 208.62 20.0444C208.74 20.0183 208.869 20.004 209.001 20.0023C209.132 20.0007 209.263 20.0117 209.385 20.0347C209.507 20.0577 209.618 20.0922 209.711 20.1361C211.205 20.768 212.782 21.4531 214.55 22.228C214.692 22.2906 214.79 22.3719 214.833 22.4613C214.875 22.5507 214.86 22.644 214.789 22.7292C214.717 22.8144 214.593 22.8876 214.433 22.9391C214.272 22.9906 214.083 23.0182 213.889 23.0182H213.866ZM95.188 20.5548C95.0039 20.5546 94.8237 20.5296 94.6687 20.4828C94.5136 20.436 94.39 20.3693 94.3125 20.2905C94.2349 20.2117 94.2066 20.1241 94.2308 20.0379C94.2551 19.9518 94.3308 19.8707 94.4492 19.8042C95.8976 18.9882 97.3524 18.2056 98.8104 17.4763C98.9867 17.3897 99.2283 17.3392 99.4828 17.336C99.7372 17.3328 99.9841 17.377 100.17 17.4592C100.356 17.5413 100.466 17.6546 100.476 17.7747C100.486 17.8947 100.395 18.0118 100.223 18.1006C98.8008 18.8176 97.3557 19.588 95.9299 20.3843C95.8405 20.4368 95.7276 20.4793 95.5994 20.5087C95.4711 20.5382 95.3306 20.5539 95.188 20.5548ZM204.147 18.8801C203.918 18.8801 203.696 18.8418 203.521 18.772L202.773 18.4751C201.366 17.9209 199.918 17.3743 198.47 16.8536C198.368 16.8172 198.283 16.7718 198.219 16.7199C198.155 16.668 198.114 16.6106 198.097 16.5511C198.079 16.4916 198.087 16.4311 198.12 16.373C198.152 16.315 198.209 16.2605 198.286 16.2127C198.363 16.1649 198.459 16.1248 198.569 16.0945C198.679 16.0643 198.801 16.0446 198.927 16.0365C199.053 16.0285 199.181 16.0322 199.304 16.0475C199.427 16.0629 199.543 16.0895 199.644 16.1259C201.115 16.6572 202.586 17.2114 204.015 17.7732L204.773 18.0777C204.924 18.1382 205.033 18.2191 205.083 18.3096C205.134 18.4001 205.124 18.4958 205.056 18.5836C204.988 18.6715 204.864 18.7474 204.701 18.8009C204.539 18.8545 204.345 18.8832 204.147 18.8831V18.8801ZM104.13 16.0559C103.937 16.0543 103.75 16.0257 103.592 15.9736C103.434 15.9215 103.312 15.8483 103.243 15.7634C103.173 15.6785 103.159 15.5858 103.203 15.4971C103.246 15.4084 103.344 15.3279 103.485 15.2657C105.123 14.541 106.804 13.8528 108.472 13.221C108.57 13.1813 108.685 13.1513 108.808 13.1328C108.932 13.1144 109.062 13.1079 109.191 13.1136C109.32 13.1194 109.445 13.1373 109.559 13.1664C109.674 13.1954 109.774 13.235 109.855 13.2827C109.936 13.3305 109.996 13.3854 110.031 13.4443C110.067 13.5032 110.076 13.5648 110.06 13.6255C110.044 13.6862 110.002 13.7448 109.937 13.7977C109.872 13.8506 109.785 13.8968 109.681 13.9335C108.052 14.5425 106.41 15.2231 104.807 15.9325C104.716 15.9751 104.609 16.0086 104.49 16.0314C104.372 16.0541 104.245 16.0655 104.117 16.065L104.13 16.0559ZM193.754 15.1424C193.56 15.1421 193.372 15.1146 193.212 15.0632C191.415 14.4847 189.576 13.9305 187.751 13.4128C187.622 13.3878 187.506 13.3499 187.411 13.3018C187.316 13.2538 187.245 13.1966 187.201 13.1342C187.157 13.0719 187.142 13.0058 187.158 12.9405C187.173 12.8752 187.218 12.8122 187.289 12.7558C187.361 12.6995 187.457 12.6511 187.572 12.6139C187.687 12.5768 187.817 12.5517 187.955 12.5405C188.092 12.5293 188.232 12.5322 188.367 12.549C188.502 12.5658 188.627 12.5961 188.734 12.6379C190.592 13.1631 192.46 13.728 194.286 14.3126C194.457 14.3676 194.586 14.447 194.655 14.5392C194.723 14.6314 194.727 14.7315 194.666 14.8248C194.605 14.9181 194.482 14.9998 194.316 15.0578C194.149 15.1157 193.948 15.147 193.741 15.1469L193.754 15.1424ZM114.33 12.2131C114.122 12.2132 113.919 12.1816 113.752 12.1231C113.585 12.0646 113.463 11.9823 113.403 11.8883C113.342 11.7944 113.348 11.6938 113.419 11.6015C113.489 11.5091 113.621 11.43 113.794 11.3757C115.658 10.7911 117.575 10.2521 119.484 9.77561C119.597 9.74762 119.72 9.73036 119.846 9.72481C119.973 9.71927 120.101 9.72555 120.222 9.74329C120.344 9.76103 120.456 9.78989 120.554 9.82822C120.652 9.86655 120.733 9.9136 120.792 9.96668C120.852 10.0198 120.888 10.0779 120.9 10.1376C120.912 10.1974 120.898 10.2576 120.861 10.3149C120.823 10.3723 120.762 10.4255 120.681 10.4717C120.6 10.5179 120.5 10.5561 120.387 10.5841C118.536 11.0408 116.678 11.5676 114.865 12.1355C114.706 12.1906 114.514 12.2215 114.317 12.2238L114.33 12.2131ZM182.547 11.971C182.392 11.9718 182.239 11.954 182.102 11.9193C180.167 11.4443 178.202 11.0058 176.267 10.5993C176.042 10.5477 175.868 10.457 175.781 10.3461C175.695 10.2353 175.702 10.1129 175.803 10.0047C175.904 9.89655 176.089 9.81099 176.321 9.766C176.552 9.72101 176.811 9.72009 177.044 9.76343C179.018 10.173 181.022 10.6252 182.993 11.1093C183.184 11.1565 183.337 11.2327 183.427 11.3258C183.516 11.4188 183.536 11.5233 183.485 11.6225C183.434 11.7217 183.314 11.81 183.144 11.8731C182.974 11.9363 182.764 11.9708 182.547 11.971ZM170.583 9.50157C170.473 9.50189 170.364 9.49313 170.261 9.47568C168.206 9.1316 166.132 8.82864 164.096 8.57286C163.848 8.54157 163.636 8.46503 163.508 8.3601C163.379 8.25517 163.344 8.13044 163.411 8.01334C163.477 7.89624 163.639 7.79637 163.861 7.7357C164.084 7.67502 164.348 7.65852 164.596 7.68981C166.68 7.95168 168.79 8.26226 170.906 8.61395C171.121 8.64975 171.303 8.72041 171.419 8.81341C171.535 8.9064 171.577 9.01573 171.538 9.12205C171.5 9.22836 171.383 9.32478 171.208 9.39424C171.033 9.46371 170.812 9.50173 170.583 9.50157ZM125.865 9.34932C125.64 9.34923 125.422 9.31207 125.248 9.24426C125.075 9.17645 124.957 9.08224 124.915 8.97783C124.873 8.87342 124.909 8.76537 125.018 8.67227C125.127 8.57918 125.3 8.50686 125.51 8.4678C127.57 8.08376 129.674 7.75539 131.813 7.48428C132.061 7.45299 132.325 7.46949 132.548 7.53017C132.77 7.59084 132.932 7.69071 132.998 7.80781C133.065 7.92491 133.03 8.04964 132.901 8.15457C132.773 8.2595 132.561 8.33602 132.313 8.36731C130.246 8.62886 128.213 8.94605 126.223 9.31734C126.106 9.34234 125.98 9.35581 125.852 9.35692L125.865 9.34932ZM157.97 7.92883C157.915 7.93104 157.859 7.93104 157.803 7.92883C155.667 7.75375 153.519 7.62434 151.416 7.55583C151.159 7.54695 150.921 7.49032 150.752 7.39838C150.584 7.30644 150.5 7.18673 150.519 7.0656C150.538 6.94446 150.658 6.83181 150.853 6.75244C151.047 6.67306 151.301 6.63346 151.558 6.64234C153.722 6.71694 155.935 6.84636 158.132 7.02601C158.368 7.04656 158.58 7.10783 158.725 7.19792C158.871 7.28801 158.941 7.40047 158.921 7.51344C158.901 7.62641 158.792 7.73181 158.617 7.80915C158.441 7.88648 158.211 7.93023 157.97 7.93188V7.92883ZM138.455 7.75984C138.198 7.76852 137.945 7.72874 137.75 7.64922C137.556 7.5697 137.436 7.45698 137.418 7.33584C137.399 7.2147 137.484 7.09508 137.652 7.00328C137.821 6.91149 138.059 6.85503 138.316 6.84635C140.508 6.69558 142.715 6.60308 144.929 6.56927H144.961C145.218 6.56745 145.465 6.61382 145.65 6.69819C145.834 6.78256 145.939 6.89802 145.943 7.01915C145.947 7.14029 145.849 7.25719 145.67 7.34413C145.491 7.43107 145.247 7.48094 144.99 7.48276C142.85 7.5151 140.715 7.60456 138.597 7.75071L138.455 7.75984Z" fill="#FF0401" fill-opacity="0.3"/>
<path d="M335.484 27.9191C325.322 27.9191 335.484 40.2364 335.484 40.2364C335.484 40.2364 345.645 27.9191 335.484 27.9191ZM335.484 35.7106C334.805 35.7106 334.141 35.5079 333.576 35.1282C333.012 34.7484 332.571 34.2087 332.312 33.5773C332.052 32.9458 331.984 32.251 332.116 31.5806C332.249 30.9103 332.576 30.2945 333.056 29.8112C333.536 29.3279 334.148 28.9988 334.814 28.8655C335.48 28.7321 336.17 28.8006 336.797 29.0621C337.425 29.3237 337.961 29.7666 338.338 30.3349C338.716 30.9032 338.917 31.5713 338.917 32.2548C338.917 33.1713 338.555 34.0503 337.911 34.6984C337.267 35.3465 336.394 35.7106 335.484 35.7106Z" fill="#FF0401"/>
<path d="M335.621 29.2877C335.025 29.2877 334.443 29.4643 333.948 29.7951C333.453 30.126 333.067 30.5962 332.839 31.1464C332.611 31.6966 332.551 32.3019 332.668 32.886C332.784 33.47 333.071 34.0065 333.492 34.4276C333.913 34.8487 334.449 35.1355 335.033 35.2516C335.617 35.3678 336.223 35.3082 336.773 35.0803C337.323 34.8524 337.793 34.4665 338.124 33.9714C338.455 33.4762 338.632 32.8941 338.632 32.2986C338.632 31.9031 338.554 31.5115 338.403 31.146C338.252 30.7806 338.03 30.4486 337.75 30.1689C337.471 29.8893 337.139 29.6675 336.773 29.5163C336.408 29.3651 336.016 29.2874 335.621 29.2877ZM335.621 34.8233C335.121 34.8233 334.632 34.675 334.217 34.3973C333.801 34.1195 333.477 33.7247 333.286 33.2629C333.095 32.801 333.045 32.2928 333.142 31.8026C333.24 31.3123 333.481 30.8621 333.835 30.5088C334.188 30.1555 334.639 29.915 335.129 29.8177C335.619 29.7205 336.127 29.7708 336.589 29.9624C337.051 30.154 337.445 30.4783 337.723 30.8941C338 31.31 338.148 31.7987 338.148 32.2986C338.148 32.6305 338.083 32.9592 337.956 33.2659C337.829 33.5727 337.643 33.8513 337.408 34.0861C337.173 34.3208 336.895 34.5069 336.588 34.6338C336.281 34.7607 335.953 34.8258 335.621 34.8255V34.8233Z" fill="#FF0401"/>
<path d="M336.715 42.5607C336.716 42.8044 336.644 43.0428 336.509 43.2456C336.374 43.4485 336.182 43.6067 335.957 43.7003C335.732 43.7939 335.484 43.8186 335.245 43.7714C335.006 43.7241 334.786 43.607 334.614 43.4348C334.441 43.2627 334.324 43.0432 334.276 42.8042C334.228 42.5652 334.252 42.3174 334.345 42.0922C334.439 41.867 334.596 41.6745 334.799 41.5391C335.002 41.4036 335.24 41.3313 335.484 41.3313C335.81 41.3313 336.123 41.4608 336.354 41.6912C336.585 41.9217 336.715 42.2344 336.715 42.5607Z" fill="#FF0401"/>
<path d="M185.083 28.6339C185.609 28.7786 186.162 28.7757 186.686 28.6252C187.21 28.4747 187.687 28.182 188.069 27.7765L196.009 19.3618C196.28 19.0748 196.617 18.8668 196.988 18.7581C197.359 18.6495 197.751 18.644 198.124 18.7421L202.298 19.8441C203.338 20.1195 204.425 20.1442 205.475 19.9163L206.157 19.7695C206.281 19.745 206.396 19.6841 206.488 19.5937C206.58 19.5033 206.646 19.3873 206.678 19.2591C206.71 19.1309 206.707 18.9959 206.668 18.8697C206.63 18.7435 206.558 18.6314 206.461 18.5464L205.935 18.0805C205.125 17.3421 204.166 16.8054 203.131 16.5103L198.977 15.3292C198.605 15.2223 198.267 15.0157 197.994 14.7298C197.722 14.4438 197.525 14.0884 197.423 13.6984L194.423 2.28308C194.278 1.73349 193.998 1.23344 193.611 0.832842C193.225 0.43224 192.744 0.145076 192.219 0C193.373 4.9249 193.3 10.6629 193.207 13.0461C193.203 13.1218 193.184 13.1957 193.149 13.2624C193.115 13.3291 193.067 13.3869 193.009 13.4316C192.95 13.4763 192.883 13.5067 192.812 13.5206C192.741 13.5345 192.668 13.5316 192.598 13.512V12.5289C192.6 12.2979 192.517 12.0751 192.368 11.9052C192.219 11.7353 192.014 11.631 191.795 11.6133L190.571 11.5155C190.406 11.5038 190.242 11.5488 190.103 11.6436C189.959 11.7441 189.786 11.7879 189.615 11.7671L189.171 11.7205L189.615 11.9348C189.754 12.0026 189.87 12.1131 189.948 12.2517L190.079 12.4847L190.301 12.8574L189.413 12.6058C188.847 12.4454 188.264 12.3609 187.679 12.3542L184.728 12.3169L184.4 8.87833C184.365 8.52061 184.217 8.18555 183.978 7.92756C183.74 7.66956 183.425 7.50381 183.085 7.45724L182.026 7.31281L182.512 12.2913H181.691C181.662 12.2906 181.634 12.3 181.611 12.3182C181.587 12.3364 181.571 12.3623 181.563 12.3916C181.556 12.421 181.558 12.4521 181.57 12.4799C181.581 12.5078 181.601 12.5308 181.627 12.5452L182.348 12.9599L179.602 17.0531L180.601 17.4725C180.917 17.6057 181.267 17.6234 181.594 17.5228C181.921 17.4223 182.206 17.2092 182.404 16.918L184.322 14.0898L186.882 15.5575C187.396 15.8533 187.944 16.0788 188.513 16.2284L189.401 16.4614L189.04 16.6757L188.818 16.8132C188.684 16.8967 188.528 16.9334 188.374 16.918L187.881 16.8761L188.285 17.0578C188.444 17.1299 188.574 17.2575 188.653 17.4189C188.73 17.5728 188.852 17.6963 189.002 17.7707L190.112 18.3111C190.311 18.4087 190.538 18.4235 190.747 18.3527C190.957 18.2818 191.132 18.1305 191.24 17.9291L191.684 17.0694C191.754 17.0874 191.82 17.1219 191.876 17.1705C191.932 17.219 191.977 17.2802 192.007 17.3495C192.037 17.4189 192.052 17.4945 192.05 17.5706C192.048 17.6468 192.03 17.7216 191.997 17.7893C191 19.8906 188.387 24.932 185.083 28.6339Z" fill="#4F4F4F"/>
</svg>
