<svg width="1240" height="176" viewBox="0 0 1240 176" fill="none" xmlns="http://www.w3.org/2000/svg">
<path d="M51.0722 176C50.1345 176 49.2354 175.824 48.5723 175.511C47.9093 175.198 47.5367 174.774 47.5367 174.331C47.5367 173.889 47.9093 173.464 48.5723 173.151C49.2354 172.838 50.1345 172.663 51.0722 172.663C58.8974 172.629 66.8169 172.446 74.6421 172.106C75.1063 172.087 75.5744 172.11 76.0194 172.176C76.4643 172.242 76.8774 172.348 77.2353 172.489C77.5931 172.63 77.8886 172.803 78.1049 172.998C78.3212 173.193 78.454 173.406 78.4958 173.625C78.5375 173.844 78.4875 174.065 78.3484 174.275C78.2094 174.485 77.984 174.68 77.6853 174.849C77.3865 175.018 77.0203 175.157 76.6073 175.259C76.1944 175.361 75.7428 175.424 75.2785 175.444C67.2883 175.783 59.1685 175.972 51.1547 176H51.0722ZM27.2195 175.633H26.9602C18.8875 175.349 10.8149 174.904 2.9543 174.309C2.02757 174.235 1.20094 173.991 0.656146 173.629C0.111355 173.268 -0.10693 172.819 0.0493479 172.382C0.205626 171.944 0.723577 171.554 1.48938 171.297C2.25518 171.04 3.20606 170.937 4.13279 171.011C11.793 171.567 19.6653 172.029 27.5259 172.307C28.4635 172.323 29.3492 172.514 29.9879 172.839C30.6266 173.163 30.9661 173.594 30.9317 174.036C30.8974 174.479 30.4919 174.897 29.8046 175.199C29.1173 175.5 28.2043 175.66 27.2666 175.644L27.2195 175.633ZM98.5538 173.964C98.0895 173.983 97.6219 173.958 97.1779 173.891C96.7338 173.825 96.3219 173.718 95.9657 173.576C95.6095 173.434 95.316 173.26 95.1019 173.065C94.8877 172.87 94.7572 172.656 94.7178 172.437C94.6783 172.218 94.7306 171.998 94.8718 171.788C95.013 171.578 95.2404 171.384 95.5408 171.216C95.8412 171.048 96.2087 170.909 96.6226 170.808C97.0364 170.707 97.4884 170.645 97.9527 170.627C105.719 169.993 113.462 169.197 120.981 168.263C121.889 168.15 122.854 168.212 123.665 168.435C124.476 168.659 125.066 169.025 125.306 169.453C125.545 169.882 125.413 170.338 124.94 170.72C124.467 171.103 123.692 171.382 122.784 171.495C115.065 172.451 107.121 173.263 99.2138 173.92C98.998 173.948 98.777 173.967 98.5538 173.975V173.964ZM144.668 168.229C143.839 168.226 143.039 168.086 142.407 167.833C141.775 167.579 141.352 167.229 141.211 166.843C141.071 166.458 141.222 166.061 141.639 165.723C142.055 165.384 142.71 165.126 143.49 164.992C150.938 163.719 158.245 162.283 165.209 160.726C166.053 160.548 167.01 160.533 167.877 160.685C168.743 160.836 169.45 161.141 169.845 161.535C170.241 161.929 170.295 162.38 169.994 162.792C169.694 163.205 169.064 163.545 168.238 163.741C161.073 165.343 153.554 166.822 145.847 168.129C145.47 168.198 145.072 168.236 144.668 168.241V168.229ZM1108.68 163.974H1108.61C1100.62 163.908 1092.53 163.73 1084.56 163.418C1084.1 163.402 1083.65 163.342 1083.23 163.243C1082.82 163.144 1082.45 163.007 1082.14 162.841C1081.84 162.674 1081.61 162.481 1081.46 162.272C1081.32 162.064 1081.26 161.843 1081.29 161.624C1081.33 161.405 1081.45 161.191 1081.66 160.995C1081.87 160.799 1082.16 160.624 1082.52 160.481C1082.87 160.338 1083.28 160.229 1083.72 160.16C1084.16 160.091 1084.63 160.064 1085.09 160.081C1092.93 160.359 1100.89 160.537 1108.74 160.637C1109.67 160.641 1110.57 160.82 1111.23 161.136C1111.88 161.451 1112.25 161.877 1112.24 162.32C1112.23 162.762 1111.85 163.185 1111.19 163.495C1110.52 163.806 1109.61 163.978 1108.68 163.974ZM1132.53 163.863C1131.59 163.871 1130.69 163.703 1130.01 163.396C1129.34 163.089 1128.95 162.668 1128.93 162.225C1128.91 161.783 1129.27 161.355 1129.92 161.036C1130.57 160.717 1131.46 160.534 1132.4 160.526C1140.27 160.387 1148.22 160.131 1155.97 159.775C1156.91 159.732 1157.84 159.867 1158.57 160.15C1159.3 160.432 1159.76 160.84 1159.85 161.282C1159.94 161.725 1159.65 162.166 1159.05 162.509C1158.45 162.853 1157.59 163.069 1156.65 163.112C1148.72 163.474 1140.64 163.735 1132.64 163.88L1132.53 163.863ZM1061.1 162.278C1060.94 162.283 1060.79 162.283 1060.63 162.278C1052.69 161.777 1044.68 161.165 1036.87 160.442C1036.41 160.404 1035.97 160.322 1035.57 160.202C1035.18 160.082 1034.84 159.926 1034.58 159.744C1034.31 159.562 1034.12 159.356 1034.03 159.14C1033.93 158.923 1033.93 158.7 1034.02 158.482C1034.11 158.265 1034.29 158.058 1034.55 157.874C1034.81 157.69 1035.14 157.532 1035.53 157.41C1035.92 157.287 1036.36 157.203 1036.82 157.161C1037.28 157.119 1037.76 157.121 1038.21 157.166C1045.9 157.873 1053.76 158.479 1061.56 158.968C1062.5 158.997 1063.37 159.2 1063.99 159.534C1064.61 159.867 1064.93 160.303 1064.87 160.745C1064.81 161.188 1064.37 161.601 1063.67 161.894C1062.96 162.186 1062.04 162.334 1061.1 162.306V162.278ZM1180.01 161.683C1179.07 161.717 1178.15 161.573 1177.43 161.284C1176.72 160.996 1176.28 160.585 1176.2 160.142C1176.13 159.699 1176.44 159.262 1177.05 158.925C1177.66 158.588 1178.53 158.379 1179.47 158.345C1187.27 157.789 1195.08 157.066 1202.7 156.271C1203.15 156.223 1203.62 156.218 1204.08 156.256C1204.53 156.294 1204.97 156.375 1205.36 156.492C1205.75 156.61 1206.09 156.763 1206.36 156.943C1206.63 157.122 1206.82 157.325 1206.92 157.539C1207.02 157.753 1207.03 157.974 1206.95 158.19C1206.87 158.406 1206.7 158.612 1206.45 158.797C1206.2 158.982 1205.87 159.142 1205.49 159.268C1205.11 159.394 1204.68 159.483 1204.23 159.53C1196.47 160.342 1188.52 161.054 1180.58 161.644C1180.4 161.668 1180.22 161.685 1180.03 161.694L1180.01 161.683ZM187.719 158.562C186.945 158.564 186.191 158.445 185.573 158.225C184.956 158.005 184.508 157.695 184.3 157.344C184.091 156.992 184.132 156.618 184.418 156.278C184.704 155.938 185.217 155.653 185.88 155.464C192.492 153.573 199.044 151.482 205.373 149.257C205.745 149.126 206.168 149.03 206.618 148.976C207.068 148.923 207.537 148.911 207.996 148.942C208.456 148.974 208.898 149.048 209.297 149.16C209.696 149.272 210.044 149.42 210.322 149.596C210.6 149.772 210.802 149.971 210.916 150.184C211.03 150.396 211.055 150.617 210.988 150.834C210.921 151.051 210.764 151.26 210.527 151.448C210.289 151.637 209.975 151.801 209.603 151.932C203.098 154.224 196.345 156.382 189.569 158.318C189.004 158.485 188.35 158.574 187.683 158.573L187.719 158.562ZM1014.29 158.006C1014 158.006 1013.7 157.988 1013.42 157.95C1005.62 157.005 997.828 155.942 990.285 154.786C989.393 154.649 988.652 154.351 988.225 153.957C987.799 153.562 987.722 153.104 988.011 152.683C988.3 152.262 988.932 151.912 989.767 151.711C990.602 151.509 991.573 151.473 992.465 151.61C999.878 152.722 1007.51 153.79 1015.17 154.719C1016.01 154.818 1016.75 155.059 1017.23 155.396C1017.72 155.733 1017.93 156.143 1017.82 156.548C1017.71 156.952 1017.29 157.325 1016.64 157.593C1015.99 157.862 1015.16 158.009 1014.29 158.006ZM968.919 151.048C968.47 151.046 968.027 151.005 967.611 150.925C960.116 149.518 952.691 147.977 945.538 146.353C945.107 146.262 944.719 146.13 944.397 145.967C944.076 145.804 943.826 145.611 943.665 145.402C943.503 145.192 943.432 144.97 943.456 144.747C943.48 144.524 943.598 144.306 943.804 144.105C944.01 143.904 944.298 143.725 944.653 143.578C945.008 143.43 945.422 143.318 945.871 143.248C946.319 143.177 946.793 143.15 947.264 143.168C947.735 143.185 948.194 143.247 948.614 143.35C955.602 144.935 962.885 146.442 970.239 147.799C971.006 147.942 971.643 148.208 972.04 148.549C972.436 148.89 972.567 149.286 972.411 149.668C972.254 150.05 971.82 150.395 971.182 150.641C970.544 150.888 969.744 151.022 968.919 151.02V151.048ZM225.961 145.146C225.244 145.147 224.543 145.044 223.952 144.852C223.362 144.661 222.908 144.389 222.653 144.072C222.397 143.756 222.351 143.411 222.521 143.082C222.691 142.753 223.068 142.457 223.604 142.231C229.272 139.845 234.988 137.226 240.586 134.5C241.238 134.181 242.131 133.998 243.069 133.99C244.007 133.982 244.914 134.151 245.589 134.458C246.264 134.766 246.652 135.187 246.669 135.63C246.685 136.073 246.329 136.501 245.677 136.819C239.949 139.601 234.116 142.282 228.306 144.723C227.655 144.994 226.816 145.143 225.949 145.141L225.961 145.146ZM925.986 141.253C925.371 141.254 924.766 141.179 924.231 141.036C917.419 139.2 910.513 137.198 903.713 135.084C903.298 134.97 902.936 134.817 902.651 134.634C902.365 134.452 902.161 134.243 902.052 134.023C901.942 133.802 901.93 133.572 902.014 133.349C902.099 133.126 902.279 132.913 902.543 132.723C902.808 132.534 903.152 132.372 903.554 132.248C903.956 132.123 904.407 132.039 904.881 131.999C905.354 131.96 905.84 131.967 906.308 132.019C906.776 132.071 907.216 132.168 907.602 132.303C914.284 134.378 921.06 136.341 927.742 138.143C928.417 138.326 928.944 138.609 929.243 138.949C929.542 139.288 929.595 139.664 929.395 140.019C929.195 140.373 928.753 140.687 928.137 140.911C927.52 141.135 926.764 141.257 925.986 141.258V141.253ZM259.159 128.954C258.32 128.953 257.51 128.811 256.873 128.554C256.519 128.412 256.228 128.238 256.016 128.043C255.805 127.848 255.677 127.635 255.64 127.417C255.602 127.198 255.657 126.978 255.8 126.77C255.942 126.561 256.171 126.368 256.472 126.201C261.339 123.515 266.23 120.678 271.439 117.518C272.022 117.178 272.864 116.96 273.785 116.91C274.706 116.86 275.632 116.983 276.363 117.252C277.094 117.521 277.571 117.915 277.693 118.349C277.815 118.782 277.571 119.221 277.013 119.571C271.745 122.764 266.784 125.645 261.858 128.37C261.524 128.559 261.106 128.711 260.633 128.815C260.16 128.919 259.645 128.972 259.124 128.971L259.159 128.954ZM886.118 128.915C885.358 128.916 884.619 128.801 884.009 128.587C877.833 126.429 871.458 124.087 865.058 121.629C864.672 121.495 864.347 121.326 864.104 121.131C863.861 120.936 863.704 120.72 863.643 120.496C863.581 120.272 863.618 120.044 863.749 119.826C863.88 119.609 864.104 119.406 864.406 119.231C864.708 119.055 865.083 118.911 865.507 118.806C865.931 118.701 866.396 118.637 866.874 118.62C867.352 118.602 867.832 118.631 868.285 118.703C868.739 118.776 869.157 118.891 869.513 119.042C875.83 121.468 882.123 123.776 888.216 125.906C888.813 126.115 889.255 126.407 889.48 126.742C889.705 127.076 889.701 127.435 889.469 127.768C889.236 128.101 888.788 128.392 888.186 128.598C887.585 128.803 886.861 128.915 886.118 128.915ZM849.066 114.737C848.199 114.739 847.36 114.591 846.709 114.32C841.088 112.001 835.266 109.531 828.902 106.767C828.211 106.467 827.801 106.05 827.761 105.608C827.721 105.166 828.055 104.734 828.69 104.408C829.324 104.082 830.207 103.888 831.144 103.87C832.082 103.851 832.996 104.009 833.687 104.308C840.015 107.056 845.79 109.509 851.364 111.812C851.908 112.036 852.294 112.333 852.469 112.664C852.644 112.995 852.601 113.343 852.344 113.662C852.087 113.98 851.63 114.254 851.033 114.447C850.437 114.639 849.73 114.74 849.007 114.737H849.066ZM288.562 111.25C287.908 111.25 287.266 111.165 286.708 111.003C286.15 110.842 285.698 110.61 285.402 110.335C285.106 110.059 284.979 109.75 285.033 109.442C285.088 109.134 285.322 108.84 285.711 108.591C290.542 105.482 295.28 102.378 299.676 99.48C300.226 99.1261 301.05 98.8888 301.968 98.8196C302.887 98.7504 303.826 98.8547 304.582 99.1101C305.339 99.3654 305.852 99.7512 306.01 100.184C306.168 100.616 305.958 101.061 305.427 101.421C301.019 104.325 296.27 107.445 291.414 110.566C291.086 110.777 290.657 110.95 290.162 111.069C289.666 111.188 289.118 111.25 288.562 111.25ZM813.841 99.569C812.938 99.5689 812.069 99.4057 811.413 99.1129C807.171 97.2218 802.94 95.325 798.721 93.4227L794.101 91.3535C793.421 91.0482 793.027 90.6279 793.003 90.1851C792.98 89.7423 793.331 89.3132 793.978 88.9924C794.625 88.6715 795.515 88.4851 796.453 88.4742C797.391 88.4632 798.3 88.6286 798.98 88.934L803.588 91.0087L816.269 96.6877C816.783 96.9172 817.139 97.2141 817.292 97.5403C817.445 97.8664 817.387 98.2066 817.125 98.517C816.864 98.8273 816.411 99.0935 815.825 99.281C815.24 99.4686 814.549 99.5689 813.841 99.569ZM316.457 92.9944C315.806 92.9945 315.167 92.9095 314.611 92.7489C314.055 92.5883 313.604 92.3584 313.308 92.0845C313.012 91.8105 312.881 91.5033 312.932 91.1966C312.982 90.89 313.211 90.5959 313.594 90.3468C316.01 88.7783 318.425 87.2097 320.853 85.6578C323.281 84.1059 325.567 82.6653 327.853 81.2525C328.131 81.0728 328.483 80.9212 328.886 80.8066C329.29 80.6919 329.739 80.6165 330.205 80.5848C330.672 80.5531 331.147 80.5658 331.603 80.622C332.059 80.6783 332.486 80.7769 332.86 80.9123C333.234 81.0476 333.547 81.2169 333.78 81.4102C334.014 81.6034 334.163 81.8167 334.219 82.0376C334.275 82.2584 334.237 82.4824 334.107 82.6962C333.978 82.91 333.758 83.1094 333.463 83.2827C331.2 84.6788 328.867 86.1417 326.545 87.6324C324.224 89.1231 321.725 90.7417 319.333 92.3047C318.995 92.5119 318.559 92.6788 318.059 92.7918C317.56 92.9049 317.011 92.9609 316.457 92.9555V92.9944ZM779.181 84.0948C778.305 84.0878 777.464 83.9272 776.824 83.6443C770.437 80.8298 764.71 78.3434 759.289 76.0462C758.914 75.9042 758.604 75.7277 758.378 75.5274C758.153 75.327 758.017 75.1071 757.977 74.881C757.938 74.6549 757.997 74.4274 758.15 74.2124C758.304 73.9974 758.548 73.7994 758.869 73.6306C759.19 73.4617 759.581 73.3255 760.017 73.2302C760.453 73.135 760.926 73.0827 761.406 73.0766C761.887 73.0706 762.365 73.1107 762.811 73.1948C763.257 73.2788 763.663 73.405 764.003 73.5655C769.459 75.8738 775.222 78.3768 781.68 81.208C782.198 81.4367 782.558 81.7337 782.713 82.0603C782.869 82.3868 782.812 82.7279 782.552 83.0391C782.291 83.3504 781.838 83.6176 781.252 83.8059C780.666 83.9941 779.973 84.0948 779.264 84.0948H779.181ZM345.602 75.0951C344.929 75.0944 344.271 75.0032 343.704 74.8321C343.138 74.661 342.686 74.4172 342.403 74.1293C342.12 73.8415 342.016 73.5214 342.105 73.2067C342.193 72.8921 342.47 72.5959 342.903 72.3529C348.194 69.3715 353.509 66.5125 358.836 63.8482C359.48 63.5315 360.363 63.3473 361.292 63.3356C362.222 63.3238 363.124 63.4854 363.803 63.7854C364.482 64.0854 364.883 64.4996 364.92 64.9382C364.956 65.3768 364.625 65.8045 363.998 66.1287C358.801 68.7485 353.521 71.563 348.312 74.4721C347.986 74.6638 347.573 74.8191 347.105 74.9268C346.636 75.0345 346.123 75.092 345.602 75.0951ZM743.673 68.9766C742.836 68.9769 742.026 68.8369 741.387 68.5817L738.653 67.497C733.515 65.4723 728.223 63.4755 722.932 61.5732C722.562 61.4403 722.251 61.2743 722.017 61.0847C721.783 60.895 721.631 60.6855 721.569 60.468C721.506 60.2506 721.535 60.0295 721.654 59.8173C721.772 59.6052 721.979 59.4061 722.26 59.2315C722.542 59.0569 722.894 58.9103 723.296 58.7999C723.697 58.6895 724.141 58.6175 724.602 58.588C725.062 58.5586 725.531 58.5722 725.98 58.6282C726.43 58.6842 726.852 58.7815 727.222 58.9145C732.596 60.8557 737.97 62.8803 743.19 64.9328L745.96 66.0453C746.513 66.2662 746.909 66.5619 747.094 66.8925C747.279 67.2231 747.245 67.5726 746.995 67.8936C746.746 68.2146 746.293 68.4917 745.699 68.6874C745.105 68.8831 744.398 68.988 743.673 68.9877V68.9766ZM378.269 58.6586C377.565 58.653 376.881 58.5484 376.303 58.3581C375.726 58.1677 375.282 57.9003 375.029 57.5902C374.776 57.28 374.725 56.9412 374.882 56.6173C375.039 56.2933 375.398 55.9989 375.912 55.7718C381.899 53.1242 388.039 50.61 394.132 48.3017C394.492 48.1565 394.91 48.047 395.362 47.9796C395.813 47.9122 396.289 47.8884 396.76 47.9094C397.232 47.9304 397.69 47.996 398.106 48.1021C398.523 48.2082 398.891 48.3528 399.187 48.5272C399.483 48.7016 399.702 48.9024 399.83 49.1175C399.959 49.3326 399.995 49.5578 399.935 49.7795C399.876 50.0013 399.723 50.2152 399.485 50.4085C399.248 50.6018 398.93 50.7706 398.551 50.9048C392.6 53.1297 386.601 55.6161 380.744 58.2081C380.413 58.3634 380.019 58.4861 379.586 58.5692C379.153 58.6522 378.689 58.694 378.222 58.692L378.269 58.6586ZM705.702 55.3212C704.996 55.3203 704.306 55.2196 703.722 55.032C697.158 52.9184 690.441 50.8937 683.771 49.0025C683.3 48.911 682.878 48.7727 682.531 48.597C682.184 48.4214 681.922 48.2125 681.763 47.9846C681.603 47.7568 681.549 47.5154 681.605 47.2768C681.66 47.0382 681.825 46.8081 682.086 46.6022C682.347 46.3963 682.7 46.2195 683.119 46.0837C683.539 45.948 684.015 45.8566 684.516 45.8157C685.017 45.7748 685.531 45.7853 686.023 45.8467C686.514 45.9081 686.972 46.0188 687.365 46.1713C694.153 48.0903 700.977 50.1539 707.647 52.2898C708.272 52.4906 708.744 52.7807 708.994 53.1175C709.244 53.4543 709.259 53.82 709.036 54.161C708.813 54.502 708.365 54.8003 707.756 55.0121C707.148 55.224 706.411 55.3382 705.655 55.3379L705.702 55.3212ZM415.534 44.6194C414.774 44.6196 414.034 44.5044 413.424 44.2907C412.814 44.077 412.366 43.7762 412.147 43.4329C411.927 43.0897 411.948 42.7222 412.205 42.3849C412.463 42.0476 412.944 41.7584 413.577 41.5602C420.389 39.4243 427.389 37.4553 434.366 35.7143C434.777 35.612 435.226 35.549 435.689 35.5287C436.151 35.5084 436.618 35.5314 437.061 35.5962C437.505 35.661 437.918 35.7664 438.275 35.9065C438.632 36.0465 438.928 36.2184 439.145 36.4123C439.361 36.6063 439.495 36.8185 439.538 37.0368C439.581 37.2551 439.532 37.4752 439.395 37.6847C439.258 37.8941 439.034 38.0887 438.737 38.2574C438.441 38.4261 438.077 38.5656 437.666 38.6679C430.901 40.3365 424.113 42.261 417.49 44.3358C416.907 44.5374 416.208 44.65 415.486 44.6584L415.534 44.6194ZM664.761 43.7351C664.194 43.7379 663.635 43.6728 663.135 43.546C656.064 41.8105 648.887 40.2086 641.816 38.7235C640.993 38.5351 640.357 38.2036 640.041 37.7986C639.725 37.3936 639.754 36.9465 640.122 36.5513C640.489 36.1561 641.167 35.8435 642.012 35.6792C642.858 35.5148 643.806 35.5114 644.656 35.6698C651.869 37.166 659.187 38.818 666.388 40.5868C667.089 40.7593 667.647 41.0378 667.973 41.3776C668.3 41.7175 668.375 42.0992 668.188 42.4617C668 42.8242 667.561 43.1466 666.94 43.3774C666.319 43.6083 665.552 43.7342 664.761 43.7351ZM621.051 34.7131C620.65 34.7143 620.251 34.6822 619.873 34.6185C612.366 33.3614 604.788 32.2546 597.352 31.3201C596.445 31.2058 595.672 30.9262 595.202 30.5428C594.733 30.1595 594.605 29.7038 594.847 29.276C595.09 28.8482 595.682 28.4833 596.494 28.2616C597.306 28.04 598.272 27.9797 599.178 28.094C606.791 29.0507 614.499 30.1854 622.23 31.4703C623.017 31.601 623.681 31.8592 624.104 32.1989C624.527 32.5387 624.682 32.9381 624.541 33.3265C624.4 33.7149 623.972 34.0672 623.333 34.321C622.694 34.5748 621.886 34.7137 621.051 34.7131ZM457.676 34.1569C456.854 34.1565 456.057 34.0208 455.424 33.773C454.79 33.5253 454.36 33.1811 454.206 32.7996C454.052 32.4182 454.186 32.0234 454.583 31.6833C454.979 31.3432 455.615 31.079 456.38 30.9363C463.905 29.5332 471.594 28.3336 479.408 27.3431C480.314 27.2288 481.28 27.2891 482.092 27.5108C482.904 27.7324 483.497 28.0973 483.739 28.5251C483.981 28.9529 483.853 29.4086 483.384 29.7919C482.914 30.1753 482.141 30.4548 481.235 30.5692C473.684 31.5247 466.255 32.6836 458.984 34.04C458.558 34.1314 458.097 34.1806 457.629 34.1846L457.676 34.1569ZM574.972 28.9672C574.768 28.9753 574.563 28.9753 574.359 28.9672C566.558 28.3276 558.709 27.8548 551.025 27.6045C550.087 27.5721 549.215 27.3652 548.601 27.0293C547.987 26.6934 547.68 26.256 547.749 25.8135C547.818 25.3709 548.256 24.9594 548.968 24.6694C549.679 24.3794 550.606 24.2347 551.543 24.2672C559.451 24.5397 567.536 25.0125 575.561 25.6689C576.424 25.7439 577.197 25.9678 577.73 26.2969C578.263 26.6261 578.517 27.0369 578.443 27.4496C578.37 27.8624 577.974 28.2474 577.332 28.53C576.691 28.8125 575.849 28.9723 574.972 28.9784V28.9672ZM503.673 28.3498C502.735 28.3816 501.81 28.2362 501.099 27.9457C500.388 27.6552 499.951 27.2434 499.884 26.8008C499.817 26.3582 500.125 25.9212 500.74 25.5858C501.356 25.2505 502.229 25.0442 503.166 25.0125C511.173 24.4617 519.238 24.1237 527.325 24.0002H527.443C528.381 23.9935 529.286 24.163 529.959 24.4712C530.632 24.7794 531.018 25.2012 531.032 25.6438C531.046 26.0864 530.687 26.5135 530.034 26.8311C529.381 27.1487 528.487 27.3309 527.549 27.3375C519.73 27.4557 511.932 27.7826 504.192 28.3165L503.673 28.3498Z" fill="#FF0401" fill-opacity="0.3"/>
<path d="M1223.5 102C1186.38 102 1223.5 147 1223.5 147C1223.5 147 1260.62 102 1223.5 102ZM1223.5 130.465C1221.02 130.465 1218.59 129.725 1216.53 128.338C1214.47 126.95 1212.86 124.978 1211.91 122.672C1210.96 120.365 1210.71 117.826 1211.2 115.377C1211.68 112.928 1212.88 110.678 1214.63 108.913C1216.38 107.147 1218.62 105.945 1221.05 105.457C1223.49 104.97 1226.01 105.22 1228.3 106.176C1230.59 107.131 1232.55 108.75 1233.93 110.826C1235.31 112.902 1236.04 115.343 1236.04 117.84C1236.04 121.188 1234.72 124.4 1232.37 126.767C1230.02 129.135 1226.83 130.465 1223.5 130.465Z" fill="#FF0401"/>
<path d="M1224 107C1221.82 107 1219.7 107.645 1217.89 108.854C1216.08 110.063 1214.67 111.78 1213.84 113.79C1213 115.8 1212.79 118.012 1213.21 120.146C1213.64 122.28 1214.68 124.24 1216.22 125.778C1217.76 127.317 1219.72 128.364 1221.85 128.789C1223.99 129.213 1226.2 128.995 1228.21 128.163C1230.22 127.33 1231.94 125.92 1233.15 124.111C1234.35 122.302 1235 120.176 1235 118C1235 116.555 1234.72 115.124 1234.16 113.789C1233.61 112.454 1232.8 111.241 1231.78 110.219C1230.76 109.198 1229.55 108.388 1228.21 107.835C1226.88 107.283 1225.44 106.999 1224 107ZM1224 127.224C1222.17 127.224 1220.39 126.682 1218.87 125.667C1217.35 124.652 1216.17 123.21 1215.47 121.523C1214.77 119.835 1214.59 117.979 1214.95 116.188C1215.3 114.397 1216.18 112.752 1217.47 111.461C1218.77 110.17 1220.41 109.292 1222.2 108.936C1224 108.581 1225.85 108.765 1227.54 109.465C1229.23 110.165 1230.67 111.35 1231.68 112.869C1232.69 114.388 1233.23 116.174 1233.23 118C1233.23 119.213 1232.99 120.414 1232.53 121.534C1232.07 122.655 1231.39 123.673 1230.53 124.53C1229.67 125.388 1228.65 126.068 1227.53 126.531C1226.41 126.995 1225.21 127.233 1224 127.232V127.224Z" fill="#FF0401"/>
<path d="M1228 155.491C1228 156.382 1227.74 157.253 1227.25 157.994C1226.75 158.735 1226.05 159.313 1225.23 159.655C1224.41 159.997 1223.5 160.087 1222.63 159.915C1221.75 159.742 1220.95 159.314 1220.32 158.685C1219.69 158.056 1219.26 157.254 1219.09 156.381C1218.91 155.508 1219 154.603 1219.34 153.78C1219.68 152.957 1220.26 152.254 1221 151.759C1221.74 151.264 1222.61 151 1223.5 151C1224.69 151 1225.84 151.473 1226.68 152.315C1227.52 153.157 1228 154.299 1228 155.491Z" fill="#FF0401"/>
<path d="M674.026 104.611C675.947 105.14 677.966 105.129 679.881 104.579C681.796 104.03 683.539 102.96 684.936 101.479L713.941 70.7366C714.931 69.6881 716.165 68.9281 717.52 68.5312C718.875 68.1342 720.306 68.1141 721.67 68.4727L736.919 72.4984C740.72 73.5049 744.688 73.595 748.526 72.7622L751.016 72.226C751.469 72.1366 751.889 71.9139 752.226 71.5837C752.564 71.2536 752.805 70.8297 752.921 70.3614C753.038 69.8931 753.025 69.3996 752.884 68.9386C752.744 68.4777 752.481 68.0681 752.127 67.7577L750.205 66.0554C747.246 63.3579 743.744 61.3969 739.961 60.3189L724.785 56.0037C723.427 55.6131 722.19 54.8584 721.194 53.8138C720.199 52.7692 719.48 51.4706 719.107 50.0459L708.149 8.34102C707.619 6.33315 706.596 4.50628 705.183 3.04271C703.77 1.57915 702.015 0.530022 700.095 0C704.313 17.9927 704.045 38.9558 703.704 47.6627C703.692 47.9392 703.62 48.2093 703.495 48.453C703.37 48.6966 703.194 48.9078 702.981 49.071C702.768 49.2343 702.523 49.3454 702.263 49.3962C702.004 49.4471 701.737 49.4364 701.482 49.365V45.7733C701.486 44.9294 701.186 44.1153 700.641 43.4946C700.096 42.8739 699.348 42.4929 698.546 42.4283L694.077 42.0709C693.473 42.0281 692.872 42.1923 692.365 42.539C691.84 42.906 691.208 43.0659 690.581 42.9901L688.959 42.8199L690.581 43.6029C691.089 43.8505 691.513 44.2543 691.797 44.7605L692.276 45.6116L693.087 46.9734L689.843 46.0541C687.777 45.4681 685.648 45.1593 683.508 45.1349L672.728 44.9987L671.528 32.4362C671.403 31.1293 670.861 29.9052 669.989 28.9626C669.117 28.02 667.967 27.4145 666.726 27.2444L662.857 26.7167L664.634 44.9051H661.633C661.527 44.9024 661.423 44.9371 661.339 45.0036C661.254 45.0701 661.194 45.1646 661.166 45.2718C661.139 45.3789 661.147 45.4925 661.189 45.5942C661.231 45.696 661.304 45.78 661.397 45.8328L664.033 47.3478L654 62.302L657.65 63.834C658.805 64.3206 660.083 64.3855 661.277 64.0181C662.472 63.6507 663.514 62.8724 664.236 61.8083L671.244 51.4757L680.596 56.8378C682.475 57.9187 684.479 58.7424 686.558 59.289L689.802 60.1402L688.48 60.9232L687.669 61.4254C687.181 61.7305 686.613 61.8646 686.047 61.8083L684.246 61.6552L685.722 62.3191C686.303 62.5827 686.778 63.0487 687.069 63.6383C687.349 64.2005 687.796 64.6516 688.342 64.9235L692.398 66.898C693.125 67.2545 693.955 67.3087 694.719 67.0498C695.484 66.7909 696.126 66.238 696.518 65.5023L698.14 62.3616C698.398 62.4272 698.638 62.5534 698.843 62.7307C699.047 62.908 699.211 63.1317 699.321 63.385C699.431 63.6382 699.485 63.9145 699.479 64.1928C699.472 64.4711 699.406 64.7441 699.284 64.9915C695.642 72.6686 686.095 91.0869 674.026 104.611Z" fill="#4F4F4F"/>
</svg>
