<svg width="98" height="30" viewBox="0 0 98 30" fill="none" xmlns="http://www.w3.org/2000/svg">
<path d="M13.3483 5.46927C12.9681 5.4632 12.593 5.5571 12.2605 5.74158C11.9281 5.92606 11.6499 6.19464 11.4539 6.52043L7.39113 13.2916C7.25239 13.5225 7.05581 13.7132 6.82084 13.8449C6.58587 13.9766 6.32064 14.0448 6.05128 14.0426L3.03799 14.022C2.2878 14.0173 1.54619 14.1818 0.868318 14.5032L0.427647 14.7121C0.348586 14.7498 0.281603 14.8088 0.234263 14.8825C0.186923 14.9562 0.161114 15.0417 0.159697 15.1292C0.15828 15.2168 0.181312 15.3031 0.226243 15.3783C0.271173 15.4534 0.336212 15.5146 0.414012 15.5548L0.847695 15.7779C1.51495 16.1205 2.25086 16.3083 3.0007 16.3273L6.01307 16.4041C6.28241 16.4114 6.54522 16.4886 6.77573 16.6281C7.00623 16.7676 7.19652 16.9646 7.32789 17.1999L11.173 24.0972C11.358 24.4296 11.6272 24.7075 11.9536 24.903C12.2799 25.0984 12.652 25.2046 13.0324 25.2108C11.4687 22.2106 10.6088 18.4823 10.2968 16.9265C10.2871 16.8768 10.2887 16.8256 10.3014 16.7765C10.3141 16.7275 10.3376 16.682 10.3702 16.6432C10.4029 16.6045 10.4438 16.5736 10.49 16.5528C10.5361 16.5319 10.5864 16.5217 10.637 16.5228L10.79 17.1593C10.8263 17.3095 10.9182 17.4404 11.0472 17.5256C11.1762 17.6108 11.3326 17.6439 11.4851 17.6184L12.3321 17.4793C12.4462 17.46 12.5508 17.4037 12.6297 17.319C12.7112 17.2274 12.8221 17.1671 12.9433 17.1485L13.2478 17.106L12.9099 17.0408C12.804 17.0209 12.7068 16.9691 12.6313 16.8923L12.507 16.7621L12.2996 16.5567L12.9386 16.5671C13.3486 16.5778 13.7583 16.536 14.1577 16.4428L16.1635 15.9976L16.9309 18.1719C17.0095 18.3989 17.1635 18.5922 17.3671 18.7198C17.5707 18.8473 17.8119 18.9014 18.0505 18.8731L18.7912 18.792L17.6742 15.6462L18.2348 15.5165C18.2539 15.5114 18.2709 15.5001 18.2831 15.4845C18.2953 15.4688 18.3021 15.4496 18.3024 15.4298C18.3027 15.41 18.2966 15.3905 18.2849 15.3745C18.2732 15.3585 18.2566 15.3467 18.2376 15.3409L17.6815 15.1932L18.8997 12.0851L18.155 11.9782C17.9188 11.9444 17.6781 11.991 17.4716 12.1106C17.2652 12.2303 17.105 12.4159 17.0169 12.6377L16.1602 14.7875L14.1877 14.2621C13.7916 14.156 13.3834 14.101 12.9733 14.0984L12.3342 14.0881L12.5482 13.8896L12.6767 13.7635C12.7548 13.689 12.8535 13.6398 12.9599 13.6223L13.2998 13.5681L12.9968 13.5175C12.8777 13.4965 12.7691 13.436 12.6887 13.3457C12.6137 13.2571 12.5105 13.1971 12.3964 13.1759L11.5544 13.0095C11.403 12.978 11.2454 13.0055 11.1135 13.0863C10.9817 13.167 10.8856 13.2949 10.8448 13.4441L10.6713 14.077C10.6206 14.0765 10.5708 14.0646 10.5253 14.0423C10.4798 14.02 10.4399 13.9878 10.4086 13.948C10.3772 13.9082 10.3552 13.862 10.3441 13.8126C10.3329 13.7631 10.333 13.7119 10.3443 13.6625C10.7118 12.116 11.6919 8.41747 13.3483 5.46927Z" fill="#FF0401"/>
<path d="M58.5547 18H58.4609C57.9453 18 57.5449 17.8477 57.2598 17.543V18.0996C57.2598 19.959 56.2012 20.8867 54.084 20.8828H53.4805V19.7812H54.0605C55.4707 19.7852 56.1758 19.2285 56.1758 18.1113V14.4316L57.2539 14.4258V15.9785C57.2773 16.5918 57.6797 16.8984 58.4609 16.8984H58.5547C58.6523 16.8984 58.7012 17.0723 58.7012 17.4199V17.4844C58.7012 17.8281 58.6523 18 58.5547 18ZM63.7051 18H63.582C62.6602 18 61.9707 17.709 61.5137 17.127C61.0684 17.709 60.3809 18 59.4512 18H58.5078C58.2148 18 58.0684 17.8281 58.0684 17.4844V17.4199C58.0684 17.0723 58.2148 16.8984 58.5078 16.8984H59.4805C60.4648 16.8984 60.957 16.4902 60.957 15.6738V14.1855H62.0352V15.6738C62.0352 16.4902 62.5488 16.8984 63.5762 16.8984H63.7051C63.8027 16.8984 63.8516 17.0723 63.8516 17.4199V17.4844C63.8516 17.8281 63.8027 18 63.7051 18ZM59.75 20.4961C59.6055 20.3516 59.5332 20.1738 59.5332 19.9629C59.5332 19.752 59.6055 19.5723 59.75 19.4238C59.8984 19.2793 60.0781 19.207 60.2891 19.207C60.5039 19.207 60.6836 19.2793 60.8281 19.4238C60.9766 19.5723 61.0508 19.75 61.0508 19.957C61.0508 20.1719 60.9766 20.3516 60.8281 20.4961C60.6836 20.6445 60.5059 20.7188 60.2949 20.7188C60.0801 20.7188 59.8984 20.6445 59.75 20.4961ZM66.3945 11.5898C66.25 11.4414 66.1777 11.2617 66.1777 11.0508C66.1777 10.8398 66.25 10.6621 66.3945 10.5176C66.543 10.3691 66.7227 10.2949 66.9336 10.2949C67.1484 10.2949 67.3281 10.3691 67.4727 10.5176C67.6211 10.6621 67.6953 10.8379 67.6953 11.0449C67.6953 11.2598 67.6211 11.4414 67.4727 11.5898C67.3281 11.7344 67.1504 11.8066 66.9395 11.8066C66.7246 11.8066 66.543 11.7344 66.3945 11.5898ZM63.7109 18C63.418 18 63.2715 17.8281 63.2715 17.4844V17.4199C63.2715 17.0723 63.418 16.8984 63.7109 16.8984H65.6152C66.4551 16.8984 67.207 16.7266 67.8711 16.3828L68.8672 15.8789C69.2812 15.668 69.4922 15.5527 69.5 15.5332L69.0371 15.2871L67.625 14.5547C66.9688 14.2109 66.3926 14.2266 65.8965 14.6016L64.9824 15.293L64.291 14.5195L65.1465 13.7988C65.9902 13.0879 66.8887 12.9863 67.8418 13.4941L69.8574 14.5723C71.0254 15.1973 70.8945 15.9121 69.4648 16.7168L68.5156 17.25C67.625 17.75 66.6621 18 65.627 18H63.7109ZM80.9199 18H80.709C79.752 18 79.1484 17.6348 78.8984 16.9043C76.3867 17.1699 75.0703 16.7363 74.9492 15.6035C74.8125 14.3027 75.834 13.4785 78.0137 13.1309L77.9082 12.5801L78.957 12.3809L79.5371 15.7734C79.666 16.5234 80.0781 16.8984 80.7734 16.8984H80.9199C81.0176 16.8984 81.0664 17.0723 81.0664 17.4199V17.4844C81.0664 17.8281 81.0176 18 80.9199 18ZM78.5586 15.832L78.248 14.0977C76.6699 14.293 75.8848 14.6992 75.8926 15.3164C75.9004 15.8359 76.7891 16.0078 78.5586 15.832ZM80.8672 18C80.5742 18 80.4277 17.8281 80.4277 17.4844V17.4199C80.4277 17.0723 80.5742 16.8984 80.8672 16.8984H81.2773C81.668 16.8984 81.8633 16.7539 81.8633 16.4648C81.8633 15.5352 81.9355 14.8926 82.0801 14.5371C82.3926 13.7793 82.9844 13.4004 83.8555 13.4004C85.1875 13.4004 85.8535 14.1914 85.8535 15.7734C85.8496 17.3164 85.1992 18.0859 83.9023 18.082C83.25 18.0781 82.7227 17.877 82.3203 17.4785C82.0664 17.8262 81.6836 18 81.1719 18H80.8672ZM83.8906 14.4082C83.2422 14.4082 82.9121 14.8438 82.9004 15.7148C82.8848 16.5938 83.2188 17.0352 83.9023 17.0391C84.5234 17.043 84.834 16.6035 84.834 15.7207C84.834 14.8457 84.5195 14.4082 83.8906 14.4082ZM87.3242 9.98438H88.3203V17.9941H87.3242V9.98438ZM91.9414 18H89.7969V16.8984H91.9473C92.9863 16.8984 93.4961 16.6621 93.4766 16.1895C93.4609 15.9121 93.2617 15.5508 92.8789 15.1055L91.2676 13.2422L91.9941 12.4336L93.752 14.4844C94.2754 15.0938 94.5352 15.6855 94.5312 16.2598C94.5273 17.4199 93.6641 18 91.9414 18ZM96.0664 9.98438H97.0625V17.9941H96.0664V9.98438Z" fill="#FF0401"/>
<path d="M51.912 16H51.3273C51.304 16 51.2816 15.9473 51.2651 15.8536C51.2486 15.7598 51.2394 15.6326 51.2394 15.5C51.2394 15.3674 51.2486 15.2402 51.2651 15.1465C51.2816 15.0527 51.304 15 51.3273 15H51.912C51.9354 15 51.9577 15.0527 51.9742 15.1465C51.9907 15.2402 52 15.3674 52 15.5C52 15.6326 51.9907 15.7598 51.9742 15.8536C51.9577 15.9473 51.9354 16 51.912 16ZM50.7424 16H50.1577C50.1343 16 50.112 15.9473 50.0955 15.8536C50.079 15.7598 50.0697 15.6326 50.0697 15.5C50.0697 15.3674 50.079 15.2402 50.0955 15.1465C50.112 15.0527 50.1343 15 50.1577 15H50.7424C50.7657 15 50.7881 15.0527 50.8046 15.1465C50.8211 15.2402 50.8303 15.3674 50.8303 15.5C50.8303 15.6326 50.8211 15.7598 50.8046 15.8536C50.7881 15.9473 50.7657 16 50.7424 16ZM49.573 16H48.988C48.9647 16 48.9423 15.9473 48.9258 15.8536C48.9093 15.7598 48.9 15.6326 48.9 15.5C48.9 15.3674 48.9093 15.2402 48.9258 15.1465C48.9423 15.0527 48.9647 15 48.988 15H49.573C49.5963 15 49.6187 15.0527 49.6352 15.1465C49.6517 15.2402 49.661 15.3674 49.661 15.5C49.661 15.6326 49.6517 15.7598 49.6352 15.8536C49.6187 15.9473 49.5963 16 49.573 16ZM48.4033 16H47.818C47.7947 16 47.7723 15.9473 47.7558 15.8536C47.7393 15.7598 47.7301 15.6326 47.7301 15.5C47.7301 15.3674 47.7393 15.2402 47.7558 15.1465C47.7723 15.0527 47.7947 15 47.818 15H48.4045C48.4278 15 48.4502 15.0527 48.4667 15.1465C48.4832 15.2402 48.4925 15.3674 48.4925 15.5C48.4925 15.6326 48.4832 15.7598 48.4667 15.8536C48.4502 15.9473 48.4278 16 48.4045 16H48.4033ZM47.2337 16H46.649C46.6256 16 46.6033 15.9473 46.5868 15.8536C46.5703 15.7598 46.561 15.6326 46.561 15.5C46.561 15.3674 46.5703 15.2402 46.5868 15.1465C46.6033 15.0527 46.6256 15 46.649 15H47.2337C47.257 15 47.2794 15.0527 47.2959 15.1465C47.3123 15.2402 47.3216 15.3674 47.3216 15.5C47.3216 15.6326 47.3123 15.7598 47.2959 15.8536C47.2794 15.9473 47.257 16 47.2337 16ZM46.0643 16H45.4778C45.4545 16 45.4321 15.9473 45.4156 15.8536C45.3991 15.7598 45.3899 15.6326 45.3899 15.5C45.3899 15.3674 45.3991 15.2402 45.4156 15.1465C45.4321 15.0527 45.4545 15 45.4778 15H46.0643C46.0876 15 46.11 15.0527 46.1265 15.1465C46.143 15.2402 46.1522 15.3674 46.1522 15.5C46.1522 15.6326 46.143 15.7598 46.1265 15.8536C46.11 15.9473 46.0876 16 46.0643 16ZM44.8946 16H44.3099C44.2866 16 44.2642 15.9473 44.2477 15.8536C44.2312 15.7598 44.222 15.6326 44.222 15.5C44.222 15.3674 44.2312 15.2402 44.2477 15.1465C44.2642 15.0527 44.2866 15 44.3099 15H44.8946C44.9179 15 44.9403 15.0527 44.9568 15.1465C44.9733 15.2402 44.9826 15.3674 44.9826 15.5C44.9826 15.6326 44.9733 15.7598 44.9568 15.8536C44.9403 15.9473 44.9179 16 44.8946 16ZM43.7249 16H43.1402C43.1169 16 43.0945 15.9473 43.078 15.8536C43.0615 15.7598 43.0523 15.6326 43.0523 15.5C43.0523 15.3674 43.0615 15.2402 43.078 15.1465C43.0945 15.0527 43.1169 15 43.1402 15H43.7249C43.7483 15 43.7706 15.0527 43.7871 15.1465C43.8036 15.2402 43.8129 15.3674 43.8129 15.5C43.8129 15.6326 43.8036 15.7598 43.7871 15.8536C43.7706 15.9473 43.7483 16 43.7249 16ZM42.5556 16H41.9691C41.9458 16 41.9234 15.9473 41.9069 15.8536C41.8904 15.7598 41.8811 15.6326 41.8811 15.5C41.8811 15.3674 41.8904 15.2402 41.9069 15.1465C41.9234 15.0527 41.9458 15 41.9691 15H42.5556C42.5789 15 42.6013 15.0527 42.6178 15.1465C42.6343 15.2402 42.6435 15.3674 42.6435 15.5C42.6435 15.6326 42.6343 15.7598 42.6178 15.8536C42.6013 15.9473 42.5789 16 42.5556 16ZM41.3859 16H40.8012C40.7779 16 40.7555 15.9473 40.739 15.8536C40.7225 15.7598 40.7132 15.6326 40.7132 15.5C40.7132 15.3674 40.7225 15.2402 40.739 15.1465C40.7555 15.0527 40.7779 15 40.8012 15H41.3859C41.4092 15 41.4316 15.0527 41.4481 15.1465C41.4646 15.2402 41.4739 15.3674 41.4739 15.5C41.4739 15.6326 41.4646 15.7598 41.4481 15.8536C41.4316 15.9473 41.4092 16 41.3859 16ZM40.2162 16H39.6315C39.6082 16 39.5858 15.9473 39.5693 15.8536C39.5528 15.7598 39.5436 15.6326 39.5436 15.5C39.5436 15.3674 39.5528 15.2402 39.5693 15.1465C39.5858 15.0527 39.6082 15 39.6315 15H40.2162C40.2396 15 40.2619 15.0527 40.2784 15.1465C40.2949 15.2402 40.3042 15.3674 40.3042 15.5C40.3042 15.6326 40.2949 15.7598 40.2784 15.8536C40.2619 15.9473 40.2396 16 40.2162 16ZM39.0468 16H38.4604C38.4371 16 38.4147 15.9473 38.3982 15.8536C38.3817 15.7598 38.3724 15.6326 38.3724 15.5C38.3724 15.3674 38.3817 15.2402 38.3982 15.1465C38.4147 15.0527 38.4371 15 38.4604 15H39.0468C39.0702 15 39.0926 15.0527 39.1091 15.1465C39.1255 15.2402 39.1348 15.3674 39.1348 15.5C39.1348 15.6326 39.1255 15.7598 39.1091 15.8536C39.0926 15.9473 39.0702 16 39.0468 16ZM37.8772 16H37.2913C37.268 16 37.2456 15.9473 37.2291 15.8536C37.2126 15.7598 37.2034 15.6326 37.2034 15.5C37.2034 15.3674 37.2126 15.2402 37.2291 15.1465C37.2456 15.0527 37.268 15 37.2913 15H37.8778C37.9011 15 37.9235 15.0527 37.94 15.1465C37.9565 15.2402 37.9657 15.3674 37.9657 15.5C37.9657 15.6326 37.9565 15.7598 37.94 15.8536C37.9235 15.9473 37.9011 16 37.8778 16H37.8772ZM36.7075 16H36.1228C36.0995 16 36.0771 15.9473 36.0606 15.8536C36.0441 15.7598 36.0349 15.6326 36.0349 15.5C36.0349 15.3674 36.0441 15.2402 36.0606 15.1465C36.0771 15.0527 36.0995 15 36.1228 15H36.7075C36.7308 15 36.7532 15.0527 36.7697 15.1465C36.7862 15.2402 36.7955 15.3674 36.7955 15.5C36.7955 15.6326 36.7862 15.7598 36.7697 15.8536C36.7532 15.9473 36.7308 16 36.7075 16ZM35.5381 16H34.9517C34.9284 16 34.906 15.9473 34.8895 15.8536C34.873 15.7598 34.8637 15.6326 34.8637 15.5C34.8637 15.3674 34.873 15.2402 34.8895 15.1465C34.906 15.0527 34.9284 15 34.9517 15H35.5381C35.5615 15 35.5838 15.0527 35.6003 15.1465C35.6168 15.2402 35.6261 15.3674 35.6261 15.5C35.6261 15.6326 35.6168 15.7598 35.6003 15.8536C35.5838 15.9473 35.5615 16 35.5381 16ZM34.3685 16H33.7838C33.7604 16 33.7381 15.9473 33.7216 15.8536C33.7051 15.7598 33.6958 15.6326 33.6958 15.5C33.6958 15.3674 33.7051 15.2402 33.7216 15.1465C33.7381 15.0527 33.7604 15 33.7838 15H34.3685C34.3918 15 34.4142 15.0527 34.4307 15.1465C34.4472 15.2402 34.4564 15.3674 34.4564 15.5C34.4564 15.6326 34.4472 15.7598 34.4307 15.8536C34.4142 15.9473 34.3918 16 34.3685 16ZM33.1988 16H32.6141C32.5908 16 32.5684 15.9473 32.5519 15.8536C32.5354 15.7598 32.5261 15.6326 32.5261 15.5C32.5261 15.3674 32.5354 15.2402 32.5519 15.1465C32.5684 15.0527 32.5908 15 32.6141 15H33.1988C33.2221 15 33.2445 15.0527 33.261 15.1465C33.2775 15.2402 33.2868 15.3674 33.2868 15.5C33.2868 15.6326 33.2775 15.7598 33.261 15.8536C33.2445 15.9473 33.2221 16 33.1988 16ZM32.0294 16H31.4447C31.4214 16 31.399 15.9473 31.3825 15.8536C31.366 15.7598 31.3568 15.6326 31.3568 15.5C31.3568 15.3674 31.366 15.2402 31.3825 15.1465C31.399 15.0527 31.4214 15 31.4447 15H32.0294C32.0528 15 32.0751 15.0527 32.0916 15.1465C32.1081 15.2402 32.1174 15.3674 32.1174 15.5C32.1174 15.6326 32.1081 15.7598 32.0916 15.8536C32.0751 15.9473 32.0528 16 32.0294 16ZM30.8598 16H30.2751C30.2517 16 30.2294 15.9473 30.2129 15.8536C30.1964 15.7598 30.1871 15.6326 30.1871 15.5C30.1871 15.3674 30.1964 15.2402 30.2129 15.1465C30.2294 15.0527 30.2517 15 30.2751 15H30.8598C30.8831 15 30.9055 15.0527 30.922 15.1465C30.9384 15.2402 30.9477 15.3674 30.9477 15.5C30.9477 15.6326 30.9384 15.7598 30.922 15.8536C30.9055 15.9473 30.8831 16 30.8598 16ZM29.6904 16H29.1054C29.0821 16 29.0597 15.9473 29.0432 15.8536C29.0267 15.7598 29.0174 15.6326 29.0174 15.5C29.0174 15.3674 29.0267 15.2402 29.0432 15.1465C29.0597 15.0527 29.0821 15 29.1054 15H29.6904C29.7137 15 29.7361 15.0527 29.7526 15.1465C29.7691 15.2402 29.7783 15.3674 29.7783 15.5C29.7783 15.6326 29.7691 15.7598 29.7526 15.8536C29.7361 15.9473 29.7137 16 29.6904 16ZM28.5207 16H27.9375C27.9142 16 27.8918 15.9473 27.8753 15.8536C27.8588 15.7598 27.8495 15.6326 27.8495 15.5C27.8495 15.3674 27.8588 15.2402 27.8753 15.1465C27.8918 15.0527 27.9142 15 27.9375 15H28.5222C28.5455 15 28.5679 15.0527 28.5844 15.1465C28.6009 15.2402 28.6101 15.3674 28.6101 15.5C28.6101 15.6326 28.6009 15.7598 28.5844 15.8536C28.5679 15.9473 28.5455 16 28.5222 16H28.5207ZM27.351 16H26.7663C26.743 16 26.7206 15.9473 26.7041 15.8536C26.6876 15.7598 26.6784 15.6326 26.6784 15.5C26.6784 15.3674 26.6876 15.2402 26.7041 15.1465C26.7206 15.0527 26.743 15 26.7663 15H27.351C27.3744 15 27.3967 15.0527 27.4132 15.1465C27.4297 15.2402 27.439 15.3674 27.439 15.5C27.439 15.6326 27.4297 15.7598 27.4132 15.8536C27.3967 15.9473 27.3744 16 27.351 16ZM26.1817 16H25.5967C25.5734 16 25.551 15.9473 25.5345 15.8536C25.518 15.7598 25.5087 15.6326 25.5087 15.5C25.5087 15.3674 25.518 15.2402 25.5345 15.1465C25.551 15.0527 25.5734 15 25.5967 15H26.1817C26.205 15 26.2274 15.0527 26.2439 15.1465C26.2604 15.2402 26.2696 15.3674 26.2696 15.5C26.2696 15.6326 26.2604 15.7598 26.2439 15.8536C26.2274 15.9473 26.205 16 26.1817 16ZM25.012 16H24.4273C24.404 16 24.3816 15.9473 24.3651 15.8536C24.3486 15.7598 24.3393 15.6326 24.3393 15.5C24.3393 15.3674 24.3486 15.2402 24.3651 15.1465C24.3816 15.0527 24.404 15 24.4273 15H25.012C25.0353 15 25.0577 15.0527 25.0742 15.1465C25.0907 15.2402 25.1 15.3674 25.1 15.5C25.1 15.6326 25.0907 15.7598 25.0742 15.8536C25.0577 15.9473 25.0353 16 25.012 16ZM23.8423 16H23.2576C23.2343 16 23.2119 15.9473 23.1954 15.8536C23.1789 15.7598 23.1697 15.6326 23.1697 15.5C23.1697 15.3674 23.1789 15.2402 23.1954 15.1465C23.2119 15.0527 23.2343 15 23.2576 15H23.8423C23.8657 15 23.888 15.0527 23.9045 15.1465C23.921 15.2402 23.9303 15.3674 23.9303 15.5C23.9303 15.6326 23.921 15.7598 23.9045 15.8536C23.888 15.9473 23.8657 16 23.8423 16ZM22.6729 16H22.088C22.0646 16 22.0423 15.9473 22.0258 15.8536C22.0093 15.7598 22 15.6326 22 15.5C22 15.3674 22.0093 15.2402 22.0258 15.1465C22.0423 15.0527 22.0646 15 22.088 15H22.6729C22.6963 15 22.7187 15.0527 22.7352 15.1465C22.7516 15.2402 22.7609 15.3674 22.7609 15.5C22.7609 15.6326 22.7516 15.7598 22.7352 15.8536C22.7187 15.9473 22.6963 16 22.6729 16Z" fill="#FF0401" fill-opacity="0.3"/>
</svg>
