<svg width="28" height="22" viewBox="0 0 28 22" fill="none" xmlns="http://www.w3.org/2000/svg">
<path d="M28 21C28 21.2652 27.8946 21.5196 27.7071 21.7071C27.5196 21.8946 27.2652 22 27 22H0.999986C0.64262 22 0.3125 21.8094 0.133929 21.5C-0.0446429 21.1906 -0.0446429 20.8094 0.133929 20.5C0.3125 20.1906 0.642632 20 0.999986 20H27C27.2652 20 27.5196 20.1054 27.7071 20.2929C27.8946 20.4804 28 20.7348 28 21ZM0.999986 2H27C27.3574 2 27.6875 1.80938 27.8661 1.5C28.0446 1.19062 28.0446 0.809371 27.8661 0.5C27.6875 0.190629 27.3574 0 27 0H0.999986C0.64262 0 0.3125 0.190623 0.133929 0.5C-0.0446429 0.809377 -0.0446429 1.19063 0.133929 1.5C0.3125 1.80937 0.642632 2 0.999986 2ZM27 10H0.999986C0.64262 10 0.3125 10.1906 0.133929 10.5C-0.0446429 10.8094 -0.0446429 11.1906 0.133929 11.5C0.3125 11.8094 0.642632 12 0.999986 12H27C27.3574 12 27.6875 11.8094 27.8661 11.5C28.0446 11.1906 28.0446 10.8094 27.8661 10.5C27.6875 10.1906 27.3574 10 27 10Z" fill="black"/>
</svg>
